<svg width="364" height="424" viewBox="0 0 364 424" fill="none" xmlns="http://www.w3.org/2000/svg">
<path d="M87.0431 22.8813L81.3908 24.2116C76.7085 25.3137 73.8057 30.0028 74.9079 34.6856L77.5686 45.9902L101.478 46.1934L97.5166 29.3644C96.415 24.6814 91.7254 21.7793 87.0431 22.8813V22.8813Z" fill="#D0D1D0"/>
<path d="M113.344 25.639L116.005 36.9436L100.349 46.459L96.3881 29.6299C95.2865 24.9498 90.5941 22.0455 85.9141 23.147L102.87 19.1561C107.551 18.0546 112.243 20.9589 113.344 25.639V25.639Z" fill="#A9AAAA"/>
<path d="M214.771 289.296L85.9004 319.627C74.9749 322.199 64.0333 315.426 61.4618 304.501L13.3036 99.8908C10.7321 88.9653 17.5045 78.0236 28.43 75.4522L157.301 45.1207C168.226 42.5492 179.168 49.3216 181.739 60.2471L229.897 264.857C232.469 275.783 225.697 286.724 214.771 289.296Z" fill="#717479"/>
<path d="M197.564 56.5216L245.722 261.131C248.294 272.057 241.521 282.999 230.596 285.57L213.639 289.561C224.565 286.99 231.337 276.048 228.766 265.122L192.446 193.736L180.608 60.513C178.036 49.5876 167.094 42.8151 156.169 45.3866L173.125 41.3957C184.051 38.8237 194.992 45.5961 197.564 56.5216V56.5216Z" fill="#5D6066"/>
<path d="M154.15 254.385L60.5913 224.77L30.2597 95.8998C29.8923 94.3388 30.8597 92.7758 32.4206 92.4084L177.117 58.3522C178.678 57.9848 180.241 58.9522 180.608 60.5131L210.94 189.383L154.15 254.385Z" fill="#F5F5F5"/>
<path d="M134.276 79.3229L117.932 41.4122C116.817 38.8292 114.009 37.4143 111.267 38.0595L66.4791 48.601C63.738 49.2461 61.8549 51.7653 62.0094 54.5744L64.2907 95.7948C64.49 99.4046 67.8998 101.955 71.4157 101.127L130.278 87.2734C133.793 86.446 135.707 82.6427 134.276 79.3229V79.3229ZM124.305 68.158C123.135 70.0559 121.239 71.5045 118.899 72.0553L90.6379 78.7069C85.9578 79.8084 81.2654 76.904 80.1639 72.2239C79.6131 69.8839 80.064 67.5409 81.2408 65.6472C82.4108 63.7493 84.3067 62.3007 86.6468 61.7499L114.908 55.0983C119.588 53.9968 124.28 56.9012 125.382 61.5813C125.933 63.9213 125.482 66.2649 124.305 68.158V68.158Z" fill="#D0D1D0"/>
<path d="M146.105 83.5475L129.148 87.5385C132.663 86.711 134.578 82.9077 133.146 79.588L116.803 41.6772C115.688 39.0942 112.879 37.6793 110.138 38.3245L127.094 34.3336C129.835 33.6884 132.644 35.1032 133.759 37.6863L150.103 75.597C151.534 78.9168 149.62 82.7201 146.105 83.5475Z" fill="#A9AAAA"/>
<path d="M226.606 268.616L81.9096 302.672C80.3487 303.039 78.7857 302.072 78.4183 300.511L75.0924 286.38L146.267 263.9L225.441 250.994L228.767 265.124C229.135 266.685 228.167 268.248 226.606 268.616V268.616Z" fill="#F5F5F5"/>
<path d="M60.5918 224.771L210.94 189.385L225.441 250.994L75.0925 286.38L60.5918 224.771Z" fill="#F5F5F5"/>
<path d="M172.26 250.123C172.196 250.138 172.132 250.152 172.067 250.164C170.355 250.486 168.617 249.758 167.646 248.312L161.183 238.687L156.621 239.761C154.903 240.165 153.112 239.493 152.084 238.059L149.059 233.838L146.179 253.435C145.919 255.203 144.606 256.632 142.868 257.041C142.857 257.044 142.844 257.047 142.832 257.049C141.077 257.446 139.258 256.723 138.255 255.229L131.792 245.604L124.969 247.21C123.247 247.615 121.45 246.938 120.424 245.498L117.025 240.727L114.048 260.997C113.788 262.765 112.474 264.194 110.737 264.603C110.725 264.606 110.713 264.608 110.701 264.611C108.946 265.008 107.127 264.285 106.124 262.791L99.6607 253.166L91.7073 255.038C89.3656 255.589 87.0217 254.138 86.4706 251.797C85.9196 249.456 87.3707 247.111 89.7119 246.56L100.598 243.998C102.363 243.582 104.201 244.304 105.211 245.809L107.07 248.576L109.982 228.749C110.241 226.989 111.543 225.564 113.271 225.148L113.294 225.142C115.015 224.737 116.811 225.413 117.839 226.855L125.821 238.061L132.73 236.435C134.495 236.019 136.333 236.741 137.343 238.246L139.201 241.012L142.009 221.904C142.267 220.147 143.565 218.723 145.291 218.305L145.32 218.298C147.037 217.894 148.829 218.565 149.857 219.999L157.465 230.613L162.122 229.517C163.886 229.101 165.724 229.823 166.735 231.328L169.221 235.03L173.888 214.1C174.261 212.426 175.596 211.128 177.261 210.782C178.941 210.436 180.667 211.109 181.671 212.499L189.33 223.113L194.595 221.874C196.937 221.323 199.281 222.774 199.832 225.115C200.383 227.456 198.931 229.801 196.59 230.352L188.498 232.256C186.785 232.66 184.998 231.993 183.968 230.566L180.28 225.455L175.513 246.83C175.148 248.467 173.879 249.742 172.26 250.123V250.123Z" fill="#0969D9"/>
<path d="M90.2993 195.716C89.1751 195.98 87.9919 195.788 87.0092 195.18L75.7544 188.214C73.7093 186.947 73.0777 184.264 74.3433 182.218C75.61 180.173 78.2936 179.542 80.3391 180.807L87.8906 185.482L100.306 165.424C101.572 163.379 104.256 162.747 106.301 164.013C108.346 165.279 108.978 167.963 107.713 170.008L93.0055 193.769C92.3965 194.751 91.4235 195.451 90.2993 195.716Z" fill="#81C784"/>
<path d="M79.6562 149.787C78.532 150.052 77.3488 149.859 76.3661 149.251L65.1113 142.285C63.0663 141.019 62.4347 138.335 63.7002 136.29C64.9669 134.244 67.6504 133.612 69.696 134.879L77.2475 139.553L89.6632 119.496C90.9287 117.45 93.6129 116.819 95.6584 118.084C97.7034 119.351 98.335 122.034 97.0694 124.08L82.3624 147.84C81.7534 148.822 80.7804 149.523 79.6562 149.787V149.787Z" fill="#81C784"/>
<path d="M180.317 173.364L154.322 179.452C151.981 180 149.636 178.538 149.083 176.185C148.53 173.832 149.98 171.481 152.32 170.933L178.315 164.845C180.657 164.296 183.002 165.759 183.554 168.112C184.108 170.464 182.658 172.815 180.317 173.364Z" fill="#D0D1D0"/>
<path d="M137.362 183.459L126.627 185.971C124.286 186.519 121.941 185.059 121.388 182.71C120.835 180.361 122.284 178.013 124.624 177.466L135.36 174.954C137.7 174.406 140.045 175.866 140.598 178.215C141.152 180.563 139.703 182.911 137.362 183.459Z" fill="#D0D1D0"/>
<path d="M176.327 156.423L122.636 169.012C120.294 169.561 117.949 168.095 117.397 165.738C116.844 163.381 118.294 161.026 120.635 160.477L174.326 147.888C176.668 147.339 179.013 148.805 179.565 151.162C180.118 153.519 178.668 155.874 176.327 156.423Z" fill="#D0D1D0"/>
<path d="M169.675 128.146L143.68 134.234C141.339 134.782 138.994 133.319 138.441 130.967C137.888 128.614 139.337 126.263 141.678 125.715L167.673 119.626C170.015 119.078 172.36 120.541 172.912 122.893C173.466 125.246 172.016 127.597 169.675 128.146Z" fill="#D0D1D0"/>
<path d="M126.72 138.242L115.984 140.755C113.644 141.302 111.299 139.842 110.746 137.493C110.193 135.145 111.642 132.797 113.982 132.249L124.717 129.737C127.058 129.189 129.403 130.649 129.956 132.998C130.509 135.347 129.06 137.695 126.72 138.242Z" fill="#D0D1D0"/>
<path d="M153.249 114.126L111.993 123.795C109.651 124.344 107.306 122.879 106.753 120.524C106.201 118.169 107.651 115.815 109.991 115.266L151.248 105.597C153.589 105.049 155.934 106.513 156.487 108.869C157.039 111.224 155.59 113.578 153.249 114.126Z" fill="#D0D1D0"/>
<path d="M258.921 222.896L216.464 158.826L261.655 128.047L304.112 192.116C304.112 192.116 323.29 220.273 338.727 242.937C342.129 247.931 368.568 275.997 340.971 294.794C310.26 315.712 293.439 276.387 291.337 273.3C275.9 250.636 258.921 222.896 258.921 222.896Z" fill="#FAFAFA" fill-opacity="0.75"/>
<path d="M294.073 265.022C307.387 284.569 315.855 302.078 335.897 288.427C342.49 283.936 342.586 284.627 345.873 277.986C352.586 264.443 340.955 252.291 332.021 239.175C325.342 229.368 302.713 200.662 302.713 200.662L256.622 206.725C256.622 206.725 287.394 255.215 294.073 265.022Z" fill="#EA2839"/>
<path d="M293.953 199.038L263.291 153.048C259.584 147.606 252.17 146.199 246.729 149.905L221.549 167.055L214.213 156.285L217.619 142.026L224.526 134.028L259.401 125.505L280.29 156.173C280.29 156.173 323.33 217.78 338.769 240.447C359.708 271.19 359.03 282.494 341.362 294.528C357.82 282.753 349.321 280.328 328.568 249.859C313.129 227.192 293.953 199.038 293.953 199.038Z" fill="#A9AAAA"/>
<path d="M345.554 279.109C351.194 266.89 339.186 253.36 330.274 240.276C323.611 230.494 302.714 200.662 302.714 200.662L295.795 201.527C300.334 208.19 317.757 234.906 324.222 244.398C332.318 256.285 344.518 271.438 345.554 279.109Z" fill="#EA2839"/>
<path d="M200.625 159.062C203.377 163.102 208.881 164.146 212.921 161.395L268.063 123.837C270.085 122.459 271.356 120.397 271.778 118.172C272.199 115.945 271.771 113.557 270.397 111.54C267.646 107.5 262.14 106.457 258.1 109.208L202.957 146.766C200.94 148.141 199.666 150.204 199.245 152.431C198.821 154.657 199.251 157.044 200.625 159.062V159.062Z" fill="#A9AAAA"/>
<path d="M200.624 159.062C203.375 163.102 208.88 164.146 212.92 161.395L250.97 135.479C252.988 134.104 254.261 132.04 254.685 129.814C255.106 127.587 254.676 125.201 253.302 123.183C250.551 119.143 245.046 118.099 241.006 120.85L202.956 146.766C200.939 148.141 199.665 150.205 199.244 152.431C198.82 154.658 199.25 157.045 200.624 159.062Z" fill="#FAFAFA"/>
<path opacity="0.5" d="M297.509 255.817C300.01 254.113 299.082 250.071 296.084 249.634C293.212 249.216 291.144 252.519 292.779 254.919C293.82 256.449 295.977 256.86 297.509 255.817Z" fill="#D30E1F"/>
<path opacity="0.5" d="M309.364 269.128C311.815 267.46 311.007 263.513 308.083 262.973C306.621 262.703 305.127 263.427 304.434 264.741C303.771 266.002 303.988 267.577 304.948 268.626C306.076 269.855 307.992 270.063 309.364 269.128V269.128Z" fill="#D30E1F"/>
<path opacity="0.5" d="M343.47 276.907C344.674 276.087 345.224 274.555 344.825 273.157C344.406 271.681 342.99 270.646 341.457 270.691C338.415 270.778 337.022 274.711 339.352 276.686C340.504 277.664 342.219 277.759 343.47 276.907V276.907Z" fill="#D30E1F"/>
<path opacity="0.5" d="M332.094 257.404C334.637 255.672 333.638 251.553 330.569 251.212C329.094 251.047 327.663 251.876 327.063 253.229C326.495 254.515 326.805 256.072 327.821 257.045C328.967 258.145 330.779 258.3 332.094 257.404V257.404Z" fill="#D30E1F"/>
<path opacity="0.5" d="M310.781 254.693C313.295 252.981 312.353 248.921 309.335 248.513C307.829 248.309 306.353 249.143 305.742 250.532C305.185 251.804 305.49 253.338 306.48 254.313C307.622 255.436 309.458 255.594 310.781 254.693V254.693Z" fill="#D30E1F"/>
<path opacity="0.5" d="M307.605 224.703C310.12 222.991 309.178 218.931 306.159 218.523C304.654 218.319 303.177 219.153 302.566 220.542C302.009 221.814 302.314 223.348 303.304 224.323C304.446 225.446 306.283 225.604 307.605 224.703V224.703Z" fill="#D30E1F"/>
<path d="M175.129 99.7394C174.614 96.0873 188.109 85.5212 194.921 80.6947C198.407 78.2963 207.06 72.6757 213.788 69.3814C220.516 66.087 225.29 68.1431 226.836 69.583C234.949 80.9697 251.331 103.97 251.955 104.876C252.734 106.009 254.664 107.602 254.157 111.707C253.65 115.811 239.928 127.339 231.167 133.368C222.406 139.397 210.674 144.132 206.503 145.333C203.166 146.294 200.63 143.254 199.779 141.614L178.198 107.225C177.389 106.252 175.643 103.391 175.129 99.7394Z" fill="#6B2254"/>
<path d="M181.907 96.368C184.979 92.585 193.806 86.3713 197.552 83.9324C199.912 82.3085 205.446 78.6677 210.969 75.5351C214.46 73.5546 217.495 72.8005 219.633 72.6045C220.855 72.4927 221.324 73.8029 220.466 74.6783C217.356 77.8496 212.42 82.6134 208.353 85.681C202.034 90.4462 187.184 98.5788 184.245 99.7663C181.307 100.954 178.067 101.097 181.907 96.368Z" fill="#FAFAFA"/>
<path d="M198.704 84.3933C195.7 86.1952 192.044 90.0094 189.698 92.7265C189.196 93.3069 189.741 94.1523 190.483 93.9591L191.006 93.8231L193.705 92.7322C193.861 92.6694 193.991 92.5596 194.083 92.4197C197.476 87.2687 204.825 83.7445 208.109 82.4468C208.166 82.4243 208.217 82.3972 208.267 82.3619C209.507 81.4852 210.803 80.0059 211.635 78.9705C212.032 78.4762 211.699 77.9117 211.098 78.1142C208.239 79.0778 202.579 82.0692 198.704 84.3933Z" fill="#D9D9D9"/>
<path d="M208.192 82.4132C208.192 82.4132 197.367 90.737 194.246 92.4675C195.123 89.861 199.219 86.9593 200.635 85.9849C205.55 83.0203 208.192 82.4132 208.192 82.4132Z" fill="#A9AAAA"/>
<path d="M213.273 137.351C221.175 133.691 236.159 123.914 243.54 116.523C249.216 110.84 250.008 108.962 248.555 106.851" stroke="#832C6D" stroke-width="3.19697" stroke-linecap="round"/>
<path d="M206.516 90.8756C203.27 94.086 190.988 100.705 185.966 102.89C182.104 104.571 181.022 104.583 180.223 103.423" stroke="#832C6D" stroke-width="3.19697" stroke-linecap="round"/>
<path d="M173.242 304.859L203.876 234.367L254.295 255.52L223.662 326.012C223.662 326.012 210.482 357.427 199.873 382.714C197.536 388.286 188.385 425.742 157.594 412.824C123.33 398.449 147.161 362.932 148.606 359.489C159.215 334.202 173.242 304.859 173.242 304.859Z" fill="#FAFAFA" fill-opacity="0.75"/>
<path d="M157.042 357.278C147.892 379.087 137.814 395.722 160.175 405.103C167.531 408.189 167.004 408.646 174.364 407.788C189.379 406.047 193.241 389.675 199.381 375.041C203.971 364.1 213.775 332.18 213.775 332.18L170.515 328.146C170.515 328.146 161.632 346.337 157.042 357.278Z" fill="#EA2839"/>
<path d="M212.324 321.258L234.213 270.501C236.76 264.43 233.904 257.444 227.834 254.898L199.74 243.111L204.781 231.095L218.597 226.19L229.066 227.63L255.2 252.245L240.844 286.462C240.844 286.462 212.594 356.102 201.984 381.392C187.593 415.693 177.742 421.277 158.029 413.007C176.866 420.403 174.274 411.953 188.536 377.959C199.146 352.669 212.324 321.258 212.324 321.258Z" fill="#A9AAAA"/>
<path d="M173.249 408.13C186.568 406.209 191.381 388.771 197.506 374.172C202.085 363.259 215.506 332.18 215.506 332.18L207.721 331.315C204.602 338.75 195.197 360.749 190.754 371.34C185.189 384.602 179.119 403.084 173.249 408.13Z" fill="#EA2839"/>
<path d="M195.057 221.208C193.166 225.715 195.286 230.901 199.793 232.792L261.316 258.604C263.572 259.55 265.994 259.494 268.09 258.636C270.187 257.778 271.958 256.119 272.902 253.867C274.793 249.36 272.671 244.174 268.164 242.283L206.641 216.471C204.389 215.527 201.965 215.582 199.868 216.441C197.77 217.297 196.001 218.957 195.057 221.208V221.208Z" fill="#A9AAAA"/>
<path d="M195.057 221.209C193.166 225.716 195.286 230.902 199.793 232.793L242.246 250.603C244.497 251.548 246.922 251.493 249.02 250.636C251.117 249.777 252.886 248.118 253.83 245.867C255.721 241.359 253.601 236.173 249.093 234.282L206.641 216.472C204.39 215.527 201.965 215.582 199.868 216.441C197.77 217.298 196.001 218.958 195.057 221.209Z" fill="#FAFAFA"/>
<path opacity="0.5" d="M166.632 355.149C169.422 356.32 172.308 353.341 171.043 350.588C169.83 347.952 165.933 348.015 164.81 350.693C164.094 352.399 164.923 354.432 166.632 355.149Z" fill="#D30E1F"/>
<path opacity="0.5" d="M161.921 372.341C164.654 373.488 167.525 370.662 166.386 367.915C165.817 366.541 164.396 365.683 162.917 365.817C161.498 365.947 160.295 366.986 159.938 368.362C159.521 369.977 160.389 371.698 161.921 372.341V372.341Z" fill="#D30E1F"/>
<path opacity="0.5" d="M173.96 405.183C175.303 405.747 176.887 405.374 177.843 404.279C178.852 403.123 178.95 401.372 178.078 400.111C176.349 397.606 172.291 398.579 171.903 401.609C171.71 403.107 172.564 404.598 173.96 405.183V405.183Z" fill="#D30E1F"/>
<path opacity="0.5" d="M184.128 385.024C186.965 386.214 189.877 383.134 188.492 380.374C187.828 379.047 186.354 378.298 184.892 378.531C183.504 378.755 182.367 379.862 182.103 381.244C181.805 382.804 182.661 384.408 184.128 385.024V385.024Z" fill="#D30E1F"/>
<path opacity="0.5" d="M174.801 365.67C177.606 366.847 180.499 363.847 179.198 361.093C178.549 359.719 177.046 358.934 175.549 359.178C174.178 359.403 173.058 360.494 172.779 361.855C172.458 363.424 173.325 365.051 174.801 365.67V365.67Z" fill="#D30E1F"/>
<path d="M226.429 171.663C229.146 169.168 245.501 174.293 253.339 177.167C257.291 178.678 266.828 182.618 273.356 186.292C279.885 189.965 280.898 195.063 280.589 197.153C275.81 210.293 266.155 236.829 265.762 237.856C265.271 239.14 265.053 241.633 261.384 243.543C257.716 245.453 240.439 240.688 230.506 236.89C220.572 233.092 210.019 226.113 206.665 223.359C203.981 221.155 205.047 217.343 205.916 215.712L222.003 178.435C222.347 177.217 223.712 174.157 226.429 171.663Z" fill="#ACA345"/>
<path d="M233.05 175.335C237.908 175.72 248.031 179.467 252.164 181.17C254.84 182.193 260.977 184.687 266.689 187.459C270.3 189.212 272.642 191.284 274.016 192.935C274.801 193.877 273.988 195.007 272.78 194.796C268.404 194.033 261.682 192.669 256.849 191.058C249.341 188.556 234.221 180.935 231.577 179.188C228.932 177.441 226.977 174.853 233.05 175.335Z" fill="#FAFAFA"/>
<path d="M252.439 182.381C249.251 180.928 244.036 180.079 240.467 179.687C239.705 179.603 239.318 180.531 239.898 181.033L240.306 181.386L242.735 182.991C242.875 183.084 243.04 183.129 243.207 183.126C249.374 182.999 256.443 187.054 259.375 189.023C259.425 189.057 259.477 189.084 259.534 189.105C260.96 189.63 262.913 189.858 264.237 189.956C264.87 190.003 265.146 189.409 264.638 189.029C262.223 187.22 256.55 184.254 252.439 182.381Z" fill="#D9D9D9"/>
<path d="M259.449 189.072C259.449 189.072 246.455 184.876 243.26 183.287C245.904 182.531 250.617 184.259 252.222 184.873C257.451 187.24 259.449 189.072 259.449 189.072Z" fill="#A9AAAA"/>
<path d="M217.078 224.409C224.573 228.842 241.124 235.641 251.397 237.529C259.297 238.982 261.293 238.569 262.208 236.175" stroke="#D1C653" stroke-width="3.19697" stroke-linecap="round"/>
<path d="M251.528 192.489C247.043 191.636 234.627 185.273 229.979 182.376C226.404 180.148 225.78 179.263 226.283 177.947" stroke="#D1C653" stroke-width="3.19697" stroke-linecap="round"/>
</svg>
