<svg width="50" height="50" viewBox="0 0 50 50" fill="none" xmlns="http://www.w3.org/2000/svg">
<g clip-path="url(#clip0_1446_115)">
<path fill-rule="evenodd" clip-rule="evenodd" d="M31.25 4.16667V13.5896C35.4201 15.0639 38.9348 17.965 41.1727 21.7801C43.4107 25.5952 44.228 30.0786 43.48 34.4379C42.7321 38.7973 40.4671 42.7519 37.0854 45.6027C33.7037 48.4536 29.4231 50.0173 25 50.0173C20.577 50.0173 16.2963 48.4536 12.9147 45.6027C9.53298 42.7519 7.26801 38.7973 6.52007 34.4379C5.77212 30.0786 6.58936 25.5952 8.82734 21.7801C11.0653 17.965 14.58 15.0639 18.75 13.5896V4.16667H14.5834V0H35.4167V4.16667H31.25ZM17.7316 33.2949C20.2921 33.2646 22.7993 32.5592 25 31.25C27.2008 29.9408 29.708 29.2354 32.2685 29.2051C34.829 29.1747 37.3522 29.8204 39.5834 31.0771C39.541 27.6022 38.258 24.257 35.9658 21.645C33.6736 19.0331 30.5233 17.3265 27.0834 16.8333V4.16667H22.9167V16.8333C19.4477 17.3314 16.2744 19.0631 13.9786 21.711C11.6828 24.3588 10.4182 27.7454 10.4167 31.25V31.4229C12.6479 32.6796 15.1711 33.3253 17.7316 33.2949ZM22.9167 26.0417C22.9167 27.7676 21.5176 29.1667 19.7917 29.1667C18.0658 29.1667 16.6667 27.7676 16.6667 26.0417C16.6667 24.3158 18.0658 22.9167 19.7917 22.9167C21.5176 22.9167 22.9167 24.3158 22.9167 26.0417Z" fill="#6E7544"/>
</g>
<defs>
<clipPath id="clip0_1446_115">
<rect width="50" height="50" fill="white"/>
</clipPath>
</defs>
</svg>
