<svg width="50" height="51" viewBox="0 0 50 51" fill="none" xmlns="http://www.w3.org/2000/svg">
<g clip-path="url(#clip0_1446_128)">
<path d="M7.75002 36.2907C3.81669 41.4344 3.81669 43.4469 3.81669 44.1094C3.76679 44.987 3.89655 45.8655 4.19804 46.6912C4.49953 47.5169 4.96639 48.2723 5.57003 48.9113C6.17368 49.5502 6.9014 50.0592 7.70863 50.4071C8.51586 50.755 9.38561 50.9344 10.2646 50.9344C11.1436 50.9344 12.0134 50.755 12.8206 50.4071C13.6278 50.0592 14.3555 49.5502 14.9592 48.9113C15.5628 48.2723 16.0297 47.5169 16.3312 46.6912C16.6327 45.8655 16.7624 44.987 16.7125 44.1094C16.7125 43.4469 16.7125 41.4344 12.7813 36.2886C12.4752 35.9177 12.0909 35.6191 11.6559 35.4142C11.2209 35.2093 10.746 35.1031 10.2652 35.1033C9.78431 35.1035 9.30946 35.2101 8.87463 35.4154C8.4398 35.6206 8.05576 35.9195 7.75002 36.2907Z" fill="#F4911E"/>
<path d="M45.9626 7.2657C45.6767 6.02102 45.1184 4.85523 44.3277 3.85231C43.5371 2.8494 42.5339 2.03434 41.3903 1.46584C40.2467 0.897346 38.9913 0.58957 37.7145 0.564689C36.4376 0.539807 35.1711 0.798439 34.0063 1.32195L12.7084 10.8928C11.2081 11.5662 9.57517 11.8923 7.9313 11.847C7.39565 11.8318 6.86493 11.9529 6.38895 12.1991C5.91297 12.4453 5.50735 12.8083 5.21015 13.2542C4.91296 13.7001 4.73394 14.2142 4.6899 14.7483C4.64586 15.2823 4.73824 15.8188 4.95838 16.3074L10.5938 28.8386C10.8125 29.3279 11.152 29.7536 11.5805 30.0756C12.0089 30.3975 12.5122 30.6053 13.043 30.6792C13.5739 30.7532 14.1148 30.6909 14.6149 30.4983C15.1151 30.3057 15.558 29.9891 15.9021 29.5782C16.9615 28.3183 18.2909 27.3129 19.7917 26.6365L40.8563 17.1678C42.7237 16.3656 44.2542 14.9392 45.1858 13.1328C46.1173 11.3263 46.3919 9.25229 45.9626 7.2657V7.2657ZM39.148 13.3678L37.9334 13.9136C37.6814 14.0269 37.3948 14.0354 37.1366 13.9373C36.8783 13.8393 36.6696 13.6426 36.5563 13.3907L36.0167 12.1928C35.9068 11.9399 35.7477 11.7113 35.5488 11.5203C35.3499 11.3293 35.115 11.1797 34.8578 11.0802C34.6006 10.9807 34.3262 10.9333 34.0505 10.9406C33.7748 10.948 33.5033 11.01 33.2518 11.1231C33.0003 11.2361 32.7737 11.398 32.5852 11.5994C32.3967 11.8007 32.2501 12.0374 32.1538 12.2958C32.0575 12.5542 32.0135 12.8292 32.0243 13.1048C32.0351 13.3803 32.1005 13.651 32.2167 13.9011L32.7542 15.099C32.8675 15.351 32.876 15.6376 32.7779 15.8959C32.6799 16.1541 32.4832 16.3628 32.2313 16.4761L30.3563 17.3095C30.1048 17.4228 29.8186 17.4318 29.5605 17.3345C29.4325 17.2861 29.3153 17.213 29.2155 17.1194C29.1158 17.0257 29.0355 16.9133 28.9792 16.7886L28.3813 15.4553C28.2714 15.2024 28.1123 14.9738 27.9134 14.7828C27.7144 14.5918 27.4796 14.4422 27.2224 14.3427C26.9652 14.2432 26.6908 14.1958 26.4151 14.2031C26.1394 14.2105 25.8679 14.2725 25.6164 14.3856C25.3649 14.4986 25.1383 14.6605 24.9498 14.8619C24.7613 15.0632 24.6147 15.2999 24.5184 15.5583C24.4221 15.8167 24.3781 16.0917 24.3889 16.3673C24.3997 16.6428 24.4651 16.9135 24.5813 17.1636L25.1792 18.497C25.2925 18.7489 25.301 19.0355 25.2029 19.2938C25.1049 19.552 24.9082 19.7607 24.6563 19.874L22.4084 20.8845C22.1564 20.9977 21.8698 21.0062 21.6116 20.9082C21.3533 20.8101 21.1446 20.6135 21.0313 20.3615L20.298 18.7282C20.1857 18.4787 20.0253 18.2537 19.8261 18.0662C19.6268 17.8787 19.3926 17.7322 19.1367 17.6352C18.8809 17.5382 18.6085 17.4925 18.335 17.5008C18.0615 17.509 17.7923 17.5711 17.5428 17.6834C17.2932 17.7957 17.0683 17.9561 16.8808 18.1553C16.6932 18.3546 16.5468 18.5888 16.4497 18.8446C16.3527 19.1005 16.307 19.3729 16.3153 19.6464C16.3236 19.9199 16.3857 20.1891 16.498 20.4386L17.2605 22.1345C17.3686 22.372 17.3836 22.6414 17.3026 22.8895C17.2216 23.1375 17.0504 23.3461 16.823 23.474C16.1127 23.8779 15.4362 24.3384 14.8 24.8511C14.6759 24.9511 14.5306 25.0213 14.3751 25.0562C14.2196 25.0912 14.0582 25.09 13.9032 25.0528C13.7483 25.0155 13.6039 24.9433 13.4813 24.8415C13.3587 24.7397 13.261 24.6111 13.1959 24.4657L9.9563 17.2636C9.89023 17.1182 9.8585 16.9595 9.86354 16.7999C9.86858 16.6402 9.91027 16.4839 9.98539 16.3429C10.0605 16.2019 10.167 16.0801 10.2967 15.9869C10.4264 15.8937 10.5758 15.8316 10.7334 15.8053C12.004 15.5907 13.2423 15.2162 14.4188 14.6907V14.6907L35.7146 5.12195C36.3193 4.8492 36.9772 4.71468 37.6404 4.72818C38.3036 4.74167 38.9554 4.90285 39.5485 5.19998C40.1415 5.49711 40.6609 5.92272 41.0688 6.44584C41.4766 6.96895 41.7628 7.57642 41.9063 8.22403C42.1021 9.26744 41.9353 10.3464 41.4336 11.282C40.9319 12.2176 40.1254 12.9536 39.148 13.3678V13.3678Z" fill="#F4911E"/>
</g>
<defs>
<clipPath id="clip0_1446_128">
<rect width="50" height="50" fill="white" transform="translate(0 0.557373)"/>
</clipPath>
</defs>
</svg>
