<svg width="50" height="50" viewBox="0 0 50 50" fill="none" xmlns="http://www.w3.org/2000/svg">
<path d="M26.7542 0.931231C26.5544 0.652518 26.2911 0.425426 25.986 0.268768C25.681 0.112109 25.343 0.0303955 25 0.0303955C24.6571 0.0303955 24.3191 0.112109 24.0141 0.268768C23.709 0.425426 23.4457 0.652518 23.2459 0.931231C23.0959 1.16248 8.33337 24.4479 8.33337 33.3042C8.33337 37.7244 10.0893 41.9637 13.2149 45.0893C16.3405 48.2149 20.5798 49.9708 25 49.9708C29.4203 49.9708 33.6595 48.2149 36.7852 45.0893C39.9108 41.9637 41.6667 37.7244 41.6667 33.3042C41.6667 24.45 26.9042 1.16248 26.7542 0.931231ZM25 44.2417C22.1002 44.2383 19.3202 43.0849 17.2697 41.0345C15.2193 38.984 14.0658 36.2039 14.0625 33.3042C14.0625 32.8898 14.2272 32.4923 14.5202 32.1993C14.8132 31.9063 15.2106 31.7417 15.625 31.7417C16.0394 31.7417 16.4369 31.9063 16.7299 32.1993C17.0229 32.4923 17.1875 32.8898 17.1875 33.3042C17.1903 35.3753 18.0143 37.3609 19.4788 38.8254C20.9433 40.2899 22.9289 41.1139 25 41.1167C25.4144 41.1167 25.8119 41.2813 26.1049 41.5743C26.3979 41.8673 26.5625 42.2648 26.5625 42.6792C26.5625 43.0936 26.3979 43.491 26.1049 43.784C25.8119 44.077 25.4144 44.2417 25 44.2417Z" fill="#AF292E"/>
</svg>
