<svg width="50" height="50" viewBox="0 0 50 50" fill="none" xmlns="http://www.w3.org/2000/svg">
<path d="M44.4247 32.2917L48.0663 26.0417C48.2523 25.723 48.3503 25.3607 48.3503 24.9917C48.3503 24.6227 48.2523 24.2604 48.0663 23.9417L44.4247 17.6917L48.0663 11.4417C48.2829 10.9694 48.3151 10.4332 48.1567 9.93837C47.9983 9.44353 47.6608 9.02572 47.2102 8.76693C46.7597 8.50814 46.2287 8.42704 45.7214 8.53954C45.2142 8.65204 44.7673 8.95002 44.4684 9.37502L40.8163 15.625H34.7038L31.6663 10.4167L35.308 4.16669C35.5464 3.69199 35.5944 3.14417 35.4423 2.63523C35.2902 2.12628 34.9495 1.69466 34.4897 1.4286C34.03 1.16254 33.486 1.08214 32.9689 1.20384C32.4518 1.32555 32.0008 1.64016 31.708 2.08335L28.0559 8.33335H21.9434L18.2913 2.08335C18.109 1.76757 17.847 1.50517 17.5315 1.32237C17.216 1.13958 16.858 1.04279 16.4934 1.04169H7.98508C7.62045 1.04279 7.26249 1.13958 6.94699 1.32237C6.63148 1.50517 6.36948 1.76757 6.18717 2.08335L1.933 9.37502C1.74704 9.6937 1.64905 10.0561 1.64905 10.425C1.64905 10.794 1.74704 11.1563 1.933 11.475L5.57467 17.725L1.933 23.975C1.74704 24.2937 1.64905 24.6561 1.64905 25.025C1.64905 25.394 1.74704 25.7563 1.933 26.075L5.57467 32.325L1.933 38.575C1.74704 38.8937 1.64905 39.2561 1.64905 39.625C1.64905 39.994 1.74704 40.3563 1.933 40.675L6.18717 47.9167C6.36948 48.2325 6.63148 48.4949 6.94699 48.6777C7.26249 48.8605 7.62045 48.9573 7.98508 48.9584H16.4934C16.858 48.9573 17.216 48.8605 17.5315 48.6777C17.847 48.4949 18.109 48.2325 18.2913 47.9167L21.9434 41.6667H28.0559L31.708 47.9167C32.0026 48.3557 32.4531 48.6663 32.9682 48.7855C33.4832 48.9048 34.0244 48.8237 34.4819 48.5588C34.9394 48.2938 35.2791 47.8649 35.4321 47.3588C35.5852 46.8527 35.54 46.3074 35.3059 45.8334L31.6663 39.5834L34.7059 34.375H40.8184L44.4705 40.625C44.7667 41.0603 45.2166 41.3672 45.7299 41.4842C46.2432 41.6012 46.7818 41.5195 47.2373 41.2556C47.6928 40.9917 48.0315 40.5651 48.1853 40.0616C48.3391 39.5581 48.2966 39.0151 48.0663 38.5417L44.4247 32.2917ZM21.9434 37.5L18.9038 32.2917L21.9434 27.0834H28.0559L31.0955 32.2917L28.0559 37.5H21.9434ZM9.183 30.2084L6.14341 25L9.183 19.7917H15.2955L18.333 25L15.2955 30.2084H9.183ZM28.0559 12.5L31.0955 17.7084L28.0559 22.9167H21.9434L18.9038 17.7084L21.9434 12.5H28.0559Z" fill="#1C71A1"/>
</svg>
