<svg width="50" height="51" viewBox="0 0 50 51" fill="none" xmlns="http://www.w3.org/2000/svg">
<g clip-path="url(#clip0_1446_150)">
<path d="M48.4416 20.1771C48.7056 19.6919 48.766 19.1218 48.6098 18.5921C48.4535 18.0623 48.0933 17.6163 47.6083 17.3521L29.2895 7.42499C28.8039 7.16143 28.2334 7.10161 27.7036 7.25867C27.1738 7.41573 26.7281 7.77682 26.4645 8.26249C26.201 8.74817 26.1412 9.31865 26.2982 9.84844C26.4553 10.3782 26.8164 10.8239 27.302 11.0875L29.1375 12.0812C29.38 12.2134 29.5601 12.4364 29.6382 12.7012C29.7163 12.9661 29.6861 13.2512 29.5541 13.4937L25.0854 21.7375C24.2872 23.111 23.8983 24.6839 23.9644 26.2711C24.0304 27.8582 24.5488 29.3935 25.4583 30.6958C25.5791 30.8553 25.6514 31.0463 25.6665 31.2458C25.6816 31.4453 25.639 31.6449 25.5437 31.8208L22.2104 37.9562C22.08 38.1969 21.9983 38.4608 21.97 38.733C21.9416 39.0052 21.9671 39.2803 22.0451 39.5426C22.1231 39.805 22.2519 40.0494 22.4243 40.2619C22.5968 40.4744 22.8093 40.6509 23.05 40.7812C23.2906 40.9116 23.5545 40.9933 23.8267 41.0217C24.0989 41.05 24.374 41.0245 24.6363 40.9465C24.8987 40.8686 25.1431 40.7397 25.3556 40.5673C25.5681 40.3949 25.7446 40.1823 25.875 39.9417L29.2083 33.8062C29.3035 33.6301 29.4475 33.4851 29.623 33.3887C29.7985 33.2922 29.9981 33.2484 30.1979 33.2625C31.786 33.3129 33.3554 32.9082 34.7212 32.0962C36.0869 31.2841 37.192 30.0985 37.9062 28.6792L42.375 20.4354C42.5071 20.1929 42.7301 20.0128 42.995 19.9347C43.2598 19.8565 43.5449 19.8868 43.7875 20.0187L45.6166 21.0104C46.1016 21.2737 46.6712 21.3338 47.2004 21.1776C47.7297 21.0213 48.1753 20.6615 48.4395 20.1771H48.4416Z" fill="#576499"/>
<path d="M35.0917 1.09165C34.8277 1.57682 34.7672 2.14693 34.9235 2.67667C35.0798 3.20641 35.44 3.65242 35.925 3.91665L37.7604 4.9104C37.8812 4.97626 37.9878 5.06539 38.074 5.17267C38.1602 5.27994 38.2242 5.40323 38.2625 5.5354C38.3018 5.66656 38.3148 5.80417 38.3009 5.94037C38.2869 6.07657 38.2463 6.20868 38.1812 6.32915L37.6833 7.24582C37.552 7.4882 37.5221 7.77275 37.6002 8.03712C37.6783 8.30149 37.858 8.52412 38.1 8.65624L41.7604 10.6417C42.003 10.7736 42.288 10.8039 42.5529 10.7257C42.8178 10.6476 43.0408 10.4675 43.1729 10.225L43.6687 9.30832C43.8009 9.06582 44.0239 8.88571 44.2887 8.80758C44.5536 8.72945 44.8387 8.75969 45.0812 8.89165L46.9104 9.88332C47.3951 10.1352 47.9593 10.1866 48.4815 10.0266C49.0038 9.8665 49.4423 9.50774 49.7026 9.02754C49.9629 8.54735 50.0242 7.98412 49.8733 7.45917C49.7224 6.93421 49.3714 6.4895 48.8958 6.22082L37.9167 0.254155C37.6762 0.12363 37.4123 0.0417544 37.1402 0.0132038C36.8681 -0.0153468 36.593 0.0099867 36.3307 0.0877576C36.0684 0.165529 35.8239 0.294213 35.6113 0.466463C35.3987 0.638714 35.2221 0.851154 35.0917 1.09165V1.09165Z" fill="#576499"/>
<path d="M43.7125 29.0646C43.4726 28.9242 43.2071 28.8333 42.9316 28.7971C42.6561 28.761 42.3761 28.7803 42.1081 28.8539C41.8402 28.9276 41.5897 29.0541 41.3714 29.2261C41.1531 29.398 40.9714 29.6119 40.837 29.8551C40.7026 30.0984 40.6182 30.366 40.5888 30.6424C40.5594 30.9187 40.5856 31.1981 40.6658 31.4642C40.746 31.7302 40.8787 31.9776 41.0559 32.1916C41.2332 32.4056 41.4515 32.582 41.6979 32.7104C44.325 34.1666 45.8333 35.9083 45.8333 37.5C45.8333 41.4354 36.925 45.8333 25 45.8333C13.075 45.8333 4.16667 41.4354 4.16667 37.5C4.16667 34.5687 9.375 30.7833 19.0146 29.5437C19.2966 29.5226 19.5714 29.4443 19.8222 29.3135C20.073 29.1827 20.2945 29.0022 20.4733 28.7831C20.6521 28.5639 20.7844 28.3106 20.8621 28.0387C20.9398 27.7667 20.9614 27.4818 20.9254 27.2013C20.8894 26.9207 20.7967 26.6504 20.6529 26.4069C20.5091 26.1633 20.3172 25.9516 20.0889 25.7847C19.8606 25.6177 19.6007 25.4989 19.325 25.4357C19.0493 25.3724 18.7637 25.3659 18.4854 25.4166C7.25417 26.8541 0 31.6 0 37.5C0 44.6271 10.7479 50 25 50C39.2521 50 50 44.6271 50 37.5C50 34.2979 47.7667 31.3021 43.7125 29.0646Z" fill="#576499"/>
<path d="M10.4166 37.4354C10.4166 38.2642 10.7459 39.0591 11.3319 39.6451C11.918 40.2312 12.7128 40.5604 13.5416 40.5604C14.3704 40.5604 15.1653 40.2312 15.7513 39.6451C16.3374 39.0591 16.6666 38.2642 16.6666 37.4354C16.6666 36.6066 16.3374 35.8118 15.7513 35.2257C15.1653 34.6397 14.3704 34.3104 13.5416 34.3104C12.7128 34.3104 11.918 34.6397 11.3319 35.2257C10.7459 35.8118 10.4166 36.6066 10.4166 37.4354Z" fill="#576499"/>
<path d="M29.6875 40.5604C29.6875 41.2511 29.9619 41.9135 30.4502 42.4018C30.9386 42.8902 31.601 43.1646 32.2917 43.1646C32.9823 43.1646 33.6447 42.8902 34.1331 42.4018C34.6215 41.9135 34.8958 41.2511 34.8958 40.5604C34.8958 39.8697 34.6215 39.2074 34.1331 38.719C33.6447 38.2306 32.9823 37.9562 32.2917 37.9562C31.601 37.9562 30.9386 38.2306 30.4502 38.719C29.9619 39.2074 29.6875 39.8697 29.6875 40.5604Z" fill="#576499"/>
<path d="M37.5 37.4354C37.5 37.9879 37.7195 38.5178 38.1102 38.9085C38.5009 39.2992 39.0308 39.5187 39.5833 39.5187C40.1359 39.5187 40.6658 39.2992 41.0565 38.9085C41.4472 38.5178 41.6667 37.9879 41.6667 37.4354C41.6667 36.8828 41.4472 36.3529 41.0565 35.9622C40.6658 35.5715 40.1359 35.3521 39.5833 35.3521C39.0308 35.3521 38.5009 35.5715 38.1102 35.9622C37.7195 36.3529 37.5 36.8828 37.5 37.4354Z" fill="#576499"/>
</g>
<defs>
<clipPath id="clip0_1446_150">
<rect width="50" height="50" fill="white"/>
</clipPath>
</defs>
</svg>
