<svg width="50" height="51" viewBox="0 0 50 51" fill="none" xmlns="http://www.w3.org/2000/svg">
<g clip-path="url(#clip0_1446_165)">
<path d="M44.25 11.3666L37.952 7.79581C37.4795 7.52539 36.9444 7.38313 36.4 7.38313C35.8555 7.38313 35.3205 7.52539 34.8479 7.79581L29.4312 10.9083C29.2948 10.9868 29.1425 11.0334 28.9855 11.0446C28.8285 11.0558 28.6711 11.0313 28.525 10.9729L21.4875 8.16248C21.2944 8.08509 21.1289 7.95166 21.0123 7.77937C20.8957 7.60709 20.8333 7.40384 20.8333 7.19581V4.42498C20.8347 3.94106 20.7006 3.4664 20.4462 3.05476C20.1918 2.64312 19.8272 2.31093 19.3937 2.09581L15.7479 0.272895C15.386 0.0930444 14.9874 -0.000549316 14.5833 -0.000549316C14.1792 -0.000549316 13.7806 0.0930444 13.4187 0.272895L9.77288 2.09581C9.3394 2.31093 8.9748 2.64312 8.72038 3.05476C8.46595 3.4664 8.33187 3.94106 8.33329 4.42498V8.93956C8.33302 9.41768 8.46501 9.88655 8.71467 10.2943C8.96433 10.7021 9.32192 11.0328 9.74788 11.25L13.3937 13.125C13.7618 13.314 14.1696 13.4126 14.5833 13.4126C14.997 13.4126 15.4048 13.314 15.7729 13.125L18.3729 11.7916C18.5058 11.7238 18.6516 11.685 18.8007 11.6778C18.9498 11.6706 19.0986 11.6952 19.2375 11.75L26.4291 14.6271C26.6226 14.7046 26.7883 14.8383 26.9049 15.011C27.0215 15.1837 27.0837 15.3874 27.0833 15.5958V20.1646C27.0842 20.7147 27.2303 21.2548 27.5069 21.7304C27.7834 22.2059 28.1806 22.6 28.6583 22.8729L32.027 24.7958C32.1022 24.8392 32.1653 24.9005 32.2108 24.9744C32.2563 25.0482 32.2827 25.1322 32.2877 25.2188C32.2926 25.3054 32.276 25.3918 32.2392 25.4704C32.2024 25.5489 32.1467 25.6171 32.077 25.6687L25.3958 30.625C25.235 30.7445 25.0432 30.8152 24.8433 30.8285C24.6434 30.8418 24.4439 30.7972 24.2687 30.7L17.1437 26.7416C16.6796 26.482 16.1567 26.3457 15.625 26.3457C15.0932 26.3457 14.5703 26.482 14.1062 26.7416L5.77288 31.3708C5.28722 31.6409 4.88237 32.0356 4.60003 32.5142C4.31769 32.9928 4.16809 33.538 4.16663 34.0937V42.2437C4.1666 42.8008 4.31551 43.3478 4.59792 43.828C4.88034 44.3082 5.28599 44.7042 5.77288 44.975L14.1062 49.6062C14.5707 49.8645 15.0935 50.0001 15.625 50.0001C16.1565 50.0001 16.6792 49.8645 17.1437 49.6062L25.477 44.975C25.9632 44.7041 26.3683 44.3084 26.6503 43.8286C26.9323 43.3488 27.0811 42.8024 27.0812 42.2458V35.0791C27.0812 34.9174 27.1189 34.7579 27.1912 34.6133C27.2635 34.4687 27.3685 34.3428 27.4979 34.2458C32.8155 30.0823 38.4111 26.2866 44.2458 22.8854C44.7276 22.6131 45.1285 22.2177 45.4075 21.7396C45.6864 21.2616 45.8333 20.718 45.8333 20.1646V14.0854C45.8334 13.5327 45.6869 12.9898 45.4087 12.5122C45.1306 12.0346 44.7307 11.6393 44.25 11.3666V11.3666ZM15.0583 8.81039C14.9113 8.88572 14.7485 8.925 14.5833 8.925C14.4181 8.925 14.2553 8.88572 14.1083 8.81039L13.0666 8.27498C12.896 8.18756 12.7528 8.05475 12.6528 7.89117C12.5529 7.7276 12.5 7.53961 12.5 7.34789V6.04165C12.5 5.84836 12.5538 5.65888 12.6553 5.49442C12.7568 5.32995 12.9022 5.19699 13.075 5.1104L14.1166 4.58956C14.2615 4.51698 14.4213 4.47918 14.5833 4.47918C14.7453 4.47918 14.9051 4.51698 15.05 4.58956L16.0916 5.1104C16.2644 5.19699 16.4097 5.32995 16.5113 5.49442C16.6128 5.65888 16.6666 5.84836 16.6666 6.04165V7.35415C16.6666 7.54586 16.6137 7.73385 16.5137 7.89742C16.4138 8.061 16.2706 8.19381 16.1 8.28123L15.0583 8.81039ZM22.9166 41.0187C22.9166 41.2044 22.867 41.3868 22.7729 41.5468C22.6787 41.7069 22.5435 41.8389 22.3812 41.9291L16.1312 45.4C15.9764 45.4861 15.8021 45.5313 15.625 45.5313C15.4478 45.5313 15.2735 45.4861 15.1187 45.4L8.86871 41.9291C8.70641 41.8389 8.5712 41.7069 8.47706 41.5468C8.38292 41.3868 8.33329 41.2044 8.33329 41.0187V35.3208C8.33291 35.1348 8.38237 34.952 8.47653 34.7915C8.57069 34.6311 8.70611 34.4987 8.86871 34.4083L15.1187 30.9375C15.2735 30.8514 15.4478 30.8062 15.625 30.8062C15.8021 30.8062 15.9764 30.8514 16.1312 30.9375L22.3812 34.4083C22.5438 34.4987 22.6792 34.6311 22.7734 34.7915C22.8675 34.952 22.917 35.1348 22.9166 35.3208V41.0187ZM41.6666 18.9583C41.6666 19.1419 41.618 19.3223 41.5258 19.481C41.4336 19.6398 41.3011 19.7714 41.1416 19.8625L36.975 22.2437C36.8166 22.3352 36.637 22.3833 36.4541 22.3833C36.2713 22.3833 36.0916 22.3352 35.9333 22.2437L31.7666 19.8625C31.6087 19.7704 31.4779 19.6383 31.3872 19.4796C31.2965 19.3209 31.2492 19.1411 31.25 18.9583V15.2854C31.25 15.1025 31.2981 14.9229 31.3895 14.7646C31.481 14.6062 31.6124 14.4747 31.7708 14.3833L35.8958 12.0083C36.0541 11.9169 36.2338 11.8688 36.4166 11.8688C36.5995 11.8688 36.7791 11.9169 36.9375 12.0083L41.1479 14.3958C41.3058 14.4875 41.4369 14.6191 41.528 14.7774C41.619 14.9358 41.6668 15.1153 41.6666 15.2979V18.9583Z" fill="#FF85D5"/>
</g>
<defs>
<clipPath id="clip0_1446_165">
<rect width="50" height="50" fill="white"/>
</clipPath>
</defs>
</svg>
