<svg width="50" height="51" viewBox="0 0 50 51" fill="none" xmlns="http://www.w3.org/2000/svg">
<path d="M35.4167 9.37502H31.3794C30.7048 6.40301 28.1494 4.16669 25 4.16669C21.8506 4.16669 19.222 6.40301 18.6198 9.37502H14.5833C11.7065 9.37502 9.375 11.7074 9.375 14.5834V40.625C9.375 43.501 11.7065 45.8334 14.5833 45.8334H35.4167C38.2935 45.8334 40.625 43.501 40.625 40.625V14.5834C40.625 11.7074 38.2894 9.37502 35.4167 9.37502ZM25 8.07294C26.0767 8.07294 26.9531 8.9494 26.9531 10.0261C26.9531 11.1027 26.0742 11.9792 25 11.9792C23.9258 11.9792 23.0469 11.1027 23.0469 10.0261C23.0469 8.9494 23.9258 8.07294 25 8.07294ZM36.7188 40.625C36.7188 41.3428 36.1346 41.9271 35.4167 41.9271H14.5833C13.8654 41.9271 13.2813 41.3428 13.2813 40.625V14.5834C13.2813 13.8656 13.8654 13.2813 14.5833 13.2813H16.0693C15.9611 13.6963 15.8854 14.1276 15.8854 14.5834V15.8854C15.8854 16.6016 16.4681 17.1875 17.1875 17.1875H32.8125C33.5316 17.1875 34.1146 16.6045 34.1146 15.8854V14.5834C34.1146 14.131 34.0388 13.6996 33.9303 13.2813H35.4167C36.1346 13.2813 36.7188 13.8656 36.7188 14.5834V40.625Z" fill="#797A7C"/>
</svg>
