<svg width="50" height="51" viewBox="0 0 50 51" fill="none" xmlns="http://www.w3.org/2000/svg">
<g clip-path="url(#clip0_1446_160)">
<path d="M25 0C20.0555 0 15.222 1.46622 11.1108 4.21326C6.99953 6.96029 3.79521 10.8648 1.90302 15.4329C0.0108322 20.0011 -0.484251 25.0277 0.480379 29.8773C1.44501 34.7268 3.82603 39.1814 7.32234 42.6777C10.8187 46.174 15.2732 48.555 20.1228 49.5196C24.9723 50.4843 29.9989 49.9892 34.5671 48.097C39.1352 46.2048 43.0397 43.0005 45.7867 38.8893C48.5338 34.778 50 29.9445 50 25C49.9928 18.3718 47.3566 12.0171 42.6698 7.33025C37.9829 2.64339 31.6282 0.00716892 25 0V0ZM33.3333 8.33333C33.7454 8.33333 34.1482 8.45552 34.4908 8.68444C34.8334 8.91336 35.1004 9.23873 35.2581 9.61941C35.4158 10.0001 35.457 10.419 35.3766 10.8231C35.2963 11.2272 35.0978 11.5984 34.8065 11.8898C34.5151 12.1812 34.1439 12.3796 33.7398 12.46C33.3357 12.5404 32.9168 12.4991 32.5361 12.3414C32.1554 12.1837 31.83 11.9167 31.6011 11.5741C31.3722 11.2315 31.25 10.8287 31.25 10.4167C31.25 9.86413 31.4695 9.33423 31.8602 8.94353C32.2509 8.55283 32.7808 8.33333 33.3333 8.33333V8.33333ZM30.2083 18.75C30.8264 18.75 31.4306 18.9333 31.9445 19.2767C32.4584 19.62 32.8589 20.1081 33.0955 20.6791C33.332 21.2501 33.3939 21.8785 33.2733 22.4847C33.1527 23.0908 32.8551 23.6477 32.4181 24.0847C31.981 24.5217 31.4242 24.8194 30.818 24.94C30.2118 25.0605 29.5835 24.9986 29.0125 24.7621C28.4414 24.5256 27.9534 24.1251 27.61 23.6112C27.2666 23.0973 27.0833 22.4931 27.0833 21.875C27.0833 21.0462 27.4126 20.2513 27.9986 19.6653C28.5847 19.0792 29.3795 18.75 30.2083 18.75ZM11.3729 26.6458C11.02 26.6688 10.666 26.6217 10.3313 26.5073C9.99665 26.3929 9.68793 26.2134 9.42293 25.9792C8.51916 25.1411 7.97864 23.9831 7.91668 22.7521C7.84217 22.1385 7.89254 21.5162 8.06475 20.9226C8.23696 20.329 8.52746 19.7764 8.91876 19.2979C9.08756 19.11 9.18233 18.8672 9.18543 18.6146C9.27709 11.3229 14.0875 10.2687 17.9896 9.425C20.5666 9.18716 22.9856 8.07831 24.8479 6.28125C25.1177 5.97121 25.4987 5.77991 25.9085 5.74881C26.3183 5.7177 26.7238 5.84929 27.0372 6.11506C27.3507 6.38084 27.5468 6.7594 27.5831 7.16875C27.6194 7.5781 27.493 7.98528 27.2313 8.30208C24.9418 10.6467 21.9095 12.1238 18.6521 12.4812C14.8708 13.2979 12.5 13.8542 12.3333 18.2729C12.3271 18.4303 12.3567 18.5871 12.4199 18.7315C12.483 18.8758 12.5781 19.004 12.6979 19.1062C13.1359 19.5046 13.4903 19.9859 13.7407 20.5224C13.991 21.0589 14.1323 21.6397 14.1563 22.2312C14.2516 23.2122 14.059 24.1997 13.6021 25.0729C13.3922 25.5009 13.078 25.8693 12.6885 26.1442C12.2989 26.419 11.8466 26.5915 11.3729 26.6458V26.6458ZM15.625 37.5C15.0069 37.5 14.4028 37.3167 13.8889 36.9733C13.3749 36.63 12.9744 36.1419 12.7379 35.5709C12.5014 34.9999 12.4395 34.3715 12.5601 33.7653C12.6806 33.1592 12.9783 32.6023 13.4153 32.1653C13.8523 31.7283 14.4092 31.4306 15.0154 31.31C15.6215 31.1895 16.2499 31.2514 16.8209 31.4879C17.3919 31.7244 17.88 32.1249 18.2234 32.6388C18.5667 33.1527 18.75 33.7569 18.75 34.375C18.75 35.2038 18.4208 35.9987 17.8347 36.5847C17.2487 37.1708 16.4538 37.5 15.625 37.5V37.5ZM18.75 18.75C18.75 18.338 18.8722 17.9352 19.1011 17.5926C19.33 17.25 19.6554 16.9829 20.0361 16.8253C20.4168 16.6676 20.8357 16.6263 21.2398 16.7067C21.6439 16.7871 22.0151 16.9855 22.3065 17.2769C22.5978 17.5682 22.7963 17.9394 22.8766 18.3436C22.957 18.7477 22.9158 19.1666 22.7581 19.5473C22.6004 19.9279 22.3334 20.2533 21.9908 20.4822C21.6482 20.7111 21.2454 20.8333 20.8333 20.8333C20.2808 20.8333 19.7509 20.6138 19.3602 20.2231C18.9695 19.8324 18.75 19.3025 18.75 18.75ZM35.4167 42.7083C35.0046 42.7083 34.6018 42.5861 34.2592 42.3572C33.9166 42.1283 33.6496 41.8029 33.4919 41.4223C33.3342 41.0416 33.293 40.6227 33.3734 40.2186C33.4538 39.8144 33.6522 39.4432 33.9435 39.1519C34.2349 38.8605 34.6061 38.6621 35.0102 38.5817C35.4144 38.5013 35.8333 38.5426 36.2139 38.7002C36.5946 38.8579 36.92 39.125 37.1489 39.4676C37.3778 39.8102 37.5 40.213 37.5 40.625C37.5 41.1775 37.2805 41.7074 36.8898 42.0981C36.4991 42.4888 35.9692 42.7083 35.4167 42.7083ZM41.6813 26.0729C41.5149 26.2604 41.4217 26.5015 41.4188 26.7521C41.325 34.0437 36.5167 35.0854 32.6167 35.9354C30.0393 36.1735 27.6201 37.2832 25.7583 39.0813C25.3266 39.699 25.044 40.4084 24.9326 41.1538C24.8213 41.8991 24.8843 42.6602 25.1167 43.3771C25.2167 43.7793 25.1528 44.2048 24.9391 44.56C24.7254 44.9151 24.3793 45.1708 23.9771 45.2708C23.5748 45.3708 23.1494 45.307 22.7942 45.0932C22.4391 44.8795 22.1834 44.5335 22.0833 44.1312C21.7293 42.9336 21.6618 41.6694 21.8861 40.4408C22.1105 39.2122 22.6205 38.0536 23.375 37.0583C25.6653 34.7137 28.6983 33.2367 31.9563 32.8792C35.7271 32.0667 38.0896 31.5083 38.2729 27.1167C38.2804 26.9601 38.2524 26.8038 38.1911 26.6595C38.1298 26.5152 38.0367 26.3866 37.9188 26.2833C37.045 25.4535 36.523 24.32 36.4604 23.1167C36.3656 22.1342 36.5589 21.1453 37.0167 20.2708C37.2272 19.8461 37.5404 19.4806 37.9278 19.2074C38.3152 18.9342 38.7647 18.7619 39.2354 18.7062C40.9729 18.5458 42.4979 20.275 42.6917 22.6042C42.7629 23.2199 42.7102 23.8436 42.5366 24.4386C42.3631 25.0336 42.0723 25.5879 41.6813 26.0687V26.0729Z" fill="#822454"/>
</g>
<defs>
<clipPath id="clip0_1446_160">
<rect width="50" height="50" fill="white"/>
</clipPath>
</defs>
</svg>
