<svg width="50" height="51" viewBox="0 0 50 51" fill="none" xmlns="http://www.w3.org/2000/svg">
<path d="M46.3875 6.04164C46.4855 5.94419 46.6181 5.88948 46.7562 5.88948C46.8944 5.88948 47.027 5.94419 47.125 6.04164C47.4198 6.32612 47.8146 6.48343 48.2243 6.47968C48.634 6.47593 49.0258 6.31142 49.3153 6.02158C49.6049 5.73174 49.769 5.33977 49.7724 4.93008C49.7758 4.52039 49.6181 4.12578 49.3333 3.83122L46.3875 0.891637C46.2433 0.742472 46.0708 0.62352 45.8802 0.541722C45.6895 0.459924 45.4844 0.416918 45.277 0.415214C45.0695 0.41351 44.8638 0.453141 44.6718 0.531795C44.4798 0.61045 44.3054 0.726552 44.1588 0.873328C44.0121 1.0201 43.8962 1.19461 43.8177 1.38668C43.7392 1.57874 43.6998 1.7845 43.7017 1.99197C43.7036 2.19944 43.7468 2.40445 43.8288 2.59504C43.9107 2.78563 44.0299 2.95799 44.1792 3.10205C44.2765 3.19968 44.3311 3.33191 44.3311 3.46976C44.3311 3.60761 44.2765 3.73984 44.1792 3.83747L41.875 6.14372C41.8156 6.20325 41.7428 6.24759 41.6626 6.27297C41.5825 6.29836 41.4974 6.30405 41.4146 6.28955C40.9192 6.2009 40.4097 6.23321 39.9294 6.38374C39.4492 6.53427 39.0124 6.79856 38.6562 7.15414L35.0937 10.7146C35.0238 10.784 34.9357 10.8324 34.8395 10.8541C34.7434 10.8759 34.643 10.8701 34.55 10.8375C34.2156 10.7183 33.8633 10.657 33.5083 10.6562C33.0978 10.655 32.6912 10.7354 32.3121 10.8928C31.933 11.0501 31.5889 11.2813 31.3 11.5729L22.45 20.4166C21.8642 21.0027 21.535 21.7974 21.535 22.626C21.535 23.4546 21.8642 24.2494 22.45 24.8354L25.3958 27.7833C25.9819 28.3691 26.7766 28.6983 27.6052 28.6983C28.4338 28.6983 29.2286 28.3691 29.8146 27.7833L31.1417 26.4562C31.1985 26.3992 31.2677 26.3562 31.344 26.3304C31.4202 26.3047 31.5014 26.297 31.5811 26.3079C31.6608 26.3188 31.7369 26.348 31.8035 26.3933C31.87 26.4385 31.9252 26.4986 31.9646 26.5687C32.9604 28.3546 33.3488 30.4157 33.0711 32.4415C32.7934 34.4673 31.8647 36.348 30.425 37.8C28.6669 39.5575 26.2828 40.5448 23.7969 40.5448C21.311 40.5448 18.9268 39.5575 17.1688 37.8C17.1422 37.7737 17.1241 37.7402 17.1168 37.7036C17.1094 37.6671 17.1131 37.6291 17.1274 37.5947C17.1417 37.5602 17.166 37.5308 17.1971 37.5102C17.2282 37.4897 17.2648 37.4788 17.3021 37.4791H18.1354C18.5498 37.4791 18.9472 37.3145 19.2403 37.0215C19.5333 36.7285 19.6979 36.331 19.6979 35.9166C19.6979 35.5022 19.5333 35.1048 19.2403 34.8118C18.9472 34.5188 18.5498 34.3541 18.1354 34.3541H7.5C7.0856 34.3541 6.68817 34.5188 6.39515 34.8118C6.10212 35.1048 5.9375 35.5022 5.9375 35.9166C5.9375 36.331 6.10212 36.7285 6.39515 37.0215C6.68817 37.3145 7.0856 37.4791 7.5 37.4791H9.16667C9.26588 37.4789 9.3631 37.507 9.44688 37.5602C9.53066 37.6133 9.59752 37.6893 9.63958 37.7791C11.0212 40.7292 13.2872 43.1759 16.1229 44.7791C16.2224 44.836 16.3004 44.9242 16.3447 45.0299C16.389 45.1356 16.3972 45.253 16.368 45.3639C16.3388 45.4747 16.2738 45.5728 16.1832 45.643C16.0925 45.7132 15.9813 45.7515 15.8667 45.752H12.8125C12.26 45.752 11.7301 45.9715 11.3394 46.3622C10.9487 46.7529 10.7292 47.2828 10.7292 47.8354C10.7292 48.3879 10.9487 48.9178 11.3394 49.3085C11.7301 49.6992 12.26 49.9187 12.8125 49.9187H35.7292C36.2817 49.9187 36.8116 49.6992 37.2023 49.3085C37.593 48.9178 37.8125 48.3879 37.8125 47.8354C37.8125 47.2828 37.593 46.7529 37.2023 46.3622C36.8116 45.9715 36.2817 45.752 35.7292 45.752H31.7333C31.6187 45.7515 31.5075 45.7132 31.4168 45.643C31.3262 45.5728 31.2612 45.4747 31.232 45.3639C31.2028 45.253 31.211 45.1356 31.2553 45.0299C31.2996 44.9242 31.3776 44.836 31.4771 44.7791C33.4074 43.691 35.0842 42.2047 36.3962 40.419C37.7082 38.6332 38.6253 36.5889 39.0867 34.4216C39.5482 32.2542 39.5434 30.0136 39.0726 27.8483C38.6018 25.683 37.6759 23.6425 36.3562 21.8625C36.2817 21.7621 36.2457 21.6383 36.2549 21.5136C36.264 21.3889 36.3178 21.2717 36.4062 21.1833L38.6542 18.9375C39.0721 18.5193 39.3628 17.9912 39.4926 17.4145C39.6224 16.8377 39.586 16.236 39.3875 15.6791C39.3548 15.5864 39.349 15.4864 39.3707 15.3905C39.3925 15.2947 39.4409 15.207 39.5104 15.1375L43.0729 11.5729C43.3641 11.2832 43.595 10.9387 43.7523 10.5594C43.9097 10.18 43.9903 9.77318 43.9896 9.36247C43.9898 9.1773 43.973 8.99251 43.9396 8.81039C43.9251 8.72789 43.9308 8.64311 43.9562 8.5633C43.9816 8.48348 44.0259 8.411 44.0854 8.35205L46.3875 6.04164Z" fill="#849281"/>
</svg>
