<svg width="50" height="51" viewBox="0 0 50 51" fill="none" xmlns="http://www.w3.org/2000/svg">
<path fill-rule="evenodd" clip-rule="evenodd" d="M17.9271 6.81925L17.575 6.25042L1.52308 6.25C0.669231 6.25 0 6.86875 0 7.63V42.37C0 43.1312 0.680769 43.75 1.52308 43.75H12.2346C14.9962 34.6412 18.9077 25.9337 18.9077 25.9337C20.3115 25.7575 20.2231 29.89 20.2231 29.89L20.1227 29.958C19.3049 30.7235 16.7161 37.2642 14.5603 42.98L14.2667 43.7462L17.8654 43.75C21.1423 34.7275 22.2 28.4987 22.2 28.4987C22.2 28.4987 20.9962 25.825 22.6846 24.5462C24.3769 23.2675 30.4769 24.4487 33.2846 25.81C36.0923 27.1712 34.4654 29.4437 34.4654 29.4437C31.0269 32.4175 27.3731 38.3875 24.5269 43.75H48.4769C49.3307 43.75 50 43.1312 50 42.37V7.63C50 6.86875 49.3192 6.25 48.4769 6.25H24.1308C25.2385 7.56625 26.2923 8.72125 27.2385 9.62875C31.9612 14.1616 31.7838 15.6624 31.6398 16.8811C31.581 17.3783 31.5278 17.8286 31.8154 18.4187C32.7034 20.2411 30.3755 21.0663 28.2142 21.8324C27.9605 21.9223 27.709 22.0114 27.4654 22.1012C25.1462 22.9562 22.6192 23.1625 20.9962 21.2162C19.8507 19.8367 20.6589 17.3274 21.2653 15.4449C21.516 14.6663 21.7323 13.9949 21.7615 13.555C21.7832 13.2597 19.7191 9.7311 17.9271 6.81925ZM32.8153 13.84C33.6692 12.6663 35.8461 13.2213 36.6846 14.2825C37.523 15.3438 37.45 20.6988 35.6884 20.95C33.9269 21.2013 32.9653 19.2738 33.1384 18.2275C33.2035 17.8251 33.0444 17.2567 32.8725 16.6427C32.5975 15.6607 32.29 14.5623 32.8153 13.84Z" fill="#333333"/>
</svg>
