<svg width="50" height="50" viewBox="0 0 50 50" fill="none" xmlns="http://www.w3.org/2000/svg">
<g clip-path="url(#clip0_1446_134)">
<path d="M36.4583 1.29167C36.1685 0.891629 35.788 0.565991 35.348 0.341464C34.908 0.116936 34.421 -8.4659e-05 33.927 4.59522e-08H16.0708C15.5772 0.000244524 15.0906 0.117423 14.651 0.341937C14.2114 0.566451 13.8312 0.891914 13.5416 1.29167C13.2478 1.70286 13.0566 2.17841 12.9842 2.67857C12.9117 3.17873 12.9599 3.68898 13.125 4.16667C14.0922 6.97527 14.5851 9.92534 14.5833 12.8958V39.5833C14.5833 42.346 15.6808 44.9955 17.6343 46.949C19.5878 48.9025 22.2373 50 25 50C27.7626 50 30.4121 48.9025 32.3657 46.949C34.3192 44.9955 35.4166 42.346 35.4166 39.5833V12.8958C35.4182 9.91743 35.9167 6.96017 36.8916 4.14583C37.0511 3.66984 37.095 3.16273 37.0196 2.66642C36.9443 2.17011 36.7519 1.69887 36.4583 1.29167V1.29167ZM20.1333 30.7187C20.1329 30.201 20.286 29.6949 20.5734 29.2642C20.8608 28.8336 21.2694 28.4979 21.7476 28.2996C22.2259 28.1013 22.7522 28.0493 23.2599 28.1502C23.7677 28.2511 24.2341 28.5003 24.6002 28.8664C24.9663 29.2325 25.2155 29.6989 25.3164 30.2067C25.4173 30.7145 25.3653 31.2408 25.167 31.719C24.9687 32.1972 24.633 32.6058 24.2024 32.8932C23.7718 33.1806 23.2656 33.3337 22.7479 33.3333C22.4037 33.3361 22.0625 33.2704 21.744 33.14C21.4256 33.0096 21.1362 32.8171 20.8929 32.5737C20.6496 32.3304 20.4571 32.041 20.3267 31.7226C20.1962 31.4041 20.1305 31.0629 20.1333 30.7187ZM26.9145 43.75C26.4005 43.7475 25.8986 43.593 25.4722 43.3058C25.0459 43.0186 24.714 42.6116 24.5185 42.1362C24.323 41.6607 24.2727 41.138 24.3737 40.634C24.4747 40.1299 24.7227 39.6671 25.0864 39.3037C25.45 38.9403 25.9131 38.6927 26.4172 38.5921C26.9213 38.4914 27.444 38.5423 27.9193 38.7381C28.3946 38.934 28.8013 39.2662 29.0881 39.6928C29.375 40.1194 29.5291 40.6213 29.5312 41.1354C29.5312 41.4789 29.4635 41.8191 29.332 42.1365C29.2005 42.4538 29.0077 42.7421 28.7647 42.9849C28.5217 43.2278 28.2332 43.4203 27.9157 43.5516C27.5983 43.6828 27.2581 43.7503 26.9145 43.75V43.75ZM27.9687 25C27.6279 25.0027 27.2899 24.938 26.9742 24.8096C26.6585 24.6811 26.3713 24.4914 26.1293 24.2515C25.8872 24.0116 25.695 23.7261 25.5638 23.4115C25.4325 23.097 25.3648 22.7596 25.3645 22.4187C25.36 21.9027 25.5089 21.397 25.7922 20.9658C26.0756 20.5345 26.4807 20.1972 26.9562 19.9965C27.4316 19.7959 27.9559 19.7411 28.4626 19.8389C28.9692 19.9368 29.4354 20.183 29.8019 20.5463C30.1684 20.9096 30.4187 21.3735 30.521 21.8793C30.6234 22.3851 30.5732 22.9099 30.3768 23.387C30.1803 23.8642 29.8466 24.2723 29.4179 24.5595C28.9891 24.8467 28.4847 25 27.9687 25V25ZM32.1479 5.46042C31.5475 7.8932 31.246 10.3901 31.25 12.8958V15.625C31.25 15.9013 31.1402 16.1662 30.9449 16.3616C30.7495 16.5569 30.4846 16.6667 30.2083 16.6667H19.7916C19.5154 16.6667 19.2504 16.5569 19.0551 16.3616C18.8597 16.1662 18.75 15.9013 18.75 15.625V12.8958C18.7534 10.3897 18.4533 7.89233 17.8562 5.45833C17.8184 5.30563 17.8158 5.14636 17.8484 4.99247C17.8809 4.83858 17.948 4.69407 18.0444 4.56978C18.1408 4.4455 18.2641 4.34466 18.4051 4.27485C18.546 4.20503 18.701 4.16805 18.8583 4.16667H31.1354C31.2938 4.16639 31.4502 4.20225 31.5926 4.27151C31.7351 4.34077 31.8599 4.4416 31.9575 4.56634C32.0551 4.69109 32.123 4.83645 32.156 4.99138C32.189 5.14631 32.1862 5.30672 32.1479 5.46042V5.46042Z" fill="#00B050"/>
</g>
<defs>
<clipPath id="clip0_1446_134">
<rect width="50" height="50" fill="white"/>
</clipPath>
</defs>
</svg>
