<svg width="50" height="50" viewBox="0 0 50 50" fill="none" xmlns="http://www.w3.org/2000/svg">
<g clip-path="url(#clip0_1446_145)">
<path d="M42.7083 40.3021L33.6208 24.9208C33.4318 24.5995 33.3326 24.2332 33.3333 23.8604V5.20833C33.3333 4.93207 33.4431 4.66711 33.6384 4.47176C33.8338 4.27641 34.0987 4.16667 34.375 4.16667H37.5C38.0525 4.16667 38.5824 3.94717 38.9731 3.55647C39.3638 3.16577 39.5833 2.63587 39.5833 2.08333C39.5833 1.5308 39.3638 1.00089 38.9731 0.610194C38.5824 0.219493 38.0525 0 37.5 0L12.5 0C11.9475 0 11.4176 0.219493 11.0269 0.610194C10.6362 1.00089 10.4167 1.5308 10.4167 2.08333C10.4167 2.63587 10.6362 3.16577 11.0269 3.55647C11.4176 3.94717 11.9475 4.16667 12.5 4.16667H15.625C15.9013 4.16667 16.1662 4.27641 16.3616 4.47176C16.5569 4.66711 16.6667 4.93207 16.6667 5.20833V23.8625C16.6664 24.2348 16.5664 24.6003 16.3771 24.9208L7.37083 40.1687C6.71656 41.1045 6.33115 42.2017 6.25644 43.3411C6.18173 44.4804 6.42057 45.6185 6.94704 46.6317C7.4735 47.6449 8.26747 48.4946 9.24275 49.0884C10.218 49.6822 11.3373 49.9975 12.4792 50H37.5125C38.6404 49.9969 39.7464 49.6887 40.7133 49.108C41.6802 48.5273 42.4719 47.6958 43.0046 46.7016C43.5372 45.7075 43.7909 44.5877 43.7388 43.461C43.6866 42.3344 43.3305 41.2428 42.7083 40.3021ZM18.0688 33.3333C17.8852 33.3331 17.705 33.2843 17.5463 33.192C17.3877 33.0997 17.2562 32.9671 17.1653 32.8077C17.0744 32.6483 17.0272 32.4676 17.0285 32.2841C17.0299 32.1005 17.0797 31.9206 17.1729 31.7625L20.5417 26.0604C20.7309 25.7389 20.8315 25.373 20.8333 25V5.20833C20.8333 4.93207 20.9431 4.66711 21.1384 4.47176C21.3338 4.27641 21.5987 4.16667 21.875 4.16667H28.125C28.4013 4.16667 28.6662 4.27641 28.8616 4.47176C29.0569 4.66711 29.1667 4.93207 29.1667 5.20833V10.9375C29.1667 11.2138 29.0569 11.4787 28.8616 11.6741C28.6662 11.8694 28.4013 11.9792 28.125 11.9792H25.375C24.9606 11.9792 24.5632 12.1438 24.2701 12.4368C23.9771 12.7298 23.8125 13.1273 23.8125 13.5417C23.8125 13.9561 23.9771 14.3535 24.2701 14.6465C24.5632 14.9395 24.9606 15.1042 25.375 15.1042H28.125C28.4013 15.1042 28.6662 15.2139 28.8616 15.4093C29.0569 15.6046 29.1667 15.8696 29.1667 16.1458V18.2292C29.1667 18.5054 29.0569 18.7704 28.8616 18.9657C28.6662 19.1611 28.4013 19.2708 28.125 19.2708H25.375C24.9606 19.2708 24.5632 19.4355 24.2701 19.7285C23.9771 20.0215 23.8125 20.4189 23.8125 20.8333C23.8125 21.2477 23.9771 21.6452 24.2701 21.9382C24.5632 22.2312 24.9606 22.3958 25.375 22.3958H28.125C28.4013 22.3958 28.6662 22.5056 28.8616 22.7009C29.0569 22.8963 29.1667 23.1612 29.1667 23.4375V25C29.1665 25.373 29.2665 25.7392 29.4562 26.0604L32.8271 31.7625C32.9203 31.9206 32.9701 32.1005 32.9715 32.2841C32.9728 32.4676 32.9256 32.6483 32.8347 32.8077C32.7438 32.9671 32.6123 33.0997 32.4537 33.192C32.295 33.2843 32.1148 33.3331 31.9312 33.3333H18.0688ZM19.7625 45.4625C19.1444 45.4625 18.5402 45.2792 18.0263 44.9358C17.5124 44.5925 17.1119 44.1044 16.8754 43.5334C16.6389 42.9624 16.577 42.334 16.6975 41.7278C16.8181 41.1216 17.1158 40.5648 17.5528 40.1278C17.9898 39.6907 18.5467 39.3931 19.1528 39.2725C19.759 39.152 20.3874 39.2138 20.9584 39.4504C21.5294 39.6869 22.0175 40.0874 22.3608 40.6013C22.7042 41.1152 22.8875 41.7194 22.8875 42.3375C22.8875 43.1663 22.5583 43.9612 21.9722 44.5472C21.3862 45.1333 20.5913 45.4625 19.7625 45.4625V45.4625ZM28.5521 39.1771C28.14 39.1771 27.7372 39.0549 27.3946 38.826C27.052 38.5971 26.785 38.2717 26.6273 37.891C26.4697 37.5103 26.4284 37.0914 26.5088 36.6873C26.5892 36.2832 26.7876 35.912 27.0789 35.6206C27.3703 35.3292 27.7415 35.1308 28.1456 35.0504C28.5498 34.9701 28.9687 35.0113 29.3493 35.169C29.73 35.3267 30.0554 35.5937 30.2843 35.9363C30.5132 36.2789 30.6354 36.6817 30.6354 37.0937C30.6354 37.3673 30.5815 37.6382 30.4768 37.891C30.3721 38.1438 30.2187 38.3734 30.0252 38.5669C29.8318 38.7603 29.6021 38.9138 29.3493 39.0185C29.0966 39.1232 28.8257 39.1771 28.5521 39.1771V39.1771ZM33.7604 45.5979C33.3484 45.5979 32.9456 45.4757 32.603 45.2468C32.2604 45.0179 31.9933 44.6925 31.8357 44.3118C31.678 43.9312 31.6367 43.5123 31.7171 43.1081C31.7975 42.704 31.9959 42.3328 32.2873 42.0414C32.5786 41.7501 32.9499 41.5517 33.354 41.4713C33.7581 41.3909 34.177 41.4322 34.5577 41.5898C34.9384 41.7475 35.2637 42.0145 35.4926 42.3571C35.7216 42.6997 35.8437 43.1025 35.8437 43.5146C35.8438 43.789 35.7895 44.0608 35.6842 44.3143C35.5788 44.5677 35.4244 44.7978 35.2299 44.9914C35.0353 45.185 34.8044 45.3382 34.5505 45.4423C34.2965 45.5464 34.0245 45.5993 33.75 45.5979H33.7604Z" fill="#6ED9F2"/>
</g>
<defs>
<clipPath id="clip0_1446_145">
<rect width="50" height="50" fill="white"/>
</clipPath>
</defs>
</svg>
