<svg width="50" height="51" viewBox="0 0 50 51" fill="none" xmlns="http://www.w3.org/2000/svg">
<g clip-path="url(#clip0_1446_121)">
<path fill-rule="evenodd" clip-rule="evenodd" d="M46.875 0.635681H3.125C2.2962 0.635681 1.50134 0.964921 0.915291 1.55097C0.32924 2.13702 0 2.93188 0 3.76068V7.92735C0 8.20361 0.109747 8.46857 0.305097 8.66392C0.500448 8.85927 0.765399 8.96901 1.04167 8.96901H48.9583C49.2346 8.96901 49.4995 8.85927 49.6949 8.66392C49.8903 8.46857 50 8.20361 50 7.92735V3.76068C50 2.93188 49.6708 2.13702 49.0847 1.55097C48.4987 0.964921 47.7038 0.635681 46.875 0.635681ZM45.8333 12.0941H43.75C43.4737 12.0941 43.2088 12.2039 43.0134 12.3992C42.8181 12.5946 42.7083 12.8595 42.7083 13.1358V41.2608C42.7083 42.3659 42.2693 43.4257 41.4879 44.2071C40.7065 44.9885 39.6467 45.4274 38.5417 45.4274H11.4583C10.3533 45.4274 9.29346 44.9885 8.51205 44.2071C7.73065 43.4257 7.29167 42.3659 7.29167 41.2608V13.1358C7.29167 12.8595 7.18192 12.5946 6.98657 12.3992C6.79122 12.2039 6.52627 12.0941 6.25 12.0941H4.16667C3.8904 12.0941 3.62545 12.2039 3.4301 12.3992C3.23475 12.5946 3.125 12.8595 3.125 13.1358V41.2608C3.125 43.4709 4.00297 45.5905 5.56578 47.1533C7.12858 48.7161 9.2482 49.5941 11.4583 49.5941H38.5417C40.7518 49.5941 42.8714 48.7161 44.4342 47.1533C45.997 45.5905 46.875 43.4709 46.875 41.2608V13.1358C46.875 12.8595 46.7653 12.5946 46.5699 12.3992C46.3745 12.2039 46.1096 12.0941 45.8333 12.0941ZM11.4163 18.8647C10.864 18.8647 10.4163 19.3125 10.4163 19.8647V40.7814C10.4163 41.3337 10.864 41.7814 11.4163 41.7814H38.5829C39.1352 41.7814 39.5829 41.3337 39.5829 40.7814V19.8647C39.5829 19.3125 39.1352 18.8647 38.5829 18.8647H11.4163Z" fill="#F3B00C"/>
</g>
<defs>
<clipPath id="clip0_1446_121">
<rect width="50" height="50" fill="white" transform="translate(0 0.114746)"/>
</clipPath>
</defs>
</svg>
