<svg width="39" height="51" viewBox="0 0 39 51" fill="none" xmlns="http://www.w3.org/2000/svg">
    <path fill-rule="evenodd" clip-rule="evenodd" d="M35.2051 15.3462H3.79487C3.54705 15.3462 3.34615 15.5471 3.34615 15.7949V32.8462C3.34615 33.094 3.54705 33.2949 3.79487 33.2949H35.2051C35.4529 33.2949 35.6538 33.094 35.6538 32.8462V15.7949C35.6538 15.5471 35.4529 15.3462 35.2051 15.3462ZM3.79487 14C2.80359 14 2 14.8036 2 15.7949V32.8462C2 33.8374 2.80359 34.641 3.79487 34.641H35.2051C36.1964 34.641 37 33.8374 37 32.8462V15.7949C37 14.8036 36.1964 14 35.2051 14H3.79487ZM7.38462 18.4872C7.38462 17.9915 7.78641 17.5897 8.28205 17.5897H9.17949C9.67513 17.5897 10.0769 17.9915 10.0769 18.4872V19.3846C10.0769 19.8803 9.67513 20.282 9.17949 20.282H8.28205C7.78641 20.282 7.38462 19.8803 7.38462 19.3846V18.4872ZM13.6667 17.5897C13.171 17.5897 12.7692 17.9915 12.7692 18.4872V19.3846C12.7692 19.8803 13.171 20.282 13.6667 20.282H14.5641C15.0597 20.282 15.4615 19.8803 15.4615 19.3846V18.4872C15.4615 17.9915 15.0597 17.5897 14.5641 17.5897H13.6667ZM18.1538 18.4872C18.1538 17.9915 18.5556 17.5897 19.0513 17.5897H19.9487C20.4444 17.5897 20.8462 17.9915 20.8462 18.4872V19.3846C20.8462 19.8803 20.4444 20.282 19.9487 20.282H19.0513C18.5556 20.282 18.1538 19.8803 18.1538 19.3846V18.4872ZM24.4359 17.5897C23.9403 17.5897 23.5385 17.9915 23.5385 18.4872V19.3846C23.5385 19.8803 23.9403 20.282 24.4359 20.282H25.3333C25.829 20.282 26.2308 19.8803 26.2308 19.3846V18.4872C26.2308 17.9915 25.829 17.5897 25.3333 17.5897H24.4359ZM28.9231 18.4872C28.9231 17.9915 29.3249 17.5897 29.8205 17.5897H30.7179C31.2136 17.5897 31.6154 17.9915 31.6154 18.4872V19.3846C31.6154 19.8803 31.2136 20.282 30.7179 20.282H29.8205C29.3249 20.282 28.9231 19.8803 28.9231 19.3846V18.4872ZM8.28205 22.9744C7.78641 22.9744 7.38462 23.3762 7.38462 23.8718V24.7692C7.38462 25.2649 7.78641 25.6667 8.28205 25.6667H9.17949C9.67513 25.6667 10.0769 25.2649 10.0769 24.7692V23.8718C10.0769 23.3762 9.67513 22.9744 9.17949 22.9744H8.28205ZM12.7692 23.8718C12.7692 23.3762 13.171 22.9744 13.6667 22.9744H14.5641C15.0597 22.9744 15.4615 23.3762 15.4615 23.8718V24.7692C15.4615 25.2649 15.0597 25.6667 14.5641 25.6667H13.6667C13.171 25.6667 12.7692 25.2649 12.7692 24.7692V23.8718ZM19.0513 22.9744C18.5556 22.9744 18.1538 23.3762 18.1538 23.8718V24.7692C18.1538 25.2649 18.5556 25.6667 19.0513 25.6667H19.9487C20.4444 25.6667 20.8462 25.2649 20.8462 24.7692V23.8718C20.8462 23.3762 20.4444 22.9744 19.9487 22.9744H19.0513ZM23.5385 23.8718C23.5385 23.3762 23.9403 22.9744 24.4359 22.9744H25.3333C25.829 22.9744 26.2308 23.3762 26.2308 23.8718V24.7692C26.2308 25.2649 25.829 25.6667 25.3333 25.6667H24.4359C23.9403 25.6667 23.5385 25.2649 23.5385 24.7692V23.8718ZM29.8205 22.9744C29.3249 22.9744 28.9231 23.3762 28.9231 23.8718V24.7692C28.9231 25.2649 29.3249 25.6667 29.8205 25.6667H30.7179C31.2136 25.6667 31.6154 25.2649 31.6154 24.7692V23.8718C31.6154 23.3762 31.2136 22.9744 30.7179 22.9744H29.8205ZM11.8718 29.2564C11.8718 28.7608 12.2736 28.359 12.7692 28.359H19.0513H19.9487H25.3333H26.2308C26.7264 28.359 27.1282 28.7608 27.1282 29.2564V30.1538C27.1282 30.6495 26.7264 31.0513 26.2308 31.0513H25.3333H19.9487H19.0513H12.7692C12.2736 31.0513 11.8718 30.6495 11.8718 30.1538V29.2564ZM14.0383 37.0705C14.3887 36.72 14.957 36.72 15.3074 37.0705L20.0764 41.8394L24.8453 37.0705C25.1958 36.72 25.764 36.72 26.1145 37.0705L26.7491 37.7051C27.0996 38.0556 27.0996 38.6238 26.7491 38.9743L21.5 44.2234C21.4629 44.2852 21.4177 44.3434 21.3645 44.3967L20.7299 45.0313C20.5502 45.211 20.3132 45.2986 20.0777 45.294C19.8413 45.2992 19.6032 45.2117 19.4229 45.0313L18.7883 44.3967C18.7349 44.3434 18.6897 44.285 18.6526 44.2232L13.4037 38.9742C13.0532 38.6237 13.0532 38.0555 13.4037 37.705L14.0383 37.0705Z" fill="black"/>
</svg>
