<svg width="44" height="41" viewBox="0 0 44 41" fill="none" xmlns="http://www.w3.org/2000/svg">
<g filter="url(#filter0_d_10115_109954)">
<path d="M8.15767 33.6094C8.27802 33.1842 8.66619 32.8906 9.10814 32.8906H34.8774C35.3194 32.8906 35.7075 33.1842 35.8279 33.6094L37.2443 38.6143C37.4228 39.2448 36.9491 39.8711 36.2939 39.8711H7.69167C7.03642 39.8711 6.56276 39.2448 6.7412 38.6143L8.15767 33.6094Z" fill="url(#paint0_radial_10115_109954)"/>
</g>
<path d="M8.15767 33.2461C8.27802 32.8209 8.66619 32.5273 9.10814 32.5273H34.8774C35.3194 32.5273 35.7075 32.8209 35.8279 33.2461L37.2443 38.251C37.4228 38.8815 36.9491 39.5078 36.2939 39.5078H7.69167C7.03642 39.5078 6.56276 38.8815 6.7412 38.251L8.15767 33.2461Z" fill="url(#paint1_linear_10115_109954)"/>
<g filter="url(#filter1_d_10115_109954)">
<g filter="url(#filter2_di_10115_109954)">
<path d="M15.7366 30.2569C15.7366 29.1658 16.6211 28.2812 17.7122 28.2812H26.767C27.8581 28.2812 28.7426 29.1658 28.7426 30.2569V33.3311C28.7426 34.2569 28.1001 35.058 27.1893 35.2241C25.8114 35.4753 23.7836 35.7885 22.2396 35.7885C20.6956 35.7885 18.6678 35.4753 17.2899 35.2241C16.3791 35.058 15.7366 34.2569 15.7366 33.3311V30.2569Z" fill="url(#paint2_linear_10115_109954)"/>
</g>
<g filter="url(#filter3_d_10115_109954)">
<path d="M15.7366 30.2569C15.7366 29.1658 16.6211 28.2812 17.7122 28.2812H26.767C27.8581 28.2812 28.7426 29.1658 28.7426 30.2569V34.5113C28.7426 34.7781 28.6586 35.0326 28.4159 35.1433C27.8489 35.4019 26.3191 35.7885 22.2396 35.7885C18.1601 35.7885 16.6303 35.4019 16.0633 35.1433C15.8206 35.0326 15.7366 34.7781 15.7366 34.5113V30.2569Z" fill="url(#paint3_linear_10115_109954)" shape-rendering="crispEdges"/>
</g>
</g>
<g filter="url(#filter4_di_10115_109954)">
<rect x="1.11719" y="0.324219" width="41.8828" height="33.6841" rx="0.987802" fill="black"/>
<rect x="1.1995" y="0.406536" width="41.7182" height="33.5194" rx="0.905485" stroke="#EFEEEB" stroke-width="0.164634"/>
</g>
<rect width="36.3511" height="27.4609" transform="translate(3.88306 3.05859)" fill="#E6E8EA"/>
<rect x="5" y="10" width="5" height="1" rx="0.5" fill="#97999B"/>
<g filter="url(#filter5_d_10115_109954)">
<rect x="5" y="11.5" width="5.3581" height="1.01858" rx="0.133373" fill="#00A7B5"/>
<path fill-rule="evenodd" clip-rule="evenodd" d="M7.86801 12.1597L7.77389 12.0655C7.79359 12.038 7.80415 12.005 7.8041 11.9711C7.8041 11.8814 7.73133 11.8086 7.64155 11.8086C7.55178 11.8086 7.479 11.8814 7.479 11.9711C7.479 12.0609 7.55178 12.1337 7.64155 12.1337C7.67541 12.1337 7.70842 12.1232 7.73596 12.1035L7.83007 12.1976C7.84055 12.2081 7.85753 12.2081 7.86801 12.1976C7.87848 12.1871 7.87848 12.1701 7.86801 12.1597ZM7.73901 12.0274C7.71891 12.0622 7.68176 12.0837 7.64155 12.0837C7.5794 12.0837 7.52902 12.0333 7.52902 11.9711C7.52902 11.909 7.5794 11.8586 7.64155 11.8586C7.68176 11.8586 7.71891 11.8801 7.73901 11.9149C7.75911 11.9497 7.75911 11.9926 7.73901 12.0274Z" fill="white"/>
<rect x="10.6418" y="11.5" width="5.3581" height="1.01858" rx="0.133373" fill="#00A7B5"/>
<path d="M13.5101 12.0587H13.3725V12.2087H13.2809V12.0587H13.1433V11.9586H13.2809V11.8086H13.3725V11.9586H13.5101V12.0587Z" fill="white"/>
</g>
<rect x="5" y="13.0195" width="11" height="4" rx="0.142857" fill="white"/>
<path d="M5.57129 15.4492L14.4313 15.4492" stroke="#BABDBF" stroke-width="0.357143" stroke-linecap="round"/>
<path d="M5.57129 16.1621H13.0013" stroke="#BABDBF" stroke-width="0.357143" stroke-linecap="round"/>
<path d="M7 13.7344H10.2857" stroke="#BABDBF" stroke-width="0.357143" stroke-linecap="round"/>
<path d="M7 14.3047H8.14286" stroke="#BABDBF" stroke-width="0.357143" stroke-linecap="round"/>
<circle cx="5.9999" cy="14.0206" r="0.571429" fill="#97999B"/>
<rect x="5" y="17.5195" width="11" height="4" rx="0.142857" fill="white"/>
<path d="M5.57129 19.9492L14.4313 19.9492" stroke="#BABDBF" stroke-width="0.357143" stroke-linecap="round"/>
<path d="M5.57129 20.6621H13.0013" stroke="#BABDBF" stroke-width="0.357143" stroke-linecap="round"/>
<path d="M7 18.2344H10.2857" stroke="#BABDBF" stroke-width="0.357143" stroke-linecap="round"/>
<path d="M7 18.8047H8.14286" stroke="#BABDBF" stroke-width="0.357143" stroke-linecap="round"/>
<circle cx="5.9999" cy="18.5206" r="0.571429" fill="#97999B"/>
<rect x="5" y="22.0195" width="11" height="4" rx="0.142857" fill="white"/>
<path d="M5.57129 24.4492L14.4313 24.4492" stroke="#BABDBF" stroke-width="0.357143" stroke-linecap="round"/>
<path d="M5.57129 25.1621H13.0013" stroke="#BABDBF" stroke-width="0.357143" stroke-linecap="round"/>
<path d="M7 22.7344H10.2857" stroke="#BABDBF" stroke-width="0.357143" stroke-linecap="round"/>
<path d="M7 23.3047H8.14286" stroke="#BABDBF" stroke-width="0.357143" stroke-linecap="round"/>
<circle cx="5.9999" cy="23.0206" r="0.571429" fill="#97999B"/>
<rect x="5" y="26.5195" width="11" height="4" rx="0.142857" fill="white"/>
<path d="M5.57129 28.9492L14.4313 28.9492" stroke="#BABDBF" stroke-width="0.357143" stroke-linecap="round"/>
<path d="M5.57129 29.6621H13.0013" stroke="#BABDBF" stroke-width="0.357143" stroke-linecap="round"/>
<path d="M7 27.2344H10.2857" stroke="#BABDBF" stroke-width="0.357143" stroke-linecap="round"/>
<path d="M7 27.8047H8.14286" stroke="#BABDBF" stroke-width="0.357143" stroke-linecap="round"/>
<circle cx="5.9999" cy="27.5206" r="0.571429" fill="#97999B"/>
<rect x="17" y="10" width="7" height="1" rx="0.5" fill="#97999B"/>
<rect x="17" y="11.5" width="10" height="18" rx="0.2" fill="#BABDBF" fill-opacity="0.33"/>
<path d="M20.828 16.7802L20.7432 16.8001C20.6729 16.8167 20.6294 16.887 20.6459 16.9573L20.6858 17.1269L21.0445 17.1299L20.9851 16.8774C20.9686 16.8072 20.8982 16.7636 20.828 16.7802V16.7802Z" fill="#BABDBF"/>
<path d="M21.2223 16.8225L21.2623 16.9921L21.0274 17.1349L20.9679 16.8824C20.9514 16.8122 20.881 16.7686 20.8108 16.7852L21.0652 16.7253C21.1354 16.7088 21.2058 16.7523 21.2223 16.8225V16.8225Z" fill="#97999B"/>
<path d="M22.7441 20.7771L20.8106 21.2322C20.6467 21.2708 20.4826 21.1692 20.444 21.0053L19.7215 17.9355C19.6829 17.7716 19.7845 17.6074 19.9484 17.5688L21.8819 17.1137C22.0458 17.0752 22.21 17.1768 22.2485 17.3407L22.9711 20.4105C23.0096 20.5744 22.908 20.7386 22.7441 20.7771Z" fill="#797A7C"/>
<path d="M22.4858 17.2862L23.2083 20.356C23.2469 20.5199 23.1453 20.6841 22.9814 20.7227L22.727 20.7825C22.8909 20.744 22.9925 20.5798 22.9539 20.4159L22.409 19.3449L22.2314 17.3461C22.1928 17.1822 22.0287 17.0806 21.8647 17.1191L22.1191 17.0593C22.2831 17.0207 22.4472 17.1223 22.4858 17.2862V17.2862Z" fill="#6A6B6D"/>
<path d="M21.8346 20.2542L20.4309 19.8098L19.9758 17.8764C19.9703 17.853 19.9848 17.8295 20.0082 17.824L22.1791 17.313C22.2025 17.3075 22.226 17.3221 22.2315 17.3455L22.6866 19.2789L21.8346 20.2542Z" fill="#F4F6F7"/>
<path d="M21.5364 17.6271L21.2912 17.0583C21.2744 17.0195 21.2323 16.9983 21.1912 17.008L20.5192 17.1661C20.4781 17.1758 20.4498 17.2136 20.4521 17.2558L20.4864 17.8742C20.4894 17.9284 20.5405 17.9666 20.5933 17.9542L21.4764 17.7463C21.5291 17.7339 21.5579 17.6769 21.5364 17.6271V17.6271ZM21.3868 17.4596C21.3692 17.488 21.3408 17.5098 21.3057 17.518L20.8817 17.6178C20.8114 17.6343 20.741 17.5908 20.7245 17.5206C20.7163 17.4854 20.723 17.4503 20.7407 17.4219C20.7582 17.3934 20.7867 17.3717 20.8218 17.3634L21.2458 17.2636C21.316 17.2471 21.3864 17.2907 21.4029 17.3609C21.4112 17.396 21.4044 17.4311 21.3868 17.4596V17.4596Z" fill="#BABDBF"/>
<path d="M21.7139 17.6902L21.4595 17.7501C21.5123 17.7377 21.541 17.6806 21.5195 17.6308L21.2743 17.062C21.2576 17.0233 21.2154 17.002 21.1743 17.0117L21.4287 16.9518C21.4698 16.9422 21.512 16.9634 21.5287 17.0021L21.7739 17.5709C21.7954 17.6207 21.7667 17.6778 21.7139 17.6902Z" fill="#97999B"/>
<path d="M22.9218 20.4672L20.7508 20.9782C20.7274 20.9837 20.704 20.9692 20.6985 20.9458L20.6486 20.7338L21.7164 20.3965L22.9043 20.2029L22.9542 20.4149C22.9597 20.4383 22.9452 20.4617 22.9218 20.4672V20.4672Z" fill="#F4F6F7"/>
<path d="M20.4309 19.8105L22.6866 19.2796L22.9042 20.204L20.6485 20.7349L20.4309 19.8105Z" fill="#F4F6F7"/>
<path d="M22.1064 20.1898C22.1054 20.1901 22.1045 20.1903 22.1035 20.1904C22.0778 20.1953 22.0517 20.1844 22.0372 20.1627L21.9402 20.0183L21.8718 20.0344C21.846 20.0404 21.8191 20.0303 21.8037 20.0088L21.7583 19.9455L21.7151 20.2395C21.7112 20.266 21.6915 20.2875 21.6654 20.2936C21.6652 20.2937 21.6651 20.2937 21.6649 20.2937C21.6386 20.2997 21.6113 20.2889 21.5962 20.2664L21.4992 20.122L21.3969 20.1461C21.371 20.1522 21.3441 20.1421 21.3287 20.1204L21.2777 20.0489L21.233 20.353C21.2291 20.3795 21.2094 20.4009 21.1834 20.4071C21.1832 20.4071 21.183 20.4072 21.1828 20.4072C21.1565 20.4132 21.1292 20.4023 21.1141 20.3799L21.0172 20.2355L20.8978 20.2636C20.8627 20.2718 20.8275 20.2501 20.8193 20.2149C20.811 20.1798 20.8328 20.1446 20.8679 20.1364L21.0312 20.0979C21.0577 20.0917 21.0853 20.1025 21.1004 20.1251L21.1283 20.1666L21.172 19.8692C21.1759 19.8428 21.1954 19.8214 21.2214 19.8151L21.2217 19.815C21.2475 19.809 21.2745 19.8191 21.2899 19.8407L21.4097 20.0089L21.5133 19.9845C21.5398 19.9782 21.5674 19.9891 21.5825 20.0116L21.6104 20.0531L21.6525 19.7665C21.6564 19.7401 21.6759 19.7187 21.7018 19.7125L21.7022 19.7124C21.728 19.7063 21.7548 19.7164 21.7703 19.7379L21.8844 19.8971L21.9543 19.8807C21.9808 19.8744 22.0083 19.8853 22.0235 19.9078L22.0608 19.9634L22.1308 19.6494C22.1364 19.6243 22.1564 19.6048 22.1814 19.5996C22.2066 19.5944 22.2325 19.6045 22.2476 19.6254L22.3625 19.7846L22.4415 19.766C22.4766 19.7577 22.5118 19.7795 22.5201 19.8146C22.5283 19.8498 22.5066 19.8849 22.4714 19.8932L22.35 19.9218C22.3243 19.9278 22.2975 19.9178 22.2821 19.8964L22.2267 19.8197L22.1552 20.1404C22.1497 20.165 22.1307 20.1841 22.1064 20.1898V20.1898Z" fill="#00A7B5"/>
<path d="M20.8768 19.3725C20.8599 19.3765 20.8421 19.3736 20.8274 19.3645L20.6585 19.26C20.6279 19.241 20.6184 19.2007 20.6374 19.17C20.6564 19.1393 20.6966 19.1299 20.7273 19.1489L20.8406 19.219L21.0269 18.9181C21.0459 18.8874 21.0862 18.8779 21.1168 18.8969C21.1475 18.9159 21.157 18.9561 21.138 18.9868L20.9174 19.3433C20.9082 19.3581 20.8936 19.3686 20.8768 19.3725Z" fill="#7BD355"/>
<path d="M20.7168 18.685C20.7 18.689 20.6822 18.6861 20.6675 18.677L20.4986 18.5725C20.4679 18.5535 20.4585 18.5132 20.4775 18.4825C20.4965 18.4518 20.5367 18.4424 20.5674 18.4614L20.6807 18.5315L20.867 18.2306C20.886 18.1999 20.9262 18.1904 20.9569 18.2094C20.9876 18.2284 20.9971 18.2686 20.9781 18.2993L20.7575 18.6558C20.7483 18.6706 20.7337 18.6811 20.7168 18.685V18.685Z" fill="#7BD355"/>
<path d="M22.2273 19.036L21.8372 19.1279C21.8021 19.1361 21.7669 19.1143 21.7586 19.0792C21.7504 19.0441 21.7721 19.0089 21.8073 19.0007L22.1973 18.9088C22.2325 18.9006 22.2676 18.9223 22.2759 18.9575C22.2842 18.9926 22.2624 19.0278 22.2273 19.036Z" fill="#CCCFD1"/>
<path d="M21.5828 19.1876L21.4217 19.2255C21.3865 19.2338 21.3514 19.212 21.3431 19.1769C21.3348 19.1418 21.3566 19.1066 21.3917 19.0983L21.5528 19.0604C21.588 19.0521 21.6231 19.0739 21.6314 19.109C21.6397 19.1441 21.6179 19.1793 21.5828 19.1876Z" fill="#CCCFD1"/>
<path d="M22.1675 18.7839L21.3618 18.9736C21.3267 18.9818 21.2915 18.9601 21.2833 18.9249C21.275 18.8898 21.2968 18.8546 21.3319 18.8464L22.1375 18.6567C22.1727 18.6485 22.2078 18.6703 22.2161 18.7054C22.2244 18.7405 22.2026 18.7757 22.1675 18.7839Z" fill="#CCCFD1"/>
<path d="M22.0676 18.3583L21.6775 18.4501C21.6424 18.4584 21.6072 18.4366 21.599 18.4015C21.5907 18.3664 21.6125 18.3312 21.6476 18.3229L22.0377 18.2311C22.0728 18.2228 22.108 18.2446 22.1162 18.2797C22.1245 18.3149 22.1027 18.35 22.0676 18.3583Z" fill="#CCCFD1"/>
<path d="M21.4231 18.5118L21.262 18.5497C21.2269 18.558 21.1917 18.5362 21.1834 18.5011C21.1752 18.466 21.1969 18.4308 21.2321 18.4225L21.3932 18.3846C21.4283 18.3763 21.4635 18.3981 21.4717 18.4332C21.48 18.4684 21.4582 18.5035 21.4231 18.5118Z" fill="#CCCFD1"/>
<path d="M21.8212 18.1482L21.2022 18.2939C21.167 18.3021 21.1319 18.2804 21.1236 18.2452C21.1153 18.2101 21.1371 18.1749 21.1722 18.1667L21.7913 18.021C21.8264 18.0127 21.8616 18.0345 21.8699 18.0696C21.8781 18.1047 21.8564 18.1399 21.8212 18.1482Z" fill="#CCCFD1"/>
<path d="M23.4067 19.7824L22.7698 18.8212L23.4478 18.3594L24.0847 19.3206C24.0847 19.3206 24.3725 19.7431 24.6041 20.0831C24.6551 20.158 25.0518 20.5791 24.6377 20.8611C24.177 21.175 23.9246 20.585 23.8931 20.5386C23.6615 20.1986 23.4067 19.7824 23.4067 19.7824Z" fill="#FAFAFA" fill-opacity="0.75"/>
<path d="M23.934 20.4147C24.1338 20.708 24.2608 20.9707 24.5615 20.7659C24.6604 20.6985 24.6619 20.7089 24.7112 20.6093C24.8119 20.4061 24.6374 20.2237 24.5034 20.027C24.4032 19.8798 24.0636 19.4491 24.0636 19.4491L23.3721 19.5401C23.3721 19.5401 23.8338 20.2676 23.934 20.4147Z" fill="#F9423A"/>
<path d="M23.9323 19.4251L23.4722 18.7351C23.4166 18.6534 23.3054 18.6323 23.2237 18.6879L22.846 18.9452L22.7359 18.7836L22.787 18.5697L22.8906 18.4497L23.4139 18.3218L23.7273 18.782C23.7273 18.782 24.373 19.7062 24.6046 20.0463C24.9188 20.5076 24.9086 20.6772 24.6435 20.8577C24.8905 20.681 24.7629 20.6447 24.4516 20.1875C24.22 19.8475 23.9323 19.4251 23.9323 19.4251Z" fill="#D5D4C7"/>
<path d="M24.7065 20.6263C24.7911 20.443 24.611 20.24 24.4772 20.0437C24.3773 19.8969 24.0638 19.4494 24.0638 19.4494L23.96 19.4623C24.0281 19.5623 24.2895 19.9631 24.3864 20.1055C24.5079 20.2839 24.691 20.5112 24.7065 20.6263Z" fill="#D8292F"/>
<path d="M22.5321 18.8247C22.5734 18.8853 22.656 18.901 22.7166 18.8597L23.5439 18.2962C23.5742 18.2755 23.5933 18.2446 23.5996 18.2112C23.6059 18.1778 23.5995 18.142 23.5789 18.1117C23.5376 18.0511 23.455 18.0354 23.3944 18.0767L22.5671 18.6402C22.5368 18.6608 22.5177 18.6918 22.5114 18.7252C22.505 18.7586 22.5115 18.7944 22.5321 18.8247V18.8247Z" fill="#D5D4C7"/>
<path d="M22.5322 18.8258C22.5735 18.8864 22.6561 18.9021 22.7167 18.8608L23.2876 18.4719C23.3178 18.4513 23.3369 18.4204 23.3433 18.387C23.3496 18.3536 23.3432 18.3177 23.3225 18.2875C23.2813 18.2269 23.1987 18.2112 23.1381 18.2525L22.5672 18.6413C22.5369 18.6619 22.5178 18.6929 22.5115 18.7263C22.5051 18.7597 22.5116 18.7955 22.5322 18.8258Z" fill="#FAFAFA"/>
<path opacity="0.5" d="M23.9857 20.2767C24.0233 20.2511 24.0093 20.1905 23.9644 20.1839C23.9213 20.1776 23.8902 20.2272 23.9148 20.2632C23.9304 20.2861 23.9627 20.2923 23.9857 20.2767Z" fill="#A61E22"/>
<path opacity="0.5" d="M24.1634 20.4761C24.2002 20.4511 24.1881 20.3919 24.1442 20.3838C24.1222 20.3797 24.0998 20.3906 24.0894 20.4103C24.0795 20.4292 24.0827 20.4528 24.0971 20.4686C24.1141 20.487 24.1428 20.4901 24.1634 20.4761V20.4761Z" fill="#A61E22"/>
<path opacity="0.5" d="M24.6752 20.5934C24.6932 20.5812 24.7015 20.5582 24.6955 20.5372C24.6892 20.515 24.668 20.4995 24.645 20.5002C24.5993 20.5015 24.5784 20.5605 24.6134 20.5901C24.6307 20.6048 24.6564 20.6062 24.6752 20.5934V20.5934Z" fill="#A61E22"/>
<path opacity="0.5" d="M24.5046 20.3003C24.5427 20.2743 24.5277 20.2125 24.4817 20.2074C24.4595 20.2049 24.4381 20.2173 24.4291 20.2376C24.4206 20.2569 24.4252 20.2803 24.4404 20.2949C24.4576 20.3114 24.4848 20.3137 24.5046 20.3003V20.3003Z" fill="#A61E22"/>
<path opacity="0.5" d="M24.1847 20.2592C24.2225 20.2335 24.2083 20.1726 24.163 20.1665C24.1404 20.1635 24.1183 20.176 24.1091 20.1968C24.1008 20.2159 24.1053 20.2389 24.1202 20.2535C24.1373 20.2704 24.1649 20.2728 24.1847 20.2592V20.2592Z" fill="#A61E22"/>
<path opacity="0.5" d="M24.1371 19.81C24.1748 19.7843 24.1607 19.7234 24.1154 19.7173C24.0928 19.7142 24.0707 19.7267 24.0615 19.7476C24.0532 19.7667 24.0577 19.7897 24.0726 19.8043C24.0897 19.8212 24.1173 19.8235 24.1371 19.81V19.81Z" fill="#A61E22"/>
<path d="M22.1494 17.9318C22.1417 17.877 22.3442 17.7185 22.4464 17.6461C22.4987 17.6101 22.6285 17.5258 22.7295 17.4764C22.8304 17.4269 22.902 17.4578 22.9252 17.4794C23.0469 17.6502 23.2927 17.9953 23.3021 18.0089C23.3138 18.0259 23.3427 18.0498 23.3351 18.1114C23.3275 18.173 23.1216 18.3459 22.9902 18.4364C22.8588 18.5268 22.6827 18.5979 22.6202 18.6159C22.5701 18.6303 22.5321 18.5847 22.5193 18.5601L22.1955 18.0441C22.1834 18.0295 22.1572 17.9866 22.1494 17.9318Z" fill="#6B2254"/>
<path d="M22.2511 17.8808C22.2972 17.8241 22.4296 17.7309 22.4859 17.6943C22.5213 17.6699 22.6043 17.6153 22.6871 17.5683C22.7395 17.5386 22.7851 17.5273 22.8171 17.5243C22.8355 17.5226 22.8425 17.5423 22.8296 17.5554C22.783 17.603 22.7089 17.6745 22.6479 17.7205C22.5531 17.792 22.3303 17.914 22.2862 17.9318C22.2421 17.9496 22.1935 17.9518 22.2511 17.8808Z" fill="#FAFAFA"/>
<path d="M22.5032 17.7018C22.4581 17.7288 22.4032 17.786 22.368 17.8268C22.3605 17.8355 22.3687 17.8482 22.3798 17.8453L22.3876 17.8433L22.4282 17.8269C22.4305 17.8259 22.4324 17.8243 22.4338 17.8222C22.4847 17.7449 22.595 17.692 22.6443 17.6726C22.6451 17.6722 22.6459 17.6718 22.6466 17.6713C22.6652 17.6581 22.6847 17.636 22.6972 17.6204C22.7031 17.613 22.6981 17.6045 22.6891 17.6076C22.6462 17.622 22.5613 17.6669 22.5032 17.7018Z" fill="#D9D9D9"/>
<path d="M22.6455 17.6712C22.6455 17.6712 22.4831 17.7961 22.4362 17.822C22.4494 17.7829 22.5109 17.7394 22.5321 17.7248C22.6058 17.6803 22.6455 17.6712 22.6455 17.6712Z" fill="#8F8F92"/>
<path d="M22.7218 18.4969C22.8404 18.442 23.0652 18.2953 23.1759 18.1845C23.2611 18.0992 23.273 18.071 23.2512 18.0393" stroke="#832C6D" stroke-width="0.0479647" stroke-linecap="round"/>
<path d="M22.6204 17.7986C22.5717 17.8468 22.3874 17.9461 22.3121 17.9789C22.2541 18.0041 22.2379 18.0043 22.2259 17.9869" stroke="#832C6D" stroke-width="0.0479647" stroke-linecap="round"/>
<path d="M22.1211 21.0098L22.5807 19.9522L23.3372 20.2695L22.8776 21.3271C22.8776 21.3271 22.6798 21.7985 22.5207 22.1778C22.4856 22.2614 22.3483 22.8234 21.8863 22.6296C21.3723 22.4139 21.7298 21.8811 21.7515 21.8294C21.9107 21.45 22.1211 21.0098 22.1211 21.0098Z" fill="#FAFAFA" fill-opacity="0.75"/>
<path d="M21.878 21.7973C21.7407 22.1245 21.5895 22.3741 21.925 22.5149C22.0354 22.5612 22.0275 22.568 22.1379 22.5551C22.3632 22.529 22.4211 22.2834 22.5132 22.0638C22.5821 21.8997 22.7292 21.4208 22.7292 21.4208L22.0801 21.3603C22.0801 21.3603 21.9469 21.6332 21.878 21.7973Z" fill="#F9423A"/>
<path d="M22.7074 21.2571L23.0358 20.4956C23.074 20.4045 23.0311 20.2997 22.9401 20.2615L22.5186 20.0847L22.5942 19.9044L22.8015 19.8308L22.9585 19.8524L23.3506 20.2217L23.1353 20.7351C23.1353 20.7351 22.7114 21.7799 22.5522 22.1593C22.3363 22.674 22.1885 22.7577 21.8928 22.6337C22.1754 22.7446 22.1365 22.6178 22.3505 22.1078C22.5097 21.7284 22.7074 21.2571 22.7074 21.2571Z" fill="#D5D4C7"/>
<path d="M22.1211 22.5594C22.321 22.5306 22.3932 22.269 22.4851 22.0499C22.5538 21.8862 22.7551 21.4199 22.7551 21.4199L22.6383 21.4069C22.5915 21.5185 22.4504 21.8486 22.3838 22.0074C22.3003 22.2064 22.2092 22.4837 22.1211 22.5594Z" fill="#D8292F"/>
<path d="M22.4484 19.7555C22.4201 19.8231 22.4519 19.9009 22.5195 19.9293L23.4425 20.3165C23.4764 20.3307 23.5127 20.3299 23.5442 20.317C23.5756 20.3041 23.6022 20.2793 23.6164 20.2455C23.6447 20.1779 23.6129 20.1 23.5453 20.0717L22.6222 19.6844C22.5885 19.6702 22.5521 19.6711 22.5206 19.684C22.4891 19.6968 22.4626 19.7217 22.4484 19.7555V19.7555Z" fill="#D5D4C7"/>
<path d="M22.4484 19.7564C22.4201 19.824 22.4519 19.9018 22.5195 19.9302L23.1564 20.1974C23.1902 20.2116 23.2266 20.2108 23.2581 20.1979C23.2895 20.185 23.3161 20.1601 23.3302 20.1263C23.3586 20.0587 23.3268 19.9809 23.2592 19.9525L22.6222 19.6853C22.5885 19.6712 22.5521 19.672 22.5206 19.6849C22.4891 19.6977 22.4626 19.7226 22.4484 19.7564Z" fill="#FAFAFA"/>
<path opacity="0.5" d="M22.0219 21.7638C22.0638 21.7813 22.1071 21.7366 22.0881 21.6953C22.0699 21.6558 22.0114 21.6567 21.9946 21.6969C21.9838 21.7225 21.9963 21.753 22.0219 21.7638Z" fill="#A61E22"/>
<path opacity="0.5" d="M21.9514 22.0236C21.9924 22.0408 22.0355 21.9984 22.0184 21.9572C22.0098 21.9366 21.9885 21.9237 21.9663 21.9257C21.945 21.9277 21.927 21.9433 21.9216 21.9639C21.9154 21.9881 21.9284 22.014 21.9514 22.0236V22.0236Z" fill="#A61E22"/>
<path opacity="0.5" d="M22.132 22.5157C22.1522 22.5242 22.176 22.5186 22.1903 22.5021C22.2054 22.4848 22.2069 22.4585 22.1938 22.4396C22.1679 22.402 22.107 22.4166 22.1012 22.4621C22.0983 22.4845 22.1111 22.5069 22.132 22.5157V22.5157Z" fill="#A61E22"/>
<path opacity="0.5" d="M22.2845 22.2131C22.327 22.2309 22.3707 22.1847 22.35 22.1433C22.34 22.1234 22.3179 22.1122 22.2959 22.1157C22.2751 22.119 22.2581 22.1356 22.2541 22.1564C22.2496 22.1798 22.2625 22.2039 22.2845 22.2131V22.2131Z" fill="#A61E22"/>
<path opacity="0.5" d="M22.1446 21.924C22.1867 21.9417 22.2301 21.8967 22.2106 21.8553C22.2008 21.8347 22.1783 21.823 22.1558 21.8266C22.1352 21.83 22.1184 21.8464 22.1143 21.8668C22.1094 21.8903 22.1225 21.9147 22.1446 21.924V21.924Z" fill="#A61E22"/>
<path d="M22.9192 19.0149C22.9599 18.9775 23.2053 19.0544 23.3229 19.0975C23.3822 19.1201 23.5253 19.1793 23.6232 19.2344C23.7212 19.2895 23.7364 19.366 23.7318 19.3973C23.6601 19.5945 23.5152 19.9926 23.5093 20.008C23.5019 20.0273 23.4987 20.0647 23.4436 20.0933C23.3886 20.122 23.1294 20.0505 22.9804 19.9935C22.8313 19.9365 22.673 19.8318 22.6227 19.7905C22.5824 19.7574 22.5984 19.7002 22.6114 19.6758L22.8528 19.1165C22.8579 19.0982 22.8784 19.0523 22.9192 19.0149Z" fill="#D6AC61"/>
<path d="M23.0188 19.0694C23.0916 19.0751 23.2435 19.1314 23.3055 19.1569C23.3457 19.1723 23.4378 19.2097 23.5235 19.2513C23.5776 19.2776 23.6128 19.3087 23.6334 19.3334C23.6452 19.3476 23.633 19.3645 23.6148 19.3613C23.5492 19.3499 23.4483 19.3294 23.3758 19.3053C23.2632 19.2677 23.0363 19.1534 22.9967 19.1272C22.957 19.101 22.9277 19.0621 23.0188 19.0694Z" fill="#FAFAFA"/>
<path d="M23.3096 19.1754C23.2618 19.1536 23.1835 19.1409 23.13 19.135C23.1186 19.1337 23.1127 19.1477 23.1214 19.1552L23.1276 19.1605L23.164 19.1846C23.1661 19.186 23.1686 19.1866 23.1711 19.1866C23.2636 19.1847 23.3697 19.2455 23.4137 19.2751C23.4144 19.2756 23.4152 19.276 23.4161 19.2763C23.4374 19.2842 23.4667 19.2876 23.4866 19.2891C23.4961 19.2898 23.5003 19.2809 23.4926 19.2752C23.4564 19.248 23.3713 19.2035 23.3096 19.1754Z" fill="#D9D9D9"/>
<path d="M23.4148 19.275C23.4148 19.275 23.2199 19.212 23.1719 19.1881C23.2116 19.1768 23.2823 19.2027 23.3064 19.2119C23.3849 19.2475 23.4148 19.275 23.4148 19.275Z" fill="#8F8F92"/>
<path d="M22.7789 19.8062C22.8914 19.8727 23.1397 19.9747 23.2938 20.0031C23.4124 20.0248 23.4423 20.0186 23.456 19.9827" stroke="#ECC278" stroke-width="0.0479647" stroke-linecap="round"/>
<path d="M23.2958 19.3277C23.2286 19.3149 23.0423 19.2194 22.9725 19.176C22.9189 19.1425 22.9095 19.1292 22.9171 19.1095" stroke="#ECC278" stroke-width="0.0479647" stroke-linecap="round"/>
<rect x="28" y="10" width="5" height="1" rx="0.5" fill="#97999B"/>
<g filter="url(#filter6_d_10115_109954)">
<rect x="28" y="11.5" width="5.3581" height="1.01858" rx="0.133373" fill="#00A7B5"/>
<path fill-rule="evenodd" clip-rule="evenodd" d="M30.868 12.1597L30.7739 12.0655C30.7936 12.038 30.8042 12.005 30.8041 11.9711C30.8041 11.8814 30.7313 11.8086 30.6416 11.8086C30.5518 11.8086 30.479 11.8814 30.479 11.9711C30.479 12.0609 30.5518 12.1337 30.6416 12.1337C30.6754 12.1337 30.7084 12.1232 30.736 12.1035L30.8301 12.1976C30.8405 12.2081 30.8575 12.2081 30.868 12.1976C30.8785 12.1871 30.8785 12.1701 30.868 12.1597ZM30.739 12.0274C30.7189 12.0622 30.6818 12.0837 30.6416 12.0837C30.5794 12.0837 30.529 12.0333 30.529 11.9711C30.529 11.909 30.5794 11.8586 30.6416 11.8586C30.6818 11.8586 30.7189 11.8801 30.739 11.9149C30.7591 11.9497 30.7591 11.9926 30.739 12.0274Z" fill="white"/>
<rect x="33.6418" y="11.5" width="5.3581" height="1.01858" rx="0.133373" fill="#00A7B5"/>
<path d="M36.5101 12.0587H36.3725V12.2087H36.2809V12.0587H36.1433V11.9586H36.2809V11.8086H36.3725V11.9586H36.5101V12.0587Z" fill="white"/>
</g>
<rect x="28" y="13.0195" width="11" height="4" rx="0.142857" fill="white"/>
<path d="M28.5713 15.4492L37.4313 15.4492" stroke="#BABDBF" stroke-width="0.357143" stroke-linecap="round"/>
<path d="M28.5713 16.1621H36.0013" stroke="#BABDBF" stroke-width="0.357143" stroke-linecap="round"/>
<path d="M30 13.7344H33.2857" stroke="#BABDBF" stroke-width="0.357143" stroke-linecap="round"/>
<path d="M30 14.3047H31.1429" stroke="#BABDBF" stroke-width="0.357143" stroke-linecap="round"/>
<circle cx="28.9999" cy="14.0206" r="0.571429" fill="#97999B"/>
<rect x="28" y="17.5195" width="11" height="4" rx="0.142857" fill="white"/>
<path d="M28.5713 19.9492L37.4313 19.9492" stroke="#BABDBF" stroke-width="0.357143" stroke-linecap="round"/>
<path d="M28.5713 20.6621H36.0013" stroke="#BABDBF" stroke-width="0.357143" stroke-linecap="round"/>
<path d="M30 18.2344H33.2857" stroke="#BABDBF" stroke-width="0.357143" stroke-linecap="round"/>
<path d="M30 18.8047H31.1429" stroke="#BABDBF" stroke-width="0.357143" stroke-linecap="round"/>
<circle cx="28.9999" cy="18.5206" r="0.571429" fill="#97999B"/>
<rect x="28" y="22.0195" width="11" height="4" rx="0.142857" fill="white"/>
<path d="M28.5713 24.4492L37.4313 24.4492" stroke="#BABDBF" stroke-width="0.357143" stroke-linecap="round"/>
<path d="M28.5713 25.1621H36.0013" stroke="#BABDBF" stroke-width="0.357143" stroke-linecap="round"/>
<path d="M30 22.7344H33.2857" stroke="#BABDBF" stroke-width="0.357143" stroke-linecap="round"/>
<path d="M30 23.3047H31.1429" stroke="#BABDBF" stroke-width="0.357143" stroke-linecap="round"/>
<circle cx="28.9999" cy="23.0206" r="0.571429" fill="#97999B"/>
<rect x="28" y="26.5195" width="11" height="4" rx="0.142857" fill="white"/>
<path d="M28.5713 28.9492L37.4313 28.9492" stroke="#BABDBF" stroke-width="0.357143" stroke-linecap="round"/>
<path d="M28.5713 29.6621H36.0013" stroke="#BABDBF" stroke-width="0.357143" stroke-linecap="round"/>
<path d="M30 27.2344H33.2857" stroke="#BABDBF" stroke-width="0.357143" stroke-linecap="round"/>
<path d="M30 27.8047H31.1429" stroke="#BABDBF" stroke-width="0.357143" stroke-linecap="round"/>
<circle cx="28.9999" cy="27.5206" r="0.571429" fill="#97999B"/>
<g filter="url(#filter7_d_10115_109954)">
<rect x="4" y="4.90234" width="36.384" height="3.95121" fill="white"/>
</g>
<rect x="14" y="5.19922" width="2.89755" height="3.3256" rx="0.237804" fill="#9BDA8C"/>
<rect x="14.8889" y="6.05664" width="1.18057" height="1.64436" rx="0.2" fill="#EAEAE9"/>
<rect x="17.2598" y="5.19922" width="2.89755" height="3.3256" rx="0.237804" fill="#9BDA8C"/>
<rect x="18.1487" y="6.05664" width="1.18057" height="1.64436" rx="0.2" fill="#EAEAE9"/>
<rect x="20.5195" y="5.19922" width="2.89755" height="3.3256" rx="0.237804" fill="#9BDA8C"/>
<rect x="21.4084" y="6.05664" width="1.18057" height="1.64436" rx="0.2" fill="#EAEAE9"/>
<rect x="23.7793" y="5.19922" width="2.89755" height="3.3256" rx="0.237804" fill="#9BDA8C"/>
<rect x="24.6682" y="6.05664" width="1.18057" height="1.64436" rx="0.2" fill="#EAEAE9"/>
<rect x="27.0391" y="5.19922" width="2.89755" height="3.3256" rx="0.237804" fill="#9BDA8C"/>
<rect x="27.928" y="6.05664" width="1.18057" height="1.64436" rx="0.2" fill="#EAEAE9"/>
<mask id="path-131-inside-1_10115_109954" fill="white">
<path d="M3.88281 4.86914H40.2339V3.05817H3.88281V4.86914Z"/>
</mask>
<path d="M3.88281 4.86914H40.2339V3.05817H3.88281V4.86914Z" fill="#F4F6F7"/>
<path d="M3.88281 4.83621H40.2339V4.90207H3.88281V4.83621Z" fill="#00A7B5" mask="url(#path-131-inside-1_10115_109954)"/>
<g opacity="0.6">
<path fill-rule="evenodd" clip-rule="evenodd" d="M36.645 3.7703L36.5947 3.87402C36.6021 3.88598 36.6065 3.90116 36.6103 3.91437C36.6113 3.91752 36.6121 3.92055 36.613 3.92341L36.7182 3.96292V4.0617L36.613 4.10121C36.6084 4.12097 36.6039 4.14072 36.5947 4.15554L36.645 4.25926L36.581 4.3284L36.4849 4.27408C36.4758 4.27655 36.4678 4.28025 36.4598 4.28395C36.4518 4.28766 36.4438 4.29136 36.4346 4.29383L36.398 4.40743H36.3065L36.2699 4.29383C36.2516 4.28889 36.2333 4.28395 36.2196 4.27408L36.1236 4.3284L36.0595 4.25926L36.1098 4.15554C36.1075 4.14566 36.1041 4.13702 36.1007 4.12838C36.0973 4.11973 36.0938 4.11109 36.0915 4.10121L35.9863 4.0617V3.96292L36.0915 3.92341C36.0924 3.92055 36.0933 3.91752 36.0942 3.91437C36.098 3.90116 36.1024 3.88598 36.1098 3.87402L36.0595 3.7703L36.1281 3.69621L36.2242 3.75054C36.2353 3.74257 36.2493 3.73781 36.2616 3.73367C36.2645 3.73269 36.2673 3.73174 36.2699 3.73078L36.3065 3.61719H36.398L36.4346 3.73572C36.4529 3.74066 36.4712 3.7456 36.4849 3.75548L36.581 3.70115L36.645 3.7703ZM36.215 4.01231C36.215 4.09627 36.2745 4.16048 36.3523 4.16048C36.43 4.16048 36.4895 4.09627 36.4895 4.01231C36.4895 3.92835 36.43 3.86414 36.3523 3.86414C36.2745 3.86414 36.215 3.92835 36.215 4.01231Z" fill="#4C4D4E"/>
<path fill-rule="evenodd" clip-rule="evenodd" d="M32.6109 4.31055L32.4232 4.12467C32.4625 4.07029 32.4835 4.00508 32.4834 3.93822C32.4834 3.76091 32.3383 3.61719 32.1593 3.61719C31.9803 3.61719 31.8352 3.76091 31.8352 3.93822C31.8352 4.11553 31.9803 4.25926 32.1593 4.25926C32.2268 4.25937 32.2927 4.2385 32.3476 4.1996L32.5352 4.38548C32.5561 4.40617 32.59 4.40617 32.6109 4.38548C32.6317 4.36479 32.6317 4.33124 32.6109 4.31055ZM32.3536 4.04935C32.3136 4.11812 32.2395 4.16048 32.1593 4.16048C32.0354 4.16048 31.9349 4.06097 31.9349 3.93822C31.9349 3.81547 32.0354 3.71597 32.1593 3.71597C32.2395 3.71597 32.3136 3.75833 32.3536 3.8271C32.3937 3.89586 32.3937 3.98058 32.3536 4.04935Z" fill="#4C4D4E"/>
</g>
<path d="M34.5866 4.30977L34.5866 4.41509C34.5866 4.43998 34.6148 4.45444 34.635 4.43994L35 4.17843C35.017 4.16623 35.017 4.14092 35 4.12872L34.635 3.8672C34.6148 3.85271 34.5866 3.86717 34.5866 3.89206L34.5866 4.02529C34.5866 4.04218 34.5729 4.05587 34.556 4.05587L34.2163 4.05587C34.1994 4.05587 34.1857 4.06956 34.1857 4.08644L34.1857 4.24862C34.1857 4.26551 34.1994 4.2792 34.2163 4.2792L34.556 4.2792C34.5729 4.2792 34.5866 4.29289 34.5866 4.30977Z" stroke="#AB4633" stroke-width="0.0917245"/>
<path d="M34.0638 3.79328V3.68032C34.0638 3.65512 34.035 3.64074 34.0148 3.65587L33.6483 3.93101C33.632 3.94324 33.632 3.96769 33.6483 3.97992L34.0148 4.25506C34.035 4.27019 34.0638 4.25581 34.0638 4.23061V4.0884C34.0638 4.07151 34.0775 4.05782 34.0943 4.05782H34.4647V3.85443C34.4647 3.83755 34.451 3.82386 34.4341 3.82386H34.0943C34.0775 3.82386 34.0638 3.81017 34.0638 3.79328Z" stroke="#555449" stroke-width="0.0917245"/>
<rect x="34.7908" y="3.48828" width="0.304958" height="0.329267" rx="0.152479" fill="#7BD355"/>
<path d="M5 4H9" stroke="#BABDBF" stroke-width="0.6" stroke-linecap="round"/>
<path d="M38 4H39" stroke="#BABDBF" stroke-width="0.6" stroke-linecap="round"/>
<defs>
<filter id="filter0_d_10115_109954" x="6.57166" y="32.8906" width="30.8423" height="7.24388" filterUnits="userSpaceOnUse" color-interpolation-filters="sRGB">
<feFlood flood-opacity="0" result="BackgroundImageFix"/>
<feColorMatrix in="SourceAlpha" type="matrix" values="0 0 0 0 0 0 0 0 0 0 0 0 0 0 0 0 0 0 127 0" result="hardAlpha"/>
<feOffset dy="0.131707"/>
<feGaussianBlur stdDeviation="0.0658535"/>
<feComposite in2="hardAlpha" operator="out"/>
<feColorMatrix type="matrix" values="0 0 0 0 0 0 0 0 0 0 0 0 0 0 0 0 0 0 0.25 0"/>
<feBlend mode="normal" in2="BackgroundImageFix" result="effect1_dropShadow_10115_109954"/>
<feBlend mode="normal" in="SourceGraphic" in2="effect1_dropShadow_10115_109954" result="shape"/>
</filter>
<filter id="filter1_d_10115_109954" x="15.7366" y="28.2812" width="13.0061" height="7.63952" filterUnits="userSpaceOnUse" color-interpolation-filters="sRGB">
<feFlood flood-opacity="0" result="BackgroundImageFix"/>
<feColorMatrix in="SourceAlpha" type="matrix" values="0 0 0 0 0 0 0 0 0 0 0 0 0 0 0 0 0 0 127 0" result="hardAlpha"/>
<feOffset dy="0.131707"/>
<feComposite in2="hardAlpha" operator="out"/>
<feColorMatrix type="matrix" values="0 0 0 0 0 0 0 0 0 0 0 0 0 0 0 0 0 0 0.03 0"/>
<feBlend mode="normal" in2="BackgroundImageFix" result="effect1_dropShadow_10115_109954"/>
<feBlend mode="normal" in="SourceGraphic" in2="effect1_dropShadow_10115_109954" result="shape"/>
</filter>
<filter id="filter2_di_10115_109954" x="13.0037" y="27.3593" width="18.4719" height="12.9737" filterUnits="userSpaceOnUse" color-interpolation-filters="sRGB">
<feFlood flood-opacity="0" result="BackgroundImageFix"/>
<feColorMatrix in="SourceAlpha" type="matrix" values="0 0 0 0 0 0 0 0 0 0 0 0 0 0 0 0 0 0 127 0" result="hardAlpha"/>
<feOffset dy="1.81097"/>
<feGaussianBlur stdDeviation="1.36646"/>
<feComposite in2="hardAlpha" operator="out"/>
<feColorMatrix type="matrix" values="0 0 0 0 0 0 0 0 0 0 0 0 0 0 0 0 0 0 0.25 0"/>
<feBlend mode="normal" in2="BackgroundImageFix" result="effect1_dropShadow_10115_109954"/>
<feBlend mode="normal" in="SourceGraphic" in2="effect1_dropShadow_10115_109954" result="shape"/>
<feColorMatrix in="SourceAlpha" type="matrix" values="0 0 0 0 0 0 0 0 0 0 0 0 0 0 0 0 0 0 127 0" result="hardAlpha"/>
<feOffset dy="0.131707"/>
<feGaussianBlur stdDeviation="0.0658535"/>
<feComposite in2="hardAlpha" operator="arithmetic" k2="-1" k3="1"/>
<feColorMatrix type="matrix" values="0 0 0 0 0 0 0 0 0 0 0 0 0 0 0 0 0 0 0.6 0"/>
<feBlend mode="normal" in2="shape" result="effect2_innerShadow_10115_109954"/>
</filter>
<filter id="filter3_d_10115_109954" x="14.5512" y="27.1288" width="15.3768" height="9.87854" filterUnits="userSpaceOnUse" color-interpolation-filters="sRGB">
<feFlood flood-opacity="0" result="BackgroundImageFix"/>
<feColorMatrix in="SourceAlpha" type="matrix" values="0 0 0 0 0 0 0 0 0 0 0 0 0 0 0 0 0 0 127 0" result="hardAlpha"/>
<feOffset dy="0.0329267"/>
<feGaussianBlur stdDeviation="0.592681"/>
<feComposite in2="hardAlpha" operator="out"/>
<feColorMatrix type="matrix" values="0 0 0 0 0 0 0 0 0 0 0 0 0 0 0 0 0 0 0.14 0"/>
<feBlend mode="normal" in2="BackgroundImageFix" result="effect1_dropShadow_10115_109954"/>
<feBlend mode="normal" in="SourceGraphic" in2="effect1_dropShadow_10115_109954" result="shape"/>
</filter>
<filter id="filter4_di_10115_109954" x="0.985481" y="0.324219" width="42.1462" height="33.947" filterUnits="userSpaceOnUse" color-interpolation-filters="sRGB">
<feFlood flood-opacity="0" result="BackgroundImageFix"/>
<feColorMatrix in="SourceAlpha" type="matrix" values="0 0 0 0 0 0 0 0 0 0 0 0 0 0 0 0 0 0 127 0" result="hardAlpha"/>
<feOffset dy="0.131707"/>
<feGaussianBlur stdDeviation="0.0658535"/>
<feComposite in2="hardAlpha" operator="out"/>
<feColorMatrix type="matrix" values="0 0 0 0 0 0 0 0 0 0 0 0 0 0 0 0 0 0 0.25 0"/>
<feBlend mode="normal" in2="BackgroundImageFix" result="effect1_dropShadow_10115_109954"/>
<feBlend mode="normal" in="SourceGraphic" in2="effect1_dropShadow_10115_109954" result="shape"/>
<feColorMatrix in="SourceAlpha" type="matrix" values="0 0 0 0 0 0 0 0 0 0 0 0 0 0 0 0 0 0 127 0" result="hardAlpha"/>
<feOffset dy="0.131707"/>
<feGaussianBlur stdDeviation="0.0658535"/>
<feComposite in2="hardAlpha" operator="arithmetic" k2="-1" k3="1"/>
<feColorMatrix type="matrix" values="0 0 0 0 0 0 0 0 0 0 0 0 0 0 0 0 0 0 0.25 0"/>
<feBlend mode="normal" in2="shape" result="effect2_innerShadow_10115_109954"/>
</filter>
<filter id="filter5_d_10115_109954" x="4.09973" y="10.7331" width="12.8005" height="2.82006" filterUnits="userSpaceOnUse" color-interpolation-filters="sRGB">
<feFlood flood-opacity="0" result="BackgroundImageFix"/>
<feColorMatrix in="SourceAlpha" type="matrix" values="0 0 0 0 0 0 0 0 0 0 0 0 0 0 0 0 0 0 127 0" result="hardAlpha"/>
<feOffset dy="0.133373"/>
<feGaussianBlur stdDeviation="0.450133"/>
<feComposite in2="hardAlpha" operator="out"/>
<feColorMatrix type="matrix" values="0 0 0 0 0 0 0 0 0 0 0 0 0 0 0 0 0 0 0.04 0"/>
<feBlend mode="normal" in2="BackgroundImageFix" result="effect1_dropShadow_10115_109954"/>
<feBlend mode="normal" in="SourceGraphic" in2="effect1_dropShadow_10115_109954" result="shape"/>
</filter>
<filter id="filter6_d_10115_109954" x="27.0997" y="10.7331" width="12.8005" height="2.82006" filterUnits="userSpaceOnUse" color-interpolation-filters="sRGB">
<feFlood flood-opacity="0" result="BackgroundImageFix"/>
<feColorMatrix in="SourceAlpha" type="matrix" values="0 0 0 0 0 0 0 0 0 0 0 0 0 0 0 0 0 0 127 0" result="hardAlpha"/>
<feOffset dy="0.133373"/>
<feGaussianBlur stdDeviation="0.450133"/>
<feComposite in2="hardAlpha" operator="out"/>
<feColorMatrix type="matrix" values="0 0 0 0 0 0 0 0 0 0 0 0 0 0 0 0 0 0 0.04 0"/>
<feBlend mode="normal" in2="BackgroundImageFix" result="effect1_dropShadow_10115_109954"/>
<feBlend mode="normal" in="SourceGraphic" in2="effect1_dropShadow_10115_109954" result="shape"/>
</filter>
<filter id="filter7_d_10115_109954" x="3.11098" y="4.14503" width="38.1621" height="5.72922" filterUnits="userSpaceOnUse" color-interpolation-filters="sRGB">
<feFlood flood-opacity="0" result="BackgroundImageFix"/>
<feColorMatrix in="SourceAlpha" type="matrix" values="0 0 0 0 0 0 0 0 0 0 0 0 0 0 0 0 0 0 127 0" result="hardAlpha"/>
<feOffset dy="0.131707"/>
<feGaussianBlur stdDeviation="0.444511"/>
<feComposite in2="hardAlpha" operator="out"/>
<feColorMatrix type="matrix" values="0 0 0 0 0 0 0 0 0 0 0 0 0 0 0 0 0 0 0.05 0"/>
<feBlend mode="normal" in2="BackgroundImageFix" result="effect1_dropShadow_10115_109954"/>
<feBlend mode="normal" in="SourceGraphic" in2="effect1_dropShadow_10115_109954" result="shape"/>
</filter>
<radialGradient id="paint0_radial_10115_109954" cx="0" cy="0" r="1" gradientUnits="userSpaceOnUse" gradientTransform="translate(21.9928 36.6113) rotate(-0.875633) scale(15.0822 67.4431)">
<stop stop-color="#E9E8E7"/>
<stop offset="0.5085" stop-color="#DEDEDE"/>
<stop offset="1" stop-color="#F2F1F1"/>
</radialGradient>
<linearGradient id="paint1_linear_10115_109954" x1="6.91233" y1="36.4786" x2="37.0732" y2="36.0176" gradientUnits="userSpaceOnUse">
<stop stop-color="#EDECEB"/>
<stop offset="0.5085" stop-color="#EFEFEE"/>
<stop offset="1" stop-color="#F2F1F1"/>
</linearGradient>
<linearGradient id="paint2_linear_10115_109954" x1="14.7216" y1="32.0931" x2="29.1905" y2="28.1283" gradientUnits="userSpaceOnUse">
<stop stop-color="#E7E6E5"/>
<stop offset="0.5" stop-color="#CECECD"/>
<stop offset="0.947482" stop-color="#D3D3D1"/>
</linearGradient>
<linearGradient id="paint3_linear_10115_109954" x1="21.563" y1="36.807" x2="27.3891" y2="28.1552" gradientUnits="userSpaceOnUse">
<stop stop-color="#B3B3B3" stop-opacity="0.96"/>
<stop offset="0.5" stop-color="#CECECD"/>
<stop offset="0.947482" stop-color="#D3D3D1"/>
</linearGradient>
</defs>
</svg>
