<svg width="16" height="21" viewBox="0 0 16 21" fill="none" xmlns="http://www.w3.org/2000/svg">
<path fill-rule="evenodd" clip-rule="evenodd" d="M1 10.0238V10.9762H15V10.0238H1ZM0 10.0238V9.07141V1.11765C0 0.77653 0.27653 0.5 0.617647 0.5H15.3824C15.7235 0.5 16 0.77653 16 1.11765V10.9762V18.5952H16.0001V19.5952V19.8823C16.0001 20.2234 15.7235 20.5 15.3824 20.5H12.351C12.0099 20.5 11.7334 20.2234 11.7334 19.8823V19.5952V19.5476H4.26667V19.5952V19.8823C4.26667 20.2234 3.99014 20.5 3.64902 20.5H0.617647C0.27653 20.5 0 20.2234 0 19.8823V19.5952V18.93V18.5952V18.5952V10.9762V10.0238ZM14.9997 9.07141H15V1.5H14.9997V9.07141ZM7.53513 5.5C7.19401 5.5 6.91748 5.77653 6.91748 6.11765V6.94118C6.91748 7.28229 7.19401 7.55882 7.53513 7.55882H8.93513C9.27625 7.55882 9.55277 7.28229 9.55277 6.94118V6.11765C9.55277 5.77653 9.27624 5.5 8.93513 5.5H7.53513ZM14.9022 16.6905H1.06689V17.6429H14.9022V16.6905ZM2.06689 12.9286V14.7381H13.9336V12.9286H2.06689ZM1.68454 11.9286C1.34342 11.9286 1.06689 12.2051 1.06689 12.5462V15.1205C1.06689 15.4616 1.34342 15.7381 1.68454 15.7381H14.3159C14.657 15.7381 14.9336 15.4616 14.9336 15.1205V12.5462C14.9336 12.2051 14.657 11.9286 14.3159 11.9286H1.68454Z" fill="#4C4D4E"/>
</svg>
