<svg width="264" height="168" viewBox="0 0 264 168" fill="none" xmlns="http://www.w3.org/2000/svg">
<g filter="url(#filter0_i_1299_9791)">
<path d="M98.3584 44.9618C98.3584 39.3371 102.918 34.7773 108.543 34.7773H152.058C157.683 34.7773 162.243 39.3371 162.243 44.9618V102.844C162.243 105.85 159.806 108.287 156.8 108.287C153.61 108.287 151.058 111.03 150.86 114.214C150.305 123.124 146.971 138.937 130.301 138.937C113.63 138.937 110.296 123.124 109.741 114.214C109.543 111.03 106.992 108.287 103.801 108.287C100.795 108.287 98.3584 105.85 98.3584 102.844V44.9618Z" fill="#F9F9F9"/>
</g>
<circle cx="116.194" cy="78.9727" r="10.4141" fill="black" fill-opacity="0.7"/>
<circle cx="145.2" cy="78.9727" r="10.4141" fill="#48494A"/>
<circle cx="131.2" cy="53.9727" r="10.4141" fill="#48494A"/>
<circle cx="131.2" cy="103.973" r="10.4141" fill="#48494A"/>
<path d="M7.68164 81.8789H6.68555V77.8477H2.17383V81.8789H1.17773V73.3125H2.17383V76.957H6.68555V73.3125H7.68164V81.8789ZM10.8633 81.8789H9.89062V75.457H10.8633V81.8789ZM9.80859 73.7168C9.80859 73.4941 9.86328 73.332 9.97266 73.2305C10.082 73.125 10.2188 73.0723 10.3828 73.0723C10.5391 73.0723 10.6738 73.125 10.7871 73.2305C10.9004 73.3359 10.957 73.498 10.957 73.7168C10.957 73.9355 10.9004 74.0996 10.7871 74.209C10.6738 74.3145 10.5391 74.3672 10.3828 74.3672C10.2188 74.3672 10.082 74.3145 9.97266 74.209C9.86328 74.0996 9.80859 73.9355 9.80859 73.7168ZM18.1816 75.457V76.0723L16.9922 76.2129C17.1016 76.3496 17.1992 76.5293 17.2852 76.752C17.3711 76.9707 17.4141 77.2188 17.4141 77.4961C17.4141 78.125 17.1992 78.627 16.7695 79.002C16.3398 79.377 15.75 79.5645 15 79.5645C14.8086 79.5645 14.6289 79.5488 14.4609 79.5176C14.0469 79.7363 13.8398 80.0117 13.8398 80.3438C13.8398 80.5195 13.9121 80.6504 14.0566 80.7363C14.2012 80.8184 14.4492 80.8594 14.8008 80.8594H15.9375C16.6328 80.8594 17.166 81.0059 17.5371 81.2988C17.9121 81.5918 18.0996 82.0176 18.0996 82.5762C18.0996 83.2871 17.8145 83.8281 17.2441 84.1992C16.6738 84.5742 15.8418 84.7617 14.748 84.7617C13.9082 84.7617 13.2598 84.6055 12.8027 84.293C12.3496 83.9805 12.123 83.5391 12.123 82.9688C12.123 82.5781 12.248 82.2402 12.498 81.9551C12.748 81.6699 13.0996 81.4766 13.5527 81.375C13.3887 81.3008 13.25 81.1855 13.1367 81.0293C13.0273 80.873 12.9727 80.6914 12.9727 80.4844C12.9727 80.25 13.0352 80.0449 13.1602 79.8691C13.2852 79.6934 13.4824 79.5234 13.752 79.3594C13.4199 79.2227 13.1484 78.9902 12.9375 78.6621C12.7305 78.334 12.627 77.959 12.627 77.5371C12.627 76.834 12.8379 76.293 13.2598 75.9141C13.6816 75.5312 14.2793 75.3398 15.0527 75.3398C15.3887 75.3398 15.6914 75.3789 15.9609 75.457H18.1816ZM13.0605 82.957C13.0605 83.3047 13.207 83.5684 13.5 83.748C13.793 83.9277 14.2129 84.0176 14.7598 84.0176C15.5762 84.0176 16.1797 83.8945 16.5703 83.6484C16.9648 83.4062 17.1621 83.0762 17.1621 82.6582C17.1621 82.3105 17.0547 82.0684 16.8398 81.9316C16.625 81.7988 16.2207 81.7324 15.627 81.7324H14.4609C14.0195 81.7324 13.6758 81.8379 13.4297 82.0488C13.1836 82.2598 13.0605 82.5625 13.0605 82.957ZM13.5879 77.5137C13.5879 77.9629 13.7148 78.3027 13.9688 78.5332C14.2227 78.7637 14.5762 78.8789 15.0293 78.8789C15.9785 78.8789 16.4531 78.418 16.4531 77.4961C16.4531 76.5312 15.9727 76.0488 15.0117 76.0488C14.5547 76.0488 14.2031 76.1719 13.957 76.418C13.7109 76.6641 13.5879 77.0293 13.5879 77.5137ZM23.8945 81.8789V77.7246C23.8945 77.2012 23.7754 76.8105 23.5371 76.5527C23.2988 76.2949 22.9258 76.166 22.418 76.166C21.7422 76.166 21.248 76.3496 20.9355 76.7168C20.627 77.084 20.4727 77.6855 20.4727 78.5215V81.8789H19.5V72.7617H20.4727V75.5215C20.4727 75.8535 20.457 76.1289 20.4258 76.3477H20.4844C20.6758 76.0391 20.9473 75.7969 21.2988 75.6211C21.6543 75.4414 22.0586 75.3516 22.5117 75.3516C23.2969 75.3516 23.8848 75.5391 24.2754 75.9141C24.6699 76.2852 24.8672 76.877 24.8672 77.6895V81.8789H23.8945ZM35.5195 81.8789L34.4531 79.1543H31.0195L29.9648 81.8789H28.957L32.3438 73.2773H33.1816L36.5508 81.8789H35.5195ZM34.1426 78.2578L33.1465 75.6035C33.0176 75.2676 32.8848 74.8555 32.748 74.3672C32.6621 74.7422 32.5391 75.1543 32.3789 75.6035L31.3711 78.2578H34.1426ZM41.9766 81.8789V77.7246C41.9766 77.2012 41.8574 76.8105 41.6191 76.5527C41.3809 76.2949 41.0078 76.166 40.5 76.166C39.8281 76.166 39.3359 76.3477 39.0234 76.7109C38.7109 77.0742 38.5547 77.6738 38.5547 78.5098V81.8789H37.582V75.457H38.373L38.5312 76.3359H38.5781C38.7773 76.0195 39.0566 75.7754 39.416 75.6035C39.7754 75.4277 40.1758 75.3398 40.6172 75.3398C41.3906 75.3398 41.9727 75.5273 42.3633 75.9023C42.7539 76.2734 42.9492 76.8691 42.9492 77.6895V81.8789H41.9766ZM47.0273 81.1934C47.1992 81.1934 47.3652 81.1816 47.5254 81.1582C47.6855 81.1309 47.8125 81.1035 47.9062 81.0762V81.8203C47.8008 81.8711 47.6445 81.9121 47.4375 81.9434C47.2344 81.9785 47.0508 81.9961 46.8867 81.9961C45.6445 81.9961 45.0234 81.3418 45.0234 80.0332V76.2129H44.1035V75.7441L45.0234 75.3398L45.4336 73.9688H45.9961V75.457H47.8594V76.2129H45.9961V79.9922C45.9961 80.3789 46.0879 80.6758 46.2715 80.8828C46.4551 81.0898 46.707 81.1934 47.0273 81.1934ZM50.168 81.8789H49.1953V75.457H50.168V81.8789ZM49.1133 73.7168C49.1133 73.4941 49.168 73.332 49.2773 73.2305C49.3867 73.125 49.5234 73.0723 49.6875 73.0723C49.8438 73.0723 49.9785 73.125 50.0918 73.2305C50.2051 73.3359 50.2617 73.498 50.2617 73.7168C50.2617 73.9355 50.2051 74.0996 50.0918 74.209C49.9785 74.3145 49.8438 74.3672 49.6875 74.3672C49.5234 74.3672 49.3867 74.3145 49.2773 74.209C49.168 74.0996 49.1133 73.9355 49.1133 73.7168ZM57.4863 75.457V76.0723L56.2969 76.2129C56.4062 76.3496 56.5039 76.5293 56.5898 76.752C56.6758 76.9707 56.7188 77.2188 56.7188 77.4961C56.7188 78.125 56.5039 78.627 56.0742 79.002C55.6445 79.377 55.0547 79.5645 54.3047 79.5645C54.1133 79.5645 53.9336 79.5488 53.7656 79.5176C53.3516 79.7363 53.1445 80.0117 53.1445 80.3438C53.1445 80.5195 53.2168 80.6504 53.3613 80.7363C53.5059 80.8184 53.7539 80.8594 54.1055 80.8594H55.2422C55.9375 80.8594 56.4707 81.0059 56.8418 81.2988C57.2168 81.5918 57.4043 82.0176 57.4043 82.5762C57.4043 83.2871 57.1191 83.8281 56.5488 84.1992C55.9785 84.5742 55.1465 84.7617 54.0527 84.7617C53.2129 84.7617 52.5645 84.6055 52.1074 84.293C51.6543 83.9805 51.4277 83.5391 51.4277 82.9688C51.4277 82.5781 51.5527 82.2402 51.8027 81.9551C52.0527 81.6699 52.4043 81.4766 52.8574 81.375C52.6934 81.3008 52.5547 81.1855 52.4414 81.0293C52.332 80.873 52.2773 80.6914 52.2773 80.4844C52.2773 80.25 52.3398 80.0449 52.4648 79.8691C52.5898 79.6934 52.7871 79.5234 53.0566 79.3594C52.7246 79.2227 52.4531 78.9902 52.2422 78.6621C52.0352 78.334 51.9316 77.959 51.9316 77.5371C51.9316 76.834 52.1426 76.293 52.5645 75.9141C52.9863 75.5312 53.584 75.3398 54.3574 75.3398C54.6934 75.3398 54.9961 75.3789 55.2656 75.457H57.4863ZM52.3652 82.957C52.3652 83.3047 52.5117 83.5684 52.8047 83.748C53.0977 83.9277 53.5176 84.0176 54.0645 84.0176C54.8809 84.0176 55.4844 83.8945 55.875 83.6484C56.2695 83.4062 56.4668 83.0762 56.4668 82.6582C56.4668 82.3105 56.3594 82.0684 56.1445 81.9316C55.9297 81.7988 55.5254 81.7324 54.9316 81.7324H53.7656C53.3242 81.7324 52.9805 81.8379 52.7344 82.0488C52.4883 82.2598 52.3652 82.5625 52.3652 82.957ZM52.8926 77.5137C52.8926 77.9629 53.0195 78.3027 53.2734 78.5332C53.5273 78.7637 53.8809 78.8789 54.334 78.8789C55.2832 78.8789 55.7578 78.418 55.7578 77.4961C55.7578 76.5312 55.2773 76.0488 54.3164 76.0488C53.8594 76.0488 53.5078 76.1719 53.2617 76.418C53.0156 76.6641 52.8926 77.0293 52.8926 77.5137ZM61.5176 81.9961C60.5684 81.9961 59.8184 81.707 59.2676 81.1289C58.7207 80.5508 58.4473 79.748 58.4473 78.7207C58.4473 77.6855 58.7012 76.8633 59.209 76.2539C59.7207 75.6445 60.4062 75.3398 61.2656 75.3398C62.0703 75.3398 62.707 75.6055 63.1758 76.1367C63.6445 76.6641 63.8789 77.3613 63.8789 78.2285V78.8438H59.4551C59.4746 79.5977 59.6641 80.1699 60.0234 80.5605C60.3867 80.9512 60.8965 81.1465 61.5527 81.1465C62.2441 81.1465 62.9277 81.002 63.6035 80.7129V81.5801C63.2598 81.7285 62.9336 81.834 62.625 81.8965C62.3203 81.9629 61.9512 81.9961 61.5176 81.9961ZM61.2539 76.1543C60.7383 76.1543 60.3262 76.3223 60.0176 76.6582C59.7129 76.9941 59.5332 77.459 59.4785 78.0527H62.8359C62.8359 77.4395 62.6992 76.9707 62.4258 76.6465C62.1523 76.3184 61.7617 76.1543 61.2539 76.1543ZM69.9375 81.8789V77.7246C69.9375 77.2012 69.8184 76.8105 69.5801 76.5527C69.3418 76.2949 68.9688 76.166 68.4609 76.166C67.7891 76.166 67.2969 76.3477 66.9844 76.7109C66.6719 77.0742 66.5156 77.6738 66.5156 78.5098V81.8789H65.543V75.457H66.334L66.4922 76.3359H66.5391C66.7383 76.0195 67.0176 75.7754 67.377 75.6035C67.7363 75.4277 68.1367 75.3398 68.5781 75.3398C69.3516 75.3398 69.9336 75.5273 70.3242 75.9023C70.7148 76.2734 70.9102 76.8691 70.9102 77.6895V81.8789H69.9375ZM1.17773 99.8789V91.3125H2.17383V99.8789H1.17773ZM8.77734 99.8789V95.7246C8.77734 95.2012 8.6582 94.8105 8.41992 94.5527C8.18164 94.2949 7.80859 94.166 7.30078 94.166C6.62891 94.166 6.13672 94.3477 5.82422 94.7109C5.51172 95.0742 5.35547 95.6738 5.35547 96.5098V99.8789H4.38281V93.457H5.17383L5.33203 94.3359H5.37891C5.57812 94.0195 5.85742 93.7754 6.2168 93.6035C6.57617 93.4277 6.97656 93.3398 7.41797 93.3398C8.19141 93.3398 8.77344 93.5273 9.16406 93.9023C9.55469 94.2734 9.75 94.8691 9.75 95.6895V99.8789H8.77734ZM16.125 99.0176H16.0723C15.623 99.6699 14.9512 99.9961 14.0566 99.9961C13.2168 99.9961 12.5625 99.709 12.0938 99.1348C11.6289 98.5605 11.3965 97.7441 11.3965 96.6855C11.3965 95.627 11.6309 94.8047 12.0996 94.2188C12.5684 93.6328 13.2207 93.3398 14.0566 93.3398C14.9277 93.3398 15.5957 93.6562 16.0605 94.2891H16.1367L16.0957 93.8262L16.0723 93.375V90.7617H17.0449V99.8789H16.2539L16.125 99.0176ZM14.1797 99.1816C14.8438 99.1816 15.3242 99.002 15.6211 98.6426C15.9219 98.2793 16.0723 97.6953 16.0723 96.8906V96.6855C16.0723 95.7754 15.9199 95.127 15.6152 94.7402C15.3145 94.3496 14.832 94.1543 14.168 94.1543C13.5977 94.1543 13.1602 94.377 12.8555 94.8223C12.5547 95.2637 12.4043 95.8887 12.4043 96.6973C12.4043 97.5176 12.5547 98.1367 12.8555 98.5547C13.1562 98.9727 13.5977 99.1816 14.1797 99.1816ZM20.0859 99.8789H19.1133V93.457H20.0859V99.8789ZM19.0312 91.7168C19.0312 91.4941 19.0859 91.332 19.1953 91.2305C19.3047 91.125 19.4414 91.0723 19.6055 91.0723C19.7617 91.0723 19.8965 91.125 20.0098 91.2305C20.123 91.3359 20.1797 91.498 20.1797 91.7168C20.1797 91.9355 20.123 92.0996 20.0098 92.209C19.8965 92.3145 19.7617 92.3672 19.6055 92.3672C19.4414 92.3672 19.3047 92.3145 19.1953 92.209C19.0859 92.0996 19.0312 91.9355 19.0312 91.7168ZM24.7148 99.9961C23.7852 99.9961 23.0645 99.7109 22.5527 99.1406C22.0449 98.5664 21.791 97.7559 21.791 96.709C21.791 95.6348 22.0488 94.8047 22.5645 94.2188C23.084 93.6328 23.8223 93.3398 24.7793 93.3398C25.0879 93.3398 25.3965 93.373 25.7051 93.4395C26.0137 93.5059 26.2559 93.584 26.4316 93.6738L26.1328 94.5C25.918 94.4141 25.6836 94.3438 25.4297 94.2891C25.1758 94.2305 24.9512 94.2012 24.7559 94.2012C23.4512 94.2012 22.7988 95.0332 22.7988 96.6973C22.7988 97.4863 22.957 98.0918 23.2734 98.5137C23.5938 98.9355 24.0664 99.1465 24.6914 99.1465C25.2266 99.1465 25.7754 99.0312 26.3379 98.8008V99.6621C25.9082 99.8848 25.3672 99.9961 24.7148 99.9961ZM31.8164 99.8789L31.623 98.9648H31.5762C31.2559 99.3672 30.9355 99.6406 30.6152 99.7852C30.2988 99.9258 29.9023 99.9961 29.4258 99.9961C28.7891 99.9961 28.2891 99.832 27.9258 99.5039C27.5664 99.1758 27.3867 98.709 27.3867 98.1035C27.3867 96.8066 28.4238 96.127 30.498 96.0645L31.5879 96.0293V95.6309C31.5879 95.127 31.4785 94.7559 31.2598 94.5176C31.0449 94.2754 30.6992 94.1543 30.2227 94.1543C29.6875 94.1543 29.082 94.3184 28.4062 94.6465L28.1074 93.9023C28.4238 93.7305 28.7695 93.5957 29.1445 93.498C29.5234 93.4004 29.9023 93.3516 30.2812 93.3516C31.0469 93.3516 31.6133 93.5215 31.9805 93.8613C32.3516 94.2012 32.5371 94.7461 32.5371 95.4961V99.8789H31.8164ZM29.6191 99.1934C30.2246 99.1934 30.6992 99.0273 31.043 98.6953C31.3906 98.3633 31.5645 97.8984 31.5645 97.3008V96.7207L30.5918 96.7617C29.8184 96.7891 29.2598 96.9102 28.916 97.125C28.5762 97.3359 28.4062 97.666 28.4062 98.1152C28.4062 98.4668 28.5117 98.7344 28.7227 98.918C28.9375 99.1016 29.2363 99.1934 29.6191 99.1934ZM36.6211 99.1934C36.793 99.1934 36.959 99.1816 37.1191 99.1582C37.2793 99.1309 37.4062 99.1035 37.5 99.0762V99.8203C37.3945 99.8711 37.2383 99.9121 37.0312 99.9434C36.8281 99.9785 36.6445 99.9961 36.4805 99.9961C35.2383 99.9961 34.6172 99.3418 34.6172 98.0332V94.2129H33.6973V93.7441L34.6172 93.3398L35.0273 91.9688H35.5898V93.457H37.4531V94.2129H35.5898V97.9922C35.5898 98.3789 35.6816 98.6758 35.8652 98.8828C36.0488 99.0898 36.3008 99.1934 36.6211 99.1934ZM44.332 96.6621C44.332 97.709 44.0684 98.5273 43.541 99.1172C43.0137 99.7031 42.2852 99.9961 41.3555 99.9961C40.7812 99.9961 40.2715 99.8613 39.8262 99.5918C39.3809 99.3223 39.0371 98.9355 38.7949 98.4316C38.5527 97.9277 38.4316 97.3379 38.4316 96.6621C38.4316 95.6152 38.6934 94.8008 39.2168 94.2188C39.7402 93.6328 40.4668 93.3398 41.3965 93.3398C42.2949 93.3398 43.0078 93.6387 43.5352 94.2363C44.0664 94.834 44.332 95.6426 44.332 96.6621ZM39.4395 96.6621C39.4395 97.4824 39.6035 98.1074 39.9316 98.5371C40.2598 98.9668 40.7422 99.1816 41.3789 99.1816C42.0156 99.1816 42.498 98.9688 42.8262 98.543C43.1582 98.1133 43.3242 97.4863 43.3242 96.6621C43.3242 95.8457 43.1582 95.2266 42.8262 94.8047C42.498 94.3789 42.0117 94.166 41.3672 94.166C40.7305 94.166 40.25 94.375 39.9258 94.793C39.6016 95.2109 39.4395 95.834 39.4395 96.6621ZM48.9727 93.3398C49.2578 93.3398 49.5137 93.3633 49.7402 93.4102L49.6055 94.3125C49.3398 94.2539 49.1055 94.2246 48.9023 94.2246C48.3828 94.2246 47.9375 94.4355 47.5664 94.8574C47.1992 95.2793 47.0156 95.8047 47.0156 96.4336V99.8789H46.043V93.457H46.8457L46.957 94.6465H47.0039C47.2422 94.2285 47.5293 93.9062 47.8652 93.6797C48.2012 93.4531 48.5703 93.3398 48.9727 93.3398Z" fill="#4C4D4E"/>
<line x1="101.899" y1="78.818" x2="80.3212" y2="78.818" stroke="#97999B" stroke-width="0.616519"/>
<path d="M187.178 84V75.4336H188.174V83.0977H191.953V84H187.178ZM198.809 80.7832C198.809 81.8301 198.545 82.6484 198.018 83.2383C197.49 83.8242 196.762 84.1172 195.832 84.1172C195.258 84.1172 194.748 83.9824 194.303 83.7129C193.857 83.4434 193.514 83.0566 193.271 82.5527C193.029 82.0488 192.908 81.459 192.908 80.7832C192.908 79.7363 193.17 78.9219 193.693 78.3398C194.217 77.7539 194.943 77.4609 195.873 77.4609C196.771 77.4609 197.484 77.7598 198.012 78.3574C198.543 78.9551 198.809 79.7637 198.809 80.7832ZM193.916 80.7832C193.916 81.6035 194.08 82.2285 194.408 82.6582C194.736 83.0879 195.219 83.3027 195.855 83.3027C196.492 83.3027 196.975 83.0898 197.303 82.6641C197.635 82.2344 197.801 81.6074 197.801 80.7832C197.801 79.9668 197.635 79.3477 197.303 78.9258C196.975 78.5 196.488 78.2871 195.844 78.2871C195.207 78.2871 194.727 78.4961 194.402 78.9141C194.078 79.332 193.916 79.9551 193.916 80.7832ZM205.764 84L204.586 80.2324C204.512 80.002 204.373 79.4785 204.17 78.6621H204.123C203.967 79.3457 203.83 79.873 203.713 80.2441L202.5 84H201.375L199.623 77.5781H200.643C201.057 79.1914 201.371 80.4199 201.586 81.2637C201.805 82.1074 201.93 82.6758 201.961 82.9688H202.008C202.051 82.7461 202.119 82.459 202.213 82.1074C202.311 81.752 202.395 81.4707 202.465 81.2637L203.643 77.5781H204.697L205.846 81.2637C206.064 81.9355 206.213 82.5 206.291 82.957H206.338C206.354 82.8164 206.395 82.5996 206.461 82.3066C206.531 82.0137 206.939 80.4375 207.686 77.5781H208.693L206.918 84H205.764ZM218.508 84L217.441 81.2754H214.008L212.953 84H211.945L215.332 75.3984H216.17L219.539 84H218.508ZM217.131 80.3789L216.135 77.7246C216.006 77.3887 215.873 76.9766 215.736 76.4883C215.65 76.8633 215.527 77.2754 215.367 77.7246L214.359 80.3789H217.131ZM224.965 84V79.8457C224.965 79.3223 224.846 78.9316 224.607 78.6738C224.369 78.416 223.996 78.2871 223.488 78.2871C222.816 78.2871 222.324 78.4688 222.012 78.832C221.699 79.1953 221.543 79.7949 221.543 80.6309V84H220.57V77.5781H221.361L221.52 78.457H221.566C221.766 78.1406 222.045 77.8965 222.404 77.7246C222.764 77.5488 223.164 77.4609 223.605 77.4609C224.379 77.4609 224.961 77.6484 225.352 78.0234C225.742 78.3945 225.938 78.9902 225.938 79.8105V84H224.965ZM230.016 83.3145C230.188 83.3145 230.354 83.3027 230.514 83.2793C230.674 83.252 230.801 83.2246 230.895 83.1973V83.9414C230.789 83.9922 230.633 84.0332 230.426 84.0645C230.223 84.0996 230.039 84.1172 229.875 84.1172C228.633 84.1172 228.012 83.4629 228.012 82.1543V78.334H227.092V77.8652L228.012 77.4609L228.422 76.0898H228.984V77.5781H230.848V78.334H228.984V82.1133C228.984 82.5 229.076 82.7969 229.26 83.0039C229.443 83.2109 229.695 83.3145 230.016 83.3145ZM233.156 84H232.184V77.5781H233.156V84ZM232.102 75.8379C232.102 75.6152 232.156 75.4531 232.266 75.3516C232.375 75.2461 232.512 75.1934 232.676 75.1934C232.832 75.1934 232.967 75.2461 233.08 75.3516C233.193 75.457 233.25 75.6191 233.25 75.8379C233.25 76.0566 233.193 76.2207 233.08 76.3301C232.967 76.4355 232.832 76.4883 232.676 76.4883C232.512 76.4883 232.375 76.4355 232.266 76.3301C232.156 76.2207 232.102 76.0566 232.102 75.8379ZM240.475 77.5781V78.1934L239.285 78.334C239.395 78.4707 239.492 78.6504 239.578 78.873C239.664 79.0918 239.707 79.3398 239.707 79.6172C239.707 80.2461 239.492 80.748 239.062 81.123C238.633 81.498 238.043 81.6855 237.293 81.6855C237.102 81.6855 236.922 81.6699 236.754 81.6387C236.34 81.8574 236.133 82.1328 236.133 82.4648C236.133 82.6406 236.205 82.7715 236.35 82.8574C236.494 82.9395 236.742 82.9805 237.094 82.9805H238.23C238.926 82.9805 239.459 83.127 239.83 83.4199C240.205 83.7129 240.393 84.1387 240.393 84.6973C240.393 85.4082 240.107 85.9492 239.537 86.3203C238.967 86.6953 238.135 86.8828 237.041 86.8828C236.201 86.8828 235.553 86.7266 235.096 86.4141C234.643 86.1016 234.416 85.6602 234.416 85.0898C234.416 84.6992 234.541 84.3613 234.791 84.0762C235.041 83.791 235.393 83.5977 235.846 83.4961C235.682 83.4219 235.543 83.3066 235.43 83.1504C235.32 82.9941 235.266 82.8125 235.266 82.6055C235.266 82.3711 235.328 82.166 235.453 81.9902C235.578 81.8145 235.775 81.6445 236.045 81.4805C235.713 81.3438 235.441 81.1113 235.23 80.7832C235.023 80.4551 234.92 80.0801 234.92 79.6582C234.92 78.9551 235.131 78.4141 235.553 78.0352C235.975 77.6523 236.572 77.4609 237.346 77.4609C237.682 77.4609 237.984 77.5 238.254 77.5781H240.475ZM235.354 85.0781C235.354 85.4258 235.5 85.6895 235.793 85.8691C236.086 86.0488 236.506 86.1387 237.053 86.1387C237.869 86.1387 238.473 86.0156 238.863 85.7695C239.258 85.5273 239.455 85.1973 239.455 84.7793C239.455 84.4316 239.348 84.1895 239.133 84.0527C238.918 83.9199 238.514 83.8535 237.92 83.8535H236.754C236.312 83.8535 235.969 83.959 235.723 84.1699C235.477 84.3809 235.354 84.6836 235.354 85.0781ZM235.881 79.6348C235.881 80.084 236.008 80.4238 236.262 80.6543C236.516 80.8848 236.869 81 237.322 81C238.271 81 238.746 80.5391 238.746 79.6172C238.746 78.6523 238.266 78.1699 237.305 78.1699C236.848 78.1699 236.496 78.293 236.25 78.5391C236.004 78.7852 235.881 79.1504 235.881 79.6348ZM244.506 84.1172C243.557 84.1172 242.807 83.8281 242.256 83.25C241.709 82.6719 241.436 81.8691 241.436 80.8418C241.436 79.8066 241.689 78.9844 242.197 78.375C242.709 77.7656 243.395 77.4609 244.254 77.4609C245.059 77.4609 245.695 77.7266 246.164 78.2578C246.633 78.7852 246.867 79.4824 246.867 80.3496V80.9648H242.443C242.463 81.7188 242.652 82.291 243.012 82.6816C243.375 83.0723 243.885 83.2676 244.541 83.2676C245.232 83.2676 245.916 83.123 246.592 82.834V83.7012C246.248 83.8496 245.922 83.9551 245.613 84.0176C245.309 84.084 244.939 84.1172 244.506 84.1172ZM244.242 78.2754C243.727 78.2754 243.314 78.4434 243.006 78.7793C242.701 79.1152 242.521 79.5801 242.467 80.1738H245.824C245.824 79.5605 245.688 79.0918 245.414 78.7676C245.141 78.4395 244.75 78.2754 244.242 78.2754ZM252.926 84V79.8457C252.926 79.3223 252.807 78.9316 252.568 78.6738C252.33 78.416 251.957 78.2871 251.449 78.2871C250.777 78.2871 250.285 78.4688 249.973 78.832C249.66 79.1953 249.504 79.7949 249.504 80.6309V84H248.531V77.5781H249.322L249.48 78.457H249.527C249.727 78.1406 250.006 77.8965 250.365 77.7246C250.725 77.5488 251.125 77.4609 251.566 77.4609C252.34 77.4609 252.922 77.6484 253.312 78.0234C253.703 78.3945 253.898 78.9902 253.898 79.8105V84H252.926ZM187.178 102V93.4336H188.174V102H187.178ZM194.777 102V97.8457C194.777 97.3223 194.658 96.9316 194.42 96.6738C194.182 96.416 193.809 96.2871 193.301 96.2871C192.629 96.2871 192.137 96.4688 191.824 96.832C191.512 97.1953 191.355 97.7949 191.355 98.6309V102H190.383V95.5781H191.174L191.332 96.457H191.379C191.578 96.1406 191.857 95.8965 192.217 95.7246C192.576 95.5488 192.977 95.4609 193.418 95.4609C194.191 95.4609 194.773 95.6484 195.164 96.0234C195.555 96.3945 195.75 96.9902 195.75 97.8105V102H194.777ZM202.125 101.139H202.072C201.623 101.791 200.951 102.117 200.057 102.117C199.217 102.117 198.562 101.83 198.094 101.256C197.629 100.682 197.396 99.8652 197.396 98.8066C197.396 97.748 197.631 96.9258 198.1 96.3398C198.568 95.7539 199.221 95.4609 200.057 95.4609C200.928 95.4609 201.596 95.7773 202.061 96.4102H202.137L202.096 95.9473L202.072 95.4961V92.8828H203.045V102H202.254L202.125 101.139ZM200.18 101.303C200.844 101.303 201.324 101.123 201.621 100.764C201.922 100.4 202.072 99.8164 202.072 99.0117V98.8066C202.072 97.8965 201.92 97.248 201.615 96.8613C201.314 96.4707 200.832 96.2754 200.168 96.2754C199.598 96.2754 199.16 96.498 198.855 96.9434C198.555 97.3848 198.404 98.0098 198.404 98.8184C198.404 99.6387 198.555 100.258 198.855 100.676C199.156 101.094 199.598 101.303 200.18 101.303ZM206.086 102H205.113V95.5781H206.086V102ZM205.031 93.8379C205.031 93.6152 205.086 93.4531 205.195 93.3516C205.305 93.2461 205.441 93.1934 205.605 93.1934C205.762 93.1934 205.896 93.2461 206.01 93.3516C206.123 93.457 206.18 93.6191 206.18 93.8379C206.18 94.0566 206.123 94.2207 206.01 94.3301C205.896 94.4355 205.762 94.4883 205.605 94.4883C205.441 94.4883 205.305 94.4355 205.195 94.3301C205.086 94.2207 205.031 94.0566 205.031 93.8379ZM210.715 102.117C209.785 102.117 209.064 101.832 208.553 101.262C208.045 100.688 207.791 99.877 207.791 98.8301C207.791 97.7559 208.049 96.9258 208.564 96.3398C209.084 95.7539 209.822 95.4609 210.779 95.4609C211.088 95.4609 211.396 95.4941 211.705 95.5605C212.014 95.627 212.256 95.7051 212.432 95.7949L212.133 96.6211C211.918 96.5352 211.684 96.4648 211.43 96.4102C211.176 96.3516 210.951 96.3223 210.756 96.3223C209.451 96.3223 208.799 97.1543 208.799 98.8184C208.799 99.6074 208.957 100.213 209.273 100.635C209.594 101.057 210.066 101.268 210.691 101.268C211.227 101.268 211.775 101.152 212.338 100.922V101.783C211.908 102.006 211.367 102.117 210.715 102.117ZM217.816 102L217.623 101.086H217.576C217.256 101.488 216.936 101.762 216.615 101.906C216.299 102.047 215.902 102.117 215.426 102.117C214.789 102.117 214.289 101.953 213.926 101.625C213.566 101.297 213.387 100.83 213.387 100.225C213.387 98.9277 214.424 98.248 216.498 98.1855L217.588 98.1504V97.752C217.588 97.248 217.479 96.877 217.26 96.6387C217.045 96.3965 216.699 96.2754 216.223 96.2754C215.688 96.2754 215.082 96.4395 214.406 96.7676L214.107 96.0234C214.424 95.8516 214.77 95.7168 215.145 95.6191C215.523 95.5215 215.902 95.4727 216.281 95.4727C217.047 95.4727 217.613 95.6426 217.98 95.9824C218.352 96.3223 218.537 96.8672 218.537 97.6172V102H217.816ZM215.619 101.314C216.225 101.314 216.699 101.148 217.043 100.816C217.391 100.484 217.564 100.02 217.564 99.4219V98.8418L216.592 98.8828C215.818 98.9102 215.26 99.0312 214.916 99.2461C214.576 99.457 214.406 99.7871 214.406 100.236C214.406 100.588 214.512 100.855 214.723 101.039C214.938 101.223 215.236 101.314 215.619 101.314ZM222.621 101.314C222.793 101.314 222.959 101.303 223.119 101.279C223.279 101.252 223.406 101.225 223.5 101.197V101.941C223.395 101.992 223.238 102.033 223.031 102.064C222.828 102.1 222.645 102.117 222.48 102.117C221.238 102.117 220.617 101.463 220.617 100.154V96.334H219.697V95.8652L220.617 95.4609L221.027 94.0898H221.59V95.5781H223.453V96.334H221.59V100.113C221.59 100.5 221.682 100.797 221.865 101.004C222.049 101.211 222.301 101.314 222.621 101.314ZM230.332 98.7832C230.332 99.8301 230.068 100.648 229.541 101.238C229.014 101.824 228.285 102.117 227.355 102.117C226.781 102.117 226.271 101.982 225.826 101.713C225.381 101.443 225.037 101.057 224.795 100.553C224.553 100.049 224.432 99.459 224.432 98.7832C224.432 97.7363 224.693 96.9219 225.217 96.3398C225.74 95.7539 226.467 95.4609 227.396 95.4609C228.295 95.4609 229.008 95.7598 229.535 96.3574C230.066 96.9551 230.332 97.7637 230.332 98.7832ZM225.439 98.7832C225.439 99.6035 225.604 100.229 225.932 100.658C226.26 101.088 226.742 101.303 227.379 101.303C228.016 101.303 228.498 101.09 228.826 100.664C229.158 100.234 229.324 99.6074 229.324 98.7832C229.324 97.9668 229.158 97.3477 228.826 96.9258C228.498 96.5 228.012 96.2871 227.367 96.2871C226.73 96.2871 226.25 96.4961 225.926 96.9141C225.602 97.332 225.439 97.9551 225.439 98.7832ZM234.973 95.4609C235.258 95.4609 235.514 95.4844 235.74 95.5312L235.605 96.4336C235.34 96.375 235.105 96.3457 234.902 96.3457C234.383 96.3457 233.938 96.5566 233.566 96.9785C233.199 97.4004 233.016 97.9258 233.016 98.5547V102H232.043V95.5781H232.846L232.957 96.7676H233.004C233.242 96.3496 233.529 96.0273 233.865 95.8008C234.201 95.5742 234.57 95.4609 234.973 95.4609Z" fill="#4C4D4E"/>
<line x1="180.197" y1="78.818" x2="158.619" y2="78.818" stroke="#97999B" stroke-width="0.616519"/>
<path d="M84.6094 7.92969C84.6094 8.79688 84.3125 9.46484 83.7188 9.93359C83.1289 10.3984 82.2832 10.6309 81.1816 10.6309H80.1738V14H79.1777V5.43359H81.3984C83.5391 5.43359 84.6094 6.26562 84.6094 7.92969ZM80.1738 9.77539H81.0703C81.9531 9.77539 82.5918 9.63281 82.9863 9.34766C83.3809 9.0625 83.5781 8.60547 83.5781 7.97656C83.5781 7.41016 83.3926 6.98828 83.0215 6.71094C82.6504 6.43359 82.0723 6.29492 81.2871 6.29492H80.1738V9.77539ZM91.8047 10.7832C91.8047 11.8301 91.541 12.6484 91.0137 13.2383C90.4863 13.8242 89.7578 14.1172 88.8281 14.1172C88.2539 14.1172 87.7441 13.9824 87.2988 13.7129C86.8535 13.4434 86.5098 13.0566 86.2676 12.5527C86.0254 12.0488 85.9043 11.459 85.9043 10.7832C85.9043 9.73633 86.166 8.92188 86.6895 8.33984C87.2129 7.75391 87.9395 7.46094 88.8691 7.46094C89.7676 7.46094 90.4805 7.75977 91.0078 8.35742C91.5391 8.95508 91.8047 9.76367 91.8047 10.7832ZM86.9121 10.7832C86.9121 11.6035 87.0762 12.2285 87.4043 12.6582C87.7324 13.0879 88.2148 13.3027 88.8516 13.3027C89.4883 13.3027 89.9707 13.0898 90.2988 12.6641C90.6309 12.2344 90.7969 11.6074 90.7969 10.7832C90.7969 9.9668 90.6309 9.34766 90.2988 8.92578C89.9707 8.5 89.4844 8.28711 88.8398 8.28711C88.2031 8.28711 87.7227 8.49609 87.3984 8.91406C87.0742 9.33203 86.9121 9.95508 86.9121 10.7832ZM97.6582 12.248C97.6582 12.8457 97.4355 13.3066 96.9902 13.6309C96.5449 13.9551 95.9199 14.1172 95.1152 14.1172C94.2637 14.1172 93.5996 13.9824 93.123 13.7129V12.8105C93.4316 12.9668 93.7617 13.0898 94.1133 13.1797C94.4688 13.2695 94.8105 13.3145 95.1387 13.3145C95.6465 13.3145 96.0371 13.2344 96.3105 13.0742C96.584 12.9102 96.7207 12.6621 96.7207 12.3301C96.7207 12.0801 96.6113 11.8672 96.3926 11.6914C96.1777 11.5117 95.7559 11.3008 95.127 11.0586C94.5293 10.8359 94.1035 10.6426 93.8496 10.4785C93.5996 10.3105 93.4121 10.1211 93.2871 9.91016C93.166 9.69922 93.1055 9.44727 93.1055 9.1543C93.1055 8.63086 93.3184 8.21875 93.7441 7.91797C94.1699 7.61328 94.7539 7.46094 95.4961 7.46094C96.1875 7.46094 96.8633 7.60156 97.5234 7.88281L97.1777 8.67383C96.5332 8.4082 95.9492 8.27539 95.4258 8.27539C94.9648 8.27539 94.6172 8.34766 94.3828 8.49219C94.1484 8.63672 94.0312 8.83594 94.0312 9.08984C94.0312 9.26172 94.0742 9.4082 94.1602 9.5293C94.25 9.65039 94.3926 9.76562 94.5879 9.875C94.7832 9.98438 95.1582 10.1426 95.7129 10.3496C96.4746 10.627 96.9883 10.9062 97.2539 11.1875C97.5234 11.4688 97.6582 11.8223 97.6582 12.248ZM100.219 14H99.2461V7.57812H100.219V14ZM99.1641 5.83789C99.1641 5.61523 99.2188 5.45312 99.3281 5.35156C99.4375 5.24609 99.5742 5.19336 99.7383 5.19336C99.8945 5.19336 100.029 5.24609 100.143 5.35156C100.256 5.45703 100.312 5.61914 100.312 5.83789C100.312 6.05664 100.256 6.2207 100.143 6.33008C100.029 6.43555 99.8945 6.48828 99.7383 6.48828C99.5742 6.48828 99.4375 6.43555 99.3281 6.33008C99.2188 6.2207 99.1641 6.05664 99.1641 5.83789ZM104.355 13.3145C104.527 13.3145 104.693 13.3027 104.854 13.2793C105.014 13.252 105.141 13.2246 105.234 13.1973V13.9414C105.129 13.9922 104.973 14.0332 104.766 14.0645C104.562 14.0996 104.379 14.1172 104.215 14.1172C102.973 14.1172 102.352 13.4629 102.352 12.1543V8.33398H101.432V7.86523L102.352 7.46094L102.762 6.08984H103.324V7.57812H105.188V8.33398H103.324V12.1133C103.324 12.5 103.416 12.7969 103.6 13.0039C103.783 13.2109 104.035 13.3145 104.355 13.3145ZM107.496 14H106.523V7.57812H107.496V14ZM106.441 5.83789C106.441 5.61523 106.496 5.45312 106.605 5.35156C106.715 5.24609 106.852 5.19336 107.016 5.19336C107.172 5.19336 107.307 5.24609 107.42 5.35156C107.533 5.45703 107.59 5.61914 107.59 5.83789C107.59 6.05664 107.533 6.2207 107.42 6.33008C107.307 6.43555 107.172 6.48828 107.016 6.48828C106.852 6.48828 106.715 6.43555 106.605 6.33008C106.496 6.2207 106.441 6.05664 106.441 5.83789ZM110.965 14L108.527 7.57812H109.57L110.953 11.3867C111.266 12.2773 111.449 12.8555 111.504 13.1211H111.551C111.594 12.9141 111.729 12.4863 111.955 11.8379C112.186 11.1855 112.699 9.76562 113.496 7.57812H114.539L112.102 14H110.965ZM118.283 14.1172C117.334 14.1172 116.584 13.8281 116.033 13.25C115.486 12.6719 115.213 11.8691 115.213 10.8418C115.213 9.80664 115.467 8.98438 115.975 8.375C116.486 7.76562 117.172 7.46094 118.031 7.46094C118.836 7.46094 119.473 7.72656 119.941 8.25781C120.41 8.78516 120.645 9.48242 120.645 10.3496V10.9648H116.221C116.24 11.7188 116.43 12.291 116.789 12.6816C117.152 13.0723 117.662 13.2676 118.318 13.2676C119.01 13.2676 119.693 13.123 120.369 12.834V13.7012C120.025 13.8496 119.699 13.9551 119.391 14.0176C119.086 14.084 118.717 14.1172 118.283 14.1172ZM118.02 8.27539C117.504 8.27539 117.092 8.44336 116.783 8.7793C116.479 9.11523 116.299 9.58008 116.244 10.1738H119.602C119.602 9.56055 119.465 9.0918 119.191 8.76758C118.918 8.43945 118.527 8.27539 118.02 8.27539ZM129.24 6.20117C128.299 6.20117 127.555 6.51562 127.008 7.14453C126.465 7.76953 126.193 8.62695 126.193 9.7168C126.193 10.8379 126.455 11.7051 126.979 12.3184C127.506 12.9277 128.256 13.2324 129.229 13.2324C129.826 13.2324 130.508 13.125 131.273 12.9102V13.7832C130.68 14.0059 129.947 14.1172 129.076 14.1172C127.814 14.1172 126.84 13.7344 126.152 12.9688C125.469 12.2031 125.127 11.1152 125.127 9.70508C125.127 8.82227 125.291 8.04883 125.619 7.38477C125.951 6.7207 126.428 6.20898 127.049 5.84961C127.674 5.49023 128.408 5.31055 129.252 5.31055C130.15 5.31055 130.936 5.47461 131.607 5.80273L131.186 6.6582C130.537 6.35352 129.889 6.20117 129.24 6.20117ZM138.539 10.7832C138.539 11.8301 138.275 12.6484 137.748 13.2383C137.221 13.8242 136.492 14.1172 135.562 14.1172C134.988 14.1172 134.479 13.9824 134.033 13.7129C133.588 13.4434 133.244 13.0566 133.002 12.5527C132.76 12.0488 132.639 11.459 132.639 10.7832C132.639 9.73633 132.9 8.92188 133.424 8.33984C133.947 7.75391 134.674 7.46094 135.604 7.46094C136.502 7.46094 137.215 7.75977 137.742 8.35742C138.273 8.95508 138.539 9.76367 138.539 10.7832ZM133.646 10.7832C133.646 11.6035 133.811 12.2285 134.139 12.6582C134.467 13.0879 134.949 13.3027 135.586 13.3027C136.223 13.3027 136.705 13.0898 137.033 12.6641C137.365 12.2344 137.531 11.6074 137.531 10.7832C137.531 9.9668 137.365 9.34766 137.033 8.92578C136.705 8.5 136.219 8.28711 135.574 8.28711C134.938 8.28711 134.457 8.49609 134.133 8.91406C133.809 9.33203 133.646 9.95508 133.646 10.7832ZM144.645 14V9.8457C144.645 9.32227 144.525 8.93164 144.287 8.67383C144.049 8.41602 143.676 8.28711 143.168 8.28711C142.496 8.28711 142.004 8.46875 141.691 8.83203C141.379 9.19531 141.223 9.79492 141.223 10.6309V14H140.25V7.57812H141.041L141.199 8.45703H141.246C141.445 8.14062 141.725 7.89648 142.084 7.72461C142.443 7.54883 142.844 7.46094 143.285 7.46094C144.059 7.46094 144.641 7.64844 145.031 8.02344C145.422 8.39453 145.617 8.99023 145.617 9.81055V14H144.645ZM149.695 13.3145C149.867 13.3145 150.033 13.3027 150.193 13.2793C150.354 13.252 150.48 13.2246 150.574 13.1973V13.9414C150.469 13.9922 150.312 14.0332 150.105 14.0645C149.902 14.0996 149.719 14.1172 149.555 14.1172C148.312 14.1172 147.691 13.4629 147.691 12.1543V8.33398H146.771V7.86523L147.691 7.46094L148.102 6.08984H148.664V7.57812H150.527V8.33398H148.664V12.1133C148.664 12.5 148.756 12.7969 148.939 13.0039C149.123 13.2109 149.375 13.3145 149.695 13.3145ZM154.793 7.46094C155.078 7.46094 155.334 7.48438 155.561 7.53125L155.426 8.43359C155.16 8.375 154.926 8.3457 154.723 8.3457C154.203 8.3457 153.758 8.55664 153.387 8.97852C153.02 9.40039 152.836 9.92578 152.836 10.5547V14H151.863V7.57812H152.666L152.777 8.76758H152.824C153.062 8.34961 153.35 8.02734 153.686 7.80078C154.021 7.57422 154.391 7.46094 154.793 7.46094ZM162.305 10.7832C162.305 11.8301 162.041 12.6484 161.514 13.2383C160.986 13.8242 160.258 14.1172 159.328 14.1172C158.754 14.1172 158.244 13.9824 157.799 13.7129C157.354 13.4434 157.01 13.0566 156.768 12.5527C156.525 12.0488 156.404 11.459 156.404 10.7832C156.404 9.73633 156.666 8.92188 157.189 8.33984C157.713 7.75391 158.439 7.46094 159.369 7.46094C160.268 7.46094 160.98 7.75977 161.508 8.35742C162.039 8.95508 162.305 9.76367 162.305 10.7832ZM157.412 10.7832C157.412 11.6035 157.576 12.2285 157.904 12.6582C158.232 13.0879 158.715 13.3027 159.352 13.3027C159.988 13.3027 160.471 13.0898 160.799 12.6641C161.131 12.2344 161.297 11.6074 161.297 10.7832C161.297 9.9668 161.131 9.34766 160.799 8.92578C160.471 8.5 159.984 8.28711 159.34 8.28711C158.703 8.28711 158.223 8.49609 157.898 8.91406C157.574 9.33203 157.412 9.95508 157.412 10.7832ZM164.988 14H164.016V4.88281H164.988V14Z" fill="#4C4D4E"/>
<path d="M91.9648 164H90.8281L86.1465 156.811H86.0996C86.1621 157.654 86.1934 158.428 86.1934 159.131V164H85.2734V155.434H86.3984L91.0684 162.594H91.1152C91.1074 162.488 91.0898 162.15 91.0625 161.58C91.0352 161.006 91.0254 160.596 91.0332 160.35V155.434H91.9648V164ZM96.8867 164.117C95.9375 164.117 95.1875 163.828 94.6367 163.25C94.0898 162.672 93.8164 161.869 93.8164 160.842C93.8164 159.807 94.0703 158.984 94.5781 158.375C95.0898 157.766 95.7754 157.461 96.6348 157.461C97.4395 157.461 98.0762 157.727 98.5449 158.258C99.0137 158.785 99.248 159.482 99.248 160.35V160.965H94.8242C94.8438 161.719 95.0332 162.291 95.3926 162.682C95.7559 163.072 96.2656 163.268 96.9219 163.268C97.6133 163.268 98.2969 163.123 98.9727 162.834V163.701C98.6289 163.85 98.3027 163.955 97.9941 164.018C97.6895 164.084 97.3203 164.117 96.8867 164.117ZM96.623 158.275C96.1074 158.275 95.6953 158.443 95.3867 158.779C95.082 159.115 94.9023 159.58 94.8477 160.174H98.2051C98.2051 159.561 98.0684 159.092 97.7949 158.768C97.5215 158.439 97.1309 158.275 96.623 158.275ZM106.168 157.578V158.193L104.979 158.334C105.088 158.471 105.186 158.65 105.271 158.873C105.357 159.092 105.4 159.34 105.4 159.617C105.4 160.246 105.186 160.748 104.756 161.123C104.326 161.498 103.736 161.686 102.986 161.686C102.795 161.686 102.615 161.67 102.447 161.639C102.033 161.857 101.826 162.133 101.826 162.465C101.826 162.641 101.898 162.771 102.043 162.857C102.188 162.939 102.436 162.98 102.787 162.98H103.924C104.619 162.98 105.152 163.127 105.523 163.42C105.898 163.713 106.086 164.139 106.086 164.697C106.086 165.408 105.801 165.949 105.23 166.32C104.66 166.695 103.828 166.883 102.734 166.883C101.895 166.883 101.246 166.727 100.789 166.414C100.336 166.102 100.109 165.66 100.109 165.09C100.109 164.699 100.234 164.361 100.484 164.076C100.734 163.791 101.086 163.598 101.539 163.496C101.375 163.422 101.236 163.307 101.123 163.15C101.014 162.994 100.959 162.812 100.959 162.605C100.959 162.371 101.021 162.166 101.146 161.99C101.271 161.814 101.469 161.645 101.738 161.48C101.406 161.344 101.135 161.111 100.924 160.783C100.717 160.455 100.613 160.08 100.613 159.658C100.613 158.955 100.824 158.414 101.246 158.035C101.668 157.652 102.266 157.461 103.039 157.461C103.375 157.461 103.678 157.5 103.947 157.578H106.168ZM101.047 165.078C101.047 165.426 101.193 165.689 101.486 165.869C101.779 166.049 102.199 166.139 102.746 166.139C103.562 166.139 104.166 166.016 104.557 165.77C104.951 165.527 105.148 165.197 105.148 164.779C105.148 164.432 105.041 164.189 104.826 164.053C104.611 163.92 104.207 163.854 103.613 163.854H102.447C102.006 163.854 101.662 163.959 101.416 164.17C101.17 164.381 101.047 164.684 101.047 165.078ZM101.574 159.635C101.574 160.084 101.701 160.424 101.955 160.654C102.209 160.885 102.562 161 103.016 161C103.965 161 104.439 160.539 104.439 159.617C104.439 158.652 103.959 158.17 102.998 158.17C102.541 158.17 102.189 158.293 101.943 158.539C101.697 158.785 101.574 159.15 101.574 159.635ZM111.436 164L111.242 163.086H111.195C110.875 163.488 110.555 163.762 110.234 163.906C109.918 164.047 109.521 164.117 109.045 164.117C108.408 164.117 107.908 163.953 107.545 163.625C107.186 163.297 107.006 162.83 107.006 162.225C107.006 160.928 108.043 160.248 110.117 160.186L111.207 160.15V159.752C111.207 159.248 111.098 158.877 110.879 158.639C110.664 158.396 110.318 158.275 109.842 158.275C109.307 158.275 108.701 158.439 108.025 158.768L107.727 158.023C108.043 157.852 108.389 157.717 108.764 157.619C109.143 157.521 109.521 157.473 109.9 157.473C110.666 157.473 111.232 157.643 111.6 157.982C111.971 158.322 112.156 158.867 112.156 159.617V164H111.436ZM109.238 163.314C109.844 163.314 110.318 163.148 110.662 162.816C111.01 162.484 111.184 162.02 111.184 161.422V160.842L110.211 160.883C109.438 160.91 108.879 161.031 108.535 161.246C108.195 161.457 108.025 161.787 108.025 162.236C108.025 162.588 108.131 162.855 108.342 163.039C108.557 163.223 108.855 163.314 109.238 163.314ZM116.24 163.314C116.412 163.314 116.578 163.303 116.738 163.279C116.898 163.252 117.025 163.225 117.119 163.197V163.941C117.014 163.992 116.857 164.033 116.65 164.064C116.447 164.1 116.264 164.117 116.1 164.117C114.857 164.117 114.236 163.463 114.236 162.154V158.334H113.316V157.865L114.236 157.461L114.646 156.09H115.209V157.578H117.072V158.334H115.209V162.113C115.209 162.5 115.301 162.797 115.484 163.004C115.668 163.211 115.92 163.314 116.24 163.314ZM119.381 164H118.408V157.578H119.381V164ZM118.326 155.838C118.326 155.615 118.381 155.453 118.49 155.352C118.6 155.246 118.736 155.193 118.9 155.193C119.057 155.193 119.191 155.246 119.305 155.352C119.418 155.457 119.475 155.619 119.475 155.838C119.475 156.057 119.418 156.221 119.305 156.33C119.191 156.436 119.057 156.488 118.9 156.488C118.736 156.488 118.6 156.436 118.49 156.33C118.381 156.221 118.326 156.057 118.326 155.838ZM122.85 164L120.412 157.578H121.455L122.838 161.387C123.15 162.277 123.334 162.855 123.389 163.121H123.436C123.479 162.914 123.613 162.486 123.84 161.838C124.07 161.186 124.584 159.766 125.381 157.578H126.424L123.986 164H122.85ZM130.168 164.117C129.219 164.117 128.469 163.828 127.918 163.25C127.371 162.672 127.098 161.869 127.098 160.842C127.098 159.807 127.352 158.984 127.859 158.375C128.371 157.766 129.057 157.461 129.916 157.461C130.721 157.461 131.357 157.727 131.826 158.258C132.295 158.785 132.529 159.482 132.529 160.35V160.965H128.105C128.125 161.719 128.314 162.291 128.674 162.682C129.037 163.072 129.547 163.268 130.203 163.268C130.895 163.268 131.578 163.123 132.254 162.834V163.701C131.91 163.85 131.584 163.955 131.275 164.018C130.971 164.084 130.602 164.117 130.168 164.117ZM129.904 158.275C129.389 158.275 128.977 158.443 128.668 158.779C128.363 159.115 128.184 159.58 128.129 160.174H131.486C131.486 159.561 131.35 159.092 131.076 158.768C130.803 158.439 130.412 158.275 129.904 158.275ZM141.125 156.201C140.184 156.201 139.439 156.516 138.893 157.145C138.35 157.77 138.078 158.627 138.078 159.717C138.078 160.838 138.34 161.705 138.863 162.318C139.391 162.928 140.141 163.232 141.113 163.232C141.711 163.232 142.393 163.125 143.158 162.91V163.783C142.564 164.006 141.832 164.117 140.961 164.117C139.699 164.117 138.725 163.734 138.037 162.969C137.354 162.203 137.012 161.115 137.012 159.705C137.012 158.822 137.176 158.049 137.504 157.385C137.836 156.721 138.312 156.209 138.934 155.85C139.559 155.49 140.293 155.311 141.137 155.311C142.035 155.311 142.82 155.475 143.492 155.803L143.07 156.658C142.422 156.354 141.773 156.201 141.125 156.201ZM150.424 160.783C150.424 161.83 150.16 162.648 149.633 163.238C149.105 163.824 148.377 164.117 147.447 164.117C146.873 164.117 146.363 163.982 145.918 163.713C145.473 163.443 145.129 163.057 144.887 162.553C144.645 162.049 144.523 161.459 144.523 160.783C144.523 159.736 144.785 158.922 145.309 158.34C145.832 157.754 146.559 157.461 147.488 157.461C148.387 157.461 149.1 157.76 149.627 158.357C150.158 158.955 150.424 159.764 150.424 160.783ZM145.531 160.783C145.531 161.604 145.695 162.229 146.023 162.658C146.352 163.088 146.834 163.303 147.471 163.303C148.107 163.303 148.59 163.09 148.918 162.664C149.25 162.234 149.416 161.607 149.416 160.783C149.416 159.967 149.25 159.348 148.918 158.926C148.59 158.5 148.104 158.287 147.459 158.287C146.822 158.287 146.342 158.496 146.018 158.914C145.693 159.332 145.531 159.955 145.531 160.783ZM156.529 164V159.846C156.529 159.322 156.41 158.932 156.172 158.674C155.934 158.416 155.561 158.287 155.053 158.287C154.381 158.287 153.889 158.469 153.576 158.832C153.264 159.195 153.107 159.795 153.107 160.631V164H152.135V157.578H152.926L153.084 158.457H153.131C153.33 158.141 153.609 157.896 153.969 157.725C154.328 157.549 154.729 157.461 155.17 157.461C155.943 157.461 156.525 157.648 156.916 158.023C157.307 158.395 157.502 158.99 157.502 159.811V164H156.529ZM161.58 163.314C161.752 163.314 161.918 163.303 162.078 163.279C162.238 163.252 162.365 163.225 162.459 163.197V163.941C162.354 163.992 162.197 164.033 161.99 164.064C161.787 164.1 161.604 164.117 161.439 164.117C160.197 164.117 159.576 163.463 159.576 162.154V158.334H158.656V157.865L159.576 157.461L159.986 156.09H160.549V157.578H162.412V158.334H160.549V162.113C160.549 162.5 160.641 162.797 160.824 163.004C161.008 163.211 161.26 163.314 161.58 163.314ZM166.678 157.461C166.963 157.461 167.219 157.484 167.445 157.531L167.311 158.434C167.045 158.375 166.811 158.346 166.607 158.346C166.088 158.346 165.643 158.557 165.271 158.979C164.904 159.4 164.721 159.926 164.721 160.555V164H163.748V157.578H164.551L164.662 158.768H164.709C164.947 158.35 165.234 158.027 165.57 157.801C165.906 157.574 166.275 157.461 166.678 157.461ZM174.189 160.783C174.189 161.83 173.926 162.648 173.398 163.238C172.871 163.824 172.143 164.117 171.213 164.117C170.639 164.117 170.129 163.982 169.684 163.713C169.238 163.443 168.895 163.057 168.652 162.553C168.41 162.049 168.289 161.459 168.289 160.783C168.289 159.736 168.551 158.922 169.074 158.34C169.598 157.754 170.324 157.461 171.254 157.461C172.152 157.461 172.865 157.76 173.393 158.357C173.924 158.955 174.189 159.764 174.189 160.783ZM169.297 160.783C169.297 161.604 169.461 162.229 169.789 162.658C170.117 163.088 170.6 163.303 171.236 163.303C171.873 163.303 172.355 163.09 172.684 162.664C173.016 162.234 173.182 161.607 173.182 160.783C173.182 159.967 173.016 159.348 172.684 158.926C172.355 158.5 171.869 158.287 171.225 158.287C170.588 158.287 170.107 158.496 169.783 158.914C169.459 159.332 169.297 159.955 169.297 160.783ZM176.873 164H175.9V154.883H176.873V164Z" fill="#4C4D4E"/>
<line x1="130.692" y1="39.2988" x2="130.692" y2="17.7207" stroke="#97999B" stroke-width="0.616519"/>
<line x1="130.692" y1="146.299" x2="130.692" y2="124.721" stroke="#97999B" stroke-width="0.616519"/>
<defs>
<filter id="filter0_i_1299_9791" x="98.3584" y="34.7773" width="63.8848" height="106.011" filterUnits="userSpaceOnUse" color-interpolation-filters="sRGB">
<feFlood flood-opacity="0" result="BackgroundImageFix"/>
<feBlend mode="normal" in="SourceGraphic" in2="BackgroundImageFix" result="shape"/>
<feColorMatrix in="SourceAlpha" type="matrix" values="0 0 0 0 0 0 0 0 0 0 0 0 0 0 0 0 0 0 127 0" result="hardAlpha"/>
<feOffset dy="1.85172"/>
<feGaussianBlur stdDeviation="2.07991"/>
<feComposite in2="hardAlpha" operator="arithmetic" k2="-1" k3="1"/>
<feColorMatrix type="matrix" values="0 0 0 0 0 0 0 0 0 0 0 0 0 0 0 0 0 0 0.25 0"/>
<feBlend mode="normal" in2="shape" result="effect1_innerShadow_1299_9791"/>
</filter>
</defs>
</svg>

